<svg version="1.1" id="Layer_1" xmlns="http://www.w3.org/2000/svg" xmlns:xlink="http://www.w3.org/1999/xlink" x="0px" y="0px"
	 width="100%" viewBox="0 0 768 715" enable-background="new 0 0 768 715" xml:space="preserve">
<path fill="#185C37" opacity="1.000000" stroke="none" 
	d="
M769.000000,537.000000 
	C769.000000,589.022034 769.000000,641.044006 768.642456,693.533691 
	C763.323242,703.361755 756.817627,711.075806 746.388916,714.659119 
	C746.135681,714.746216 746.124207,715.537292 746.000000,716.000000 
	C565.311340,716.000000 384.622650,716.000000 203.464661,715.640381 
	C200.710663,714.046814 198.436050,712.793762 196.139496,711.582214 
	C185.326996,705.878113 179.557938,696.273560 179.239792,684.712585 
	C178.537003,659.174988 179.090485,633.602783 179.588928,608.030762 
	C246.475967,608.010010 312.905579,608.015930 379.335144,607.951599 
	C382.120087,607.948914 384.985016,607.596191 387.674835,606.885193 
	C398.428101,604.042542 405.265869,596.668640 410.364441,586.945435 
	C424.635986,580.636353 429.847534,568.815796 429.896118,554.680542 
	C430.121399,489.136810 429.984467,423.591766 430.447266,358.037109 
	C448.290466,358.008362 465.663696,357.989746 483.031616,357.980530 
	C483.026337,357.989899 483.032440,357.962524 483.025146,358.433472 
	C483.014801,415.720856 483.011169,472.537231 483.009277,529.353638 
	C483.009003,536.991089 483.012939,536.996216 490.582977,536.996338 
	C583.388672,536.998474 676.194336,536.999023 769.000000,537.000000 
z"/>
<path fill="#107C41" opacity="1.000000" stroke="none" 
	d="
M769.000000,536.531372 
	C676.194336,536.999023 583.388672,536.998474 490.582977,536.996338 
	C483.012939,536.996216 483.009003,536.991089 483.009277,529.353638 
	C483.011169,472.537231 483.014801,415.720856 483.490479,358.443542 
	C578.975403,357.988464 673.987671,357.994232 769.000000,358.000000 
	C769.000000,417.354218 769.000000,476.708466 769.000000,536.531372 
z"/>
<path fill="#33C481" opacity="1.000000" stroke="none" 
	d="
M483.000000,1.000000 
	C571.020874,1.000000 659.041809,1.000000 747.233887,1.293581 
	C747.866760,2.034683 748.249817,2.667727 748.801941,2.901922 
	C757.152832,6.444006 763.090332,12.407763 766.922424,20.591255 
	C767.227295,21.242331 768.289673,21.538759 769.000000,22.000000 
	C769.000000,74.354225 769.000000,126.708458 768.531433,179.520416 
	C675.614197,179.973557 583.165527,179.970215 490.716858,179.957733 
	C488.219879,179.957382 485.722870,179.858246 483.165802,179.358704 
	C483.070496,119.608147 483.035248,60.304073 483.000000,1.000000 
z"/>
<path fill="#21A366" opacity="1.000000" stroke="none" 
	d="
M483.225891,179.805176 
	C485.722870,179.858246 488.219879,179.957382 490.716858,179.957733 
	C583.165527,179.970215 675.614197,179.973557 768.531433,179.989075 
	C769.000000,239.020889 769.000000,298.041779 769.000000,357.531342 
	C673.987671,357.994232 578.975403,357.988464 483.497742,357.972595 
	C483.032440,357.962524 483.026337,357.989899 483.029633,357.514740 
	C483.020691,298.027618 483.008453,239.015671 483.052856,179.953232 
	C483.109558,179.902740 483.225891,179.805191 483.225891,179.805176 
z"/>
<path fill="#21A366" opacity="1.000000" stroke="none" 
	d="
M482.531342,1.000000 
	C483.035248,60.304073 483.070496,119.608147 483.165802,179.358704 
	C483.225891,179.805191 483.109558,179.902740 482.584900,179.935394 
	C464.712463,179.903915 447.364624,179.839752 430.013855,179.367294 
	C429.410187,156.681839 413.735931,143.656815 393.807983,143.797958 
	C322.263733,144.304657 250.713638,143.985825 179.103058,143.515442 
	C179.027039,106.445122 178.803162,69.836533 179.125443,33.232761 
	C179.225525,21.867960 183.906448,12.250535 194.043991,5.958366 
	C196.458389,4.459795 198.686310,2.660807 201.000000,0.999998 
	C294.687561,1.000000 388.375122,1.000000 482.531342,1.000000 
z"/>
<path fill="#000000" opacity="1.000000" stroke="none" 
	d="
M179.131470,608.044739 
	C179.090485,633.602783 178.537003,659.174988 179.239792,684.712585 
	C179.557938,696.273560 185.326996,705.878113 196.139496,711.582214 
	C198.436050,712.793762 200.710663,714.046814 202.997681,715.640381 
	C135.743256,716.000000 68.486504,716.000000 1.000000,716.000000 
	C1.000000,655.312622 1.000000,594.625000 1.292537,533.343323 
	C2.152281,533.319641 2.719488,533.889954 3.312909,534.820190 
	C8.333532,547.176697 17.676781,554.395691 30.244833,554.748596 
	C56.805317,555.494202 83.403755,554.888123 110.452919,554.894409 
	C133.585907,555.009521 156.252579,555.066772 178.938934,555.581421 
	C178.995132,561.707214 179.031677,567.375488 179.051926,573.509460 
	C179.067581,585.331665 179.099533,596.688171 179.131470,608.044739 
z"/>
<path fill="#000000" opacity="1.000000" stroke="none" 
	d="
M200.531342,0.999998 
	C198.686310,2.660807 196.458389,4.459795 194.043991,5.958366 
	C183.906448,12.250535 179.225525,21.867960 179.125443,33.232761 
	C178.803162,69.836533 179.027039,106.445122 179.042084,143.980988 
	C178.997116,150.264374 178.950409,155.618637 178.441193,160.982971 
	C130.586258,160.991058 83.193825,160.968811 35.801426,160.998734 
	C20.437071,161.008423 9.372494,167.902145 2.820272,181.908859 
	C2.571742,182.440155 1.622638,182.643723 1.000000,183.000000 
	C1.000000,122.402863 1.000000,61.805733 1.000000,1.000000 
	C67.354080,1.000000 133.708389,1.000000 200.531342,0.999998 
z"/>
<path fill="#148248" opacity="1.000000" stroke="none" 
	d="
M0.999996,383.000000 
	C1.000000,358.645782 1.000000,334.291534 1.354741,309.407288 
	C4.240279,307.631836 6.849620,306.522949 9.289340,305.119293 
	C27.583229,294.594177 45.837227,283.999786 64.116096,273.448547 
	C89.303612,258.909424 114.502579,244.390182 139.695572,229.860550 
	C162.297623,216.825195 184.900436,203.791107 207.498672,190.749100 
	C221.029175,182.940262 234.618301,175.228485 248.009033,167.186584 
	C250.140076,165.906784 251.362854,163.114609 253.473602,161.015869 
	C289.540375,161.007034 325.139099,160.987244 360.737701,161.043243 
	C362.824921,161.046524 364.911133,161.661728 367.274170,162.224121 
	C374.836182,164.481339 381.532440,167.450912 385.860138,174.287537 
	C384.490509,175.889481 383.485748,177.548874 382.014099,178.415421 
	C369.290375,185.907440 356.495270,193.278717 343.697266,200.644043 
	C316.662903,216.202423 289.597473,231.707016 262.614319,247.353577 
	C261.089417,248.237808 260.191101,250.202545 258.542725,251.754761 
	C254.755646,251.854874 251.410736,252.071503 248.103149,251.812225 
	C245.187515,251.583694 243.673660,252.729080 242.334305,255.249054 
	C228.615921,281.060059 214.783722,306.810608 200.963104,332.567200 
	C200.792328,332.885498 200.357208,333.062012 200.163910,333.212494 
	C187.054245,307.461090 173.963409,281.940552 161.127914,256.292236 
	C159.493881,253.027039 157.816040,251.722061 154.127869,251.781250 
	C140.483414,252.000229 126.833290,251.857635 113.185349,251.880539 
	C111.809349,251.882858 110.433678,252.085449 108.566048,252.234283 
	C109.934334,254.632538 110.967094,256.489990 112.043457,258.321869 
	C121.379402,274.210999 130.723206,290.095551 139.656250,305.986298 
	C136.454849,306.907410 133.432800,307.411285 130.909332,308.812805 
	C121.024841,314.302734 111.304375,320.087585 101.510796,325.741760 
	C76.450279,340.210114 51.409126,354.712372 26.304247,369.103424 
	C17.957052,373.888367 9.439601,378.376282 0.999996,383.000000 
z"/>
<path fill="#16854B" opacity="1.000000" stroke="none" 
	d="
M253.005539,161.021637 
	C251.362854,163.114609 250.140076,165.906784 248.009033,167.186584 
	C234.618301,175.228485 221.029175,182.940262 207.498672,190.749100 
	C184.900436,203.791107 162.297623,216.825195 139.695572,229.860550 
	C114.502579,244.390182 89.303612,258.909424 64.116096,273.448547 
	C45.837227,283.999786 27.583229,294.594177 9.289340,305.119293 
	C6.849620,306.522949 4.240279,307.631836 1.354741,308.938599 
	C1.000000,267.312439 1.000000,225.624878 1.000000,183.468658 
	C1.622638,182.643723 2.571742,182.440155 2.820272,181.908859 
	C9.372494,167.902145 20.437071,161.008423 35.801426,160.998734 
	C83.193825,160.968811 130.586258,160.991058 178.916626,160.989639 
	C204.238220,160.998047 228.621872,161.009842 253.005539,161.021637 
z"/>
<path fill="#138046" opacity="1.000000" stroke="none" 
	d="
M0.999996,383.468658 
	C9.439601,378.376282 17.957052,373.888367 26.304247,369.103424 
	C51.409126,354.712372 76.450279,340.210114 101.510796,325.741760 
	C111.304375,320.087585 121.024841,314.302734 130.909332,308.812805 
	C133.432800,307.411285 136.454849,306.907410 139.935455,306.181213 
	C150.137360,322.389587 159.706024,338.376251 169.077438,354.477753 
	C169.963730,356.000549 170.492386,358.794678 169.696899,360.066559 
	C162.738388,371.192627 155.440598,382.106476 147.840149,393.068207 
	C145.845993,393.447205 144.068680,393.511047 142.693817,394.287506 
	C131.537369,400.588074 120.443008,406.999146 109.354935,413.420013 
	C78.396004,431.347595 47.472473,449.336517 16.474043,467.195465 
	C11.476142,470.074890 6.165874,472.412140 0.999999,475.000000 
	C1.000000,444.645782 1.000000,414.291534 0.999996,383.468658 
z"/>
<path fill="#107B41" opacity="1.000000" stroke="none" 
	d="
M0.999999,475.468658 
	C6.165874,472.412140 11.476142,470.074890 16.474043,467.195465 
	C47.472473,449.336517 78.396004,431.347595 109.354935,413.420013 
	C120.443008,406.999146 131.537369,400.588074 142.693817,394.287506 
	C144.068680,393.511047 145.845993,393.447205 147.745209,393.407990 
	C147.167526,394.918030 146.193771,396.016815 145.408630,397.236938 
	C134.690994,413.892487 123.973770,430.548462 113.315910,447.242249 
	C109.765617,452.803192 106.383873,458.471710 102.397308,464.948486 
	C107.062363,464.948486 110.530624,464.948486 113.995369,465.334076 
	C113.173302,467.214661 112.740234,469.368713 111.478813,470.106567 
	C89.678841,482.858215 67.679016,495.269684 45.931885,508.109528 
	C31.545742,516.603333 17.490223,525.657166 3.286690,534.460266 
	C2.719488,533.889954 2.152281,533.319641 1.292537,532.874634 
	C1.000000,513.979126 1.000000,494.958221 0.999999,475.468658 
z"/>
<path fill="#000000" opacity="1.000000" stroke="none" 
	d="
M746.468689,716.000000 
	C746.124207,715.537292 746.135681,714.746216 746.388916,714.659119 
	C756.817627,711.075806 763.323242,703.361755 768.642456,694.000610 
	C769.000000,701.261230 769.000000,708.522522 769.000000,716.000000 
	C761.647217,716.000000 754.292358,716.000000 746.468689,716.000000 
z"/>
<path fill="#000000" opacity="1.000000" stroke="none" 
	d="
M769.000000,21.531086 
	C768.289673,21.538759 767.227295,21.242331 766.922424,20.591255 
	C763.090332,12.407763 757.152832,6.444006 748.801941,2.901922 
	C748.249817,2.667727 747.866760,2.034683 747.702515,1.293581 
	C754.926147,1.000000 761.852295,1.000000 769.000000,1.000000 
	C769.000000,7.685770 769.000000,14.373973 769.000000,21.531086 
z"/>
<path fill="#107C41" opacity="1.000000" stroke="none" 
	d="
M430.016815,179.775604 
	C447.364624,179.839752 464.712463,179.903915 482.528229,179.985901 
	C483.008453,239.015671 483.020691,298.027618 483.034912,357.505371 
	C465.663696,357.989746 448.290466,358.008362 430.453094,358.022583 
	C429.988953,358.018188 430.002441,357.994690 430.001404,357.526611 
	C430.001465,298.044983 430.002563,239.031433 430.003601,179.957123 
	C430.003510,179.896378 430.016815,179.775604 430.016815,179.775604 
z"/>
<path fill="#12462A" opacity="1.000000" stroke="none" 
	d="
M179.588928,608.030762 
	C179.099533,596.688171 179.067581,585.331665 179.513550,573.491577 
	C243.327637,572.673706 306.663818,572.339417 370.328888,572.241821 
	C383.806335,573.658508 395.661865,571.154297 404.301880,560.173889 
	C407.093018,556.626770 409.416229,552.711365 411.965454,549.435181 
	C411.323212,562.273499 410.669037,574.641052 410.014893,587.008606 
	C405.265869,596.668640 398.428101,604.042542 387.674835,606.885193 
	C384.985016,607.596191 382.120087,607.948914 379.335144,607.951599 
	C312.905579,608.015930 246.475967,608.010010 179.588928,608.030762 
z"/>
<path fill="#165332" opacity="1.000000" stroke="none" 
	d="
M410.364441,586.945435 
	C410.669037,574.641052 411.323212,562.273499 411.971283,548.970276 
	C411.978912,484.689362 411.992645,421.344086 412.473938,358.000000 
	C418.628448,357.998993 424.315460,357.996857 430.002441,357.994690 
	C430.002441,357.994690 429.988953,358.018188 429.983093,358.032715 
	C429.984467,423.591766 430.121399,489.136810 429.896118,554.680542 
	C429.847534,568.815796 424.635986,580.636353 410.364441,586.945435 
z"/>
<path fill="#1E935C" opacity="1.000000" stroke="none" 
	d="
M253.473602,161.015869 
	C228.621872,161.009842 204.238220,160.998047 179.379120,160.979553 
	C178.950409,155.618637 178.997116,150.264374 179.104797,144.444580 
	C250.713638,143.985825 322.263733,144.304657 393.807983,143.797958 
	C413.735931,143.656815 429.410187,156.681839 430.013855,179.367294 
	C430.016815,179.775604 430.003510,179.896378 429.534851,179.939468 
	C422.363373,180.004486 415.660492,180.026428 408.753052,180.007507 
	C408.548492,179.966660 408.140961,179.875183 408.046204,179.544235 
	C404.017303,172.219055 398.671539,166.134445 390.909912,164.272202 
	C383.200653,162.422546 374.989105,162.666382 366.997833,161.992157 
	C364.911133,161.661728 362.824921,161.046524 360.737701,161.043243 
	C325.139099,160.987244 289.540375,161.007034 253.473602,161.015869 
z"/>
<path fill="#0D6E37" opacity="1.000000" stroke="none" 
	d="
M178.919266,555.124023 
	C156.252579,555.066772 133.585907,555.009521 110.482063,554.550903 
	C112.057716,552.294922 113.814537,550.001892 116.123108,548.653625 
	C138.216141,535.750610 160.404175,523.010254 182.561569,510.217346 
	C206.301132,496.510895 230.053909,482.827057 253.732056,469.015259 
	C255.134247,468.197357 255.923630,466.328827 257.455536,464.838165 
	C269.198639,464.727173 280.484375,464.727173 292.580841,464.727173 
	C287.799561,457.103516 283.633240,450.460419 279.617615,443.431152 
	C281.582245,441.198395 283.104736,438.858978 285.257721,437.585449 
	C298.825867,429.559570 312.540527,421.781677 326.194366,413.900269 
	C346.171661,402.368744 366.125916,390.797211 386.122955,379.300049 
	C389.215881,377.521790 391.085724,375.263153 391.463715,371.528198 
	C391.656891,369.619598 393.045197,367.831909 393.925781,366.457886 
	C393.965088,415.842316 393.999207,464.758514 393.938385,513.674561 
	C393.932007,518.802612 393.365112,523.929993 392.974945,529.415344 
	C389.845245,540.292664 383.791138,548.442566 373.274994,552.112366 
	C368.205872,553.881226 362.574371,554.774231 357.192413,554.796082 
	C307.420929,554.998108 257.648315,554.913208 207.876022,554.937500 
	C198.223740,554.942261 188.571518,555.059021 178.919266,555.124023 
z"/>
<path fill="#0F763D" opacity="1.000000" stroke="none" 
	d="
M256.998169,464.949158 
	C255.923630,466.328827 255.134247,468.197357 253.732056,469.015259 
	C230.053909,482.827057 206.301132,496.510895 182.561569,510.217346 
	C160.404175,523.010254 138.216141,535.750610 116.123108,548.653625 
	C113.814537,550.001892 112.057716,552.294922 110.015762,554.493042 
	C83.403755,554.888123 56.805317,555.494202 30.244833,554.748596 
	C17.676781,554.395691 8.333532,547.176697 3.312904,534.820190 
	C17.490223,525.657166 31.545742,516.603333 45.931885,508.109528 
	C67.679016,495.269684 89.678841,482.858215 111.478813,470.106567 
	C112.740234,469.368713 113.173302,467.214661 114.452362,465.221497 
	C125.891991,464.707672 136.873352,464.563110 147.848816,464.755310 
	C151.113800,464.812469 152.830673,463.812225 154.412720,460.880127 
	C166.868927,437.794220 179.536697,414.822479 192.133316,391.812286 
	C194.155807,388.117828 196.148422,384.406982 198.158051,380.697754 
	C211.157837,405.033020 224.357437,428.851868 236.603470,453.151215 
	C240.871277,461.619690 245.397308,467.061371 255.537766,464.712891 
	C255.982498,464.609924 256.509521,464.862335 256.998169,464.949158 
z"/>
<path fill="#0B2A1A" opacity="1.000000" stroke="none" 
	d="
M178.938934,555.581482 
	C188.571518,555.059021 198.223740,554.942261 207.876022,554.937500 
	C257.648315,554.913208 307.420929,554.998108 357.192413,554.796082 
	C362.574371,554.774231 368.205872,553.881226 373.274994,552.112366 
	C383.791138,548.442566 389.845245,540.292664 393.205811,529.748047 
	C393.680023,532.366394 393.969940,535.009216 393.978088,537.652954 
	C394.019257,551.011536 388.748413,561.483276 377.008148,568.326233 
	C374.730988,569.653564 372.339020,570.783875 370.000000,572.005066 
	C306.663818,572.339417 243.327637,572.673706 179.529846,573.025940 
	C179.031677,567.375488 178.995132,561.707214 178.938934,555.581482 
z"/>
<path fill="#FDFEFD" opacity="1.000000" stroke="none" 
	d="
M257.455566,464.838196 
	C256.509521,464.862335 255.982498,464.609924 255.537766,464.712891 
	C245.397308,467.061371 240.871277,461.619690 236.603470,453.151215 
	C224.357437,428.851868 211.157837,405.033020 198.158051,380.697754 
	C196.148422,384.406982 194.155807,388.117828 192.133316,391.812286 
	C179.536697,414.822479 166.868927,437.794220 154.412720,460.880127 
	C152.830673,463.812225 151.113800,464.812469 147.848816,464.755310 
	C136.873352,464.563110 125.891991,464.707672 114.455887,464.835907 
	C110.530624,464.948486 107.062363,464.948486 102.397308,464.948486 
	C106.383873,458.471710 109.765617,452.803192 113.315910,447.242249 
	C123.973770,430.548462 134.690994,413.892487 145.408630,397.236938 
	C146.193771,396.016815 147.167526,394.918030 148.148529,393.423065 
	C155.440598,382.106476 162.738388,371.192627 169.696899,360.066559 
	C170.492386,358.794678 169.963730,356.000549 169.077438,354.477753 
	C159.706024,338.376251 150.137360,322.389587 140.343872,306.176331 
	C130.723206,290.095551 121.379402,274.210999 112.043457,258.321869 
	C110.967094,256.489990 109.934334,254.632538 108.566048,252.234283 
	C110.433678,252.085449 111.809349,251.882858 113.185349,251.880539 
	C126.833290,251.857635 140.483414,252.000229 154.127869,251.781250 
	C157.816040,251.722061 159.493881,253.027039 161.127914,256.292236 
	C173.963409,281.940552 187.054245,307.461090 200.163910,333.212494 
	C200.357208,333.062012 200.792328,332.885498 200.963104,332.567200 
	C214.783722,306.810608 228.615921,281.060059 242.334305,255.249054 
	C243.673660,252.729080 245.187515,251.583694 248.103149,251.812225 
	C251.410736,252.071503 254.755646,251.854874 259.004211,251.841537 
	C269.935394,251.837936 279.946716,251.837936 290.872833,251.837936 
	C268.908539,287.663666 247.575394,322.459900 226.149384,357.407623 
	C228.418213,360.848877 230.597717,364.154633 232.857483,367.785034 
	C248.447495,393.345520 263.957214,418.581421 279.466949,443.817322 
	C283.633240,450.460419 287.799561,457.103516 292.580841,464.727173 
	C280.484375,464.727173 269.198639,464.727173 257.455566,464.838196 
z"/>
<path fill="#127F44" opacity="1.000000" stroke="none" 
	d="
M232.777222,367.460419 
	C230.597717,364.154633 228.418213,360.848877 226.149384,357.407623 
	C247.575394,322.459900 268.908539,287.663666 290.872833,251.837936 
	C279.946716,251.837936 269.935394,251.837936 259.462616,251.751160 
	C260.191101,250.202545 261.089417,248.237808 262.614319,247.353577 
	C289.597473,231.707016 316.662903,216.202423 343.697266,200.644043 
	C356.495270,193.278717 369.290375,185.907440 382.014099,178.415421 
	C383.485748,177.548874 384.490509,175.889481 386.138123,174.462891 
	C388.010193,176.221069 389.455902,178.114059 390.989166,180.383408 
	C392.046600,185.276260 393.800690,189.783569 393.853882,194.310822 
	C394.118713,216.869537 393.936371,239.433517 393.579834,262.128448 
	C392.801361,263.276306 392.099457,264.255463 391.950623,265.312500 
	C391.205933,270.601166 388.894073,274.409210 383.807831,276.929382 
	C377.117554,280.244385 370.826874,284.362854 364.346344,288.104645 
	C341.735046,301.160248 319.113373,314.197937 296.500641,327.251068 
	C276.768005,338.641693 256.999054,349.971100 237.378662,361.552032 
	C235.379028,362.732300 234.289230,365.454041 232.777222,367.460419 
z"/>
<path fill="#135F3B" opacity="1.000000" stroke="none" 
	d="
M390.901581,180.007050 
	C389.455902,178.114059 388.010193,176.221069 386.286499,174.152740 
	C381.532440,167.450912 374.836182,164.481339 367.274170,162.224121 
	C374.989105,162.666382 383.200653,162.422546 390.909912,164.272202 
	C398.671539,166.134445 404.017303,172.219055 407.565674,179.574921 
	C401.753815,179.960068 396.327698,179.983566 390.901581,180.007050 
z"/>
<path fill="#0E703B" opacity="1.000000" stroke="none" 
	d="
M408.957642,180.048355 
	C415.660492,180.026428 422.363373,180.004486 429.534943,180.000214 
	C430.002563,239.031433 430.001465,298.044983 430.001404,357.526611 
	C424.315460,357.996857 418.628448,357.998993 412.462036,358.005157 
	C411.982605,358.009186 411.960999,358.022705 411.970428,357.551880 
	C411.983704,308.258301 411.992188,259.435547 411.987640,210.612778 
	C411.986664,200.326920 412.762970,189.959167 408.957642,180.048355 
z"/>
<path fill="#0E3520" opacity="1.000000" stroke="none" 
	d="
M370.328857,572.241821 
	C372.339020,570.783875 374.730988,569.653564 377.008148,568.326233 
	C388.748413,561.483276 394.019257,551.011536 393.978088,537.652954 
	C393.969940,535.009216 393.680023,532.366394 393.289185,529.390381 
	C393.365112,523.929993 393.932007,518.802612 393.938385,513.674561 
	C393.999207,464.758514 393.965088,415.842316 393.953461,366.015564 
	C393.988739,362.745880 394.028809,360.386780 394.532440,358.020996 
	C400.651001,358.017120 406.306000,358.019928 411.960999,358.022705 
	C411.960999,358.022705 411.982605,358.009186 411.994507,358.004028 
	C411.992645,421.344086 411.978912,484.689362 411.959351,548.499512 
	C409.416229,552.711365 407.093018,556.626770 404.301880,560.173889 
	C395.661865,571.154297 383.806335,573.658508 370.328857,572.241821 
z"/>
<path fill="#094826" opacity="1.000000" stroke="none" 
	d="
M411.970428,357.551880 
	C406.306000,358.019928 400.651001,358.017120 394.506256,357.550049 
	C393.981476,325.389069 393.946442,293.692352 393.911438,261.995636 
	C393.936371,239.433517 394.118713,216.869537 393.853882,194.310822 
	C393.800690,189.783569 392.046600,185.276260 390.989166,180.383423 
	C396.327698,179.983566 401.753815,179.960068 407.660461,179.905884 
	C408.140961,179.875183 408.548492,179.966660 408.753052,180.007507 
	C412.762970,189.959167 411.986664,200.326920 411.987640,210.612778 
	C411.992188,259.435547 411.983704,308.258301 411.970428,357.551880 
z"/>
<path fill="#10783F" opacity="1.000000" stroke="none" 
	d="
M393.579834,262.128448 
	C393.946442,293.692352 393.981476,325.389069 394.042694,357.556732 
	C394.028809,360.386780 393.988739,362.745880 393.921021,365.547302 
	C393.045197,367.831909 391.656891,369.619598 391.463715,371.528198 
	C391.085724,375.263153 389.215881,377.521790 386.122955,379.300049 
	C366.125916,390.797211 346.171661,402.368744 326.194366,413.900269 
	C312.540527,421.781677 298.825867,429.559570 285.257721,437.585449 
	C283.104736,438.858978 281.582245,441.198395 279.617615,443.431152 
	C263.957214,418.581421 248.447495,393.345520 232.857483,367.785034 
	C234.289230,365.454041 235.379028,362.732300 237.378662,361.552032 
	C256.999054,349.971100 276.768005,338.641693 296.500641,327.251068 
	C319.113373,314.197937 341.735046,301.160248 364.346344,288.104645 
	C370.826874,284.362854 377.117554,280.244385 383.807831,276.929382 
	C388.894073,274.409210 391.205933,270.601166 391.950623,265.312500 
	C392.099457,264.255463 392.801361,263.276306 393.579834,262.128448 
z"/>
</svg>