<svg version="1.1" id="Layer_1" xmlns="http://www.w3.org/2000/svg" xmlns:xlink="http://www.w3.org/1999/xlink" x="0px" y="0px"
	 width="100%" viewBox="0 0 1200 857" enable-background="new 0 0 1200 857" xml:space="preserve">
<path fill="#000000" opacity="1.000000" stroke="none" 
	d="
M355.000000,858.000000 
	C237.026627,858.000000 119.053253,858.000000 1.039942,858.000000 
	C1.039942,572.424438 1.039942,286.848846 1.039942,1.000000 
	C216.693451,1.000000 432.386993,1.000000 648.893311,1.309324 
	C648.729858,2.097621 647.795715,2.708610 646.770996,3.035385 
	C634.881042,6.826905 622.222595,9.087005 611.240051,14.656136 
	C590.582886,25.131132 570.900757,37.526455 550.795288,49.092274 
	C524.146851,64.422066 497.512970,79.777657 470.813599,95.018356 
	C446.952087,108.639099 423.010193,122.118912 398.814972,135.801727 
	C392.326843,139.578796 386.127502,143.215073 379.576477,146.918823 
	C373.830017,150.067520 368.435272,153.148743 362.570679,156.194046 
	C274.966736,156.190674 187.832642,156.214325 100.698578,156.284515 
	C96.719521,156.287720 92.725838,156.561966 88.764427,156.962112 
	C67.321136,159.128036 50.554165,176.087158 50.260792,197.545792 
	C49.757545,234.355270 50.153141,271.177032 50.099174,308.457825 
	C49.846169,332.872253 49.582550,356.822205 49.502422,380.772766 
	C49.352737,425.511963 49.309582,470.251495 49.145527,515.454590 
	C48.941669,554.744385 49.147018,593.575378 48.583340,632.395203 
	C48.120743,664.253540 74.518227,681.767212 97.554344,681.295044 
	C145.692810,680.308289 193.865936,681.013000 242.103867,681.447632 
	C242.256287,683.880920 242.329681,685.889465 242.345886,688.178040 
	C242.328293,688.644470 242.367920,688.830872 242.317535,689.426575 
	C242.267807,691.227112 242.308136,692.618347 242.266525,694.380737 
	C242.229324,695.506409 242.274063,696.260925 242.236694,697.425659 
	C242.174072,699.227417 242.193527,700.619019 242.128784,702.457764 
	C242.085251,705.939941 242.125885,708.974976 242.103699,712.474243 
	C241.416565,728.944153 241.930267,744.994385 246.301498,760.393982 
	C253.409561,785.435303 266.009186,807.268982 286.005859,824.675903 
	C304.050934,840.383911 324.409851,850.761353 347.912659,855.130005 
	C350.368103,855.586487 352.641937,857.019836 355.000000,858.000000 
z"/>
<path fill="#000000" opacity="1.000000" stroke="none" 
	d="
M696.000000,1.000007 
	C864.287598,1.000000 1032.575195,1.000000 1200.931396,1.000000 
	C1200.931396,286.543335 1200.931396,572.086670 1200.931396,858.000000 
	C1133.975586,858.000000 1066.950439,858.000000 999.101562,857.690796 
	C999.430542,856.922852 1000.550903,856.341553 1001.741699,856.026794 
	C1006.833069,854.681274 1011.945129,853.414307 1017.364868,852.154419 
	C1019.119690,851.799438 1020.559326,851.408752 1022.003235,851.013062 
	C1022.007446,851.008057 1022.018494,851.002197 1022.365234,850.983887 
	C1023.488342,850.643494 1024.264648,850.321411 1025.268433,849.958069 
	C1025.495850,849.916809 1025.926147,849.748474 1026.267822,849.826416 
	C1027.751587,849.268555 1028.893677,848.632690 1030.264404,847.957153 
	C1030.493042,847.917542 1030.925537,847.749634 1031.264648,847.816650 
	C1032.731812,847.259277 1033.859863,846.634949 1035.000366,846.010742 
	C1035.012817,846.010803 1035.015015,845.985962 1035.322266,845.963135 
	C1036.086792,845.631958 1036.543945,845.323608 1037.002930,845.010071 
	C1037.004883,845.004883 1037.015381,845.002136 1037.321045,844.974976 
	C1038.080444,844.635742 1038.534180,844.323547 1039.000000,844.011475 
	C1039.012207,844.011475 1039.015381,843.987366 1039.322510,843.965454 
	C1040.084961,843.634216 1040.540527,843.324768 1041.002930,843.012329 
	C1041.009766,843.009338 1041.016846,842.996094 1041.324219,842.971069 
	C1042.085205,842.634949 1042.539062,842.323914 1043.002075,842.011230 
	C1043.011353,842.009644 1043.016113,841.991333 1043.319824,841.965454 
	C1044.071533,841.630249 1044.519531,841.320801 1044.992310,841.015137 
	C1045.016968,841.018921 1045.013062,840.969177 1045.332520,840.943481 
	C1046.434204,840.282959 1047.216553,839.648132 1048.001953,839.009033 
	C1048.004883,839.004883 1048.014282,838.999878 1048.320068,838.973022 
	C1049.074829,838.633057 1049.523926,838.319885 1049.993286,838.010010 
	C1050.013550,838.013245 1050.008057,837.972473 1050.337402,837.961182 
	C1051.441040,837.304382 1052.215454,836.658875 1053.001831,836.012817 
	C1053.013916,836.012268 1053.017334,835.988037 1053.323853,835.964966 
	C1054.074097,835.630310 1054.517822,835.318604 1054.991211,835.010132 
	C1055.020874,835.013367 1055.017090,834.953735 1055.264893,834.909668 
	C1055.666138,834.582825 1055.819458,834.300049 1055.994629,834.018921 
	C1056.016479,834.020508 1056.011108,833.976990 1056.343506,833.955139 
	C1057.786743,832.959412 1058.897705,831.985474 1060.265137,830.959961 
	C1060.689087,830.858398 1060.856323,830.808472 1061.255615,830.820068 
	C1061.828125,830.733826 1061.978271,830.475464 1062.199219,829.999207 
	C1062.654053,829.581421 1062.847534,829.270996 1063.282715,828.911804 
	C1063.837646,828.673279 1063.988403,828.395386 1064.004272,828.030640 
	C1064.031738,828.031860 1064.029297,827.976868 1064.274292,827.922119 
	C1064.678589,827.586853 1064.838013,827.306274 1065.007812,827.022034 
	C1065.018188,827.018372 1065.025635,826.997192 1065.271240,826.934692 
	C1065.680054,826.589539 1065.843262,826.306885 1066.008057,826.016846 
	C1066.009766,826.009399 1066.024536,826.006470 1066.348633,825.977905 
	C1067.440063,825.307983 1068.207397,824.666687 1069.005493,824.025757 
	C1069.036133,824.026062 1069.032715,823.964905 1069.271729,823.912842 
	C1069.825439,823.674805 1069.970825,823.399353 1069.989258,823.034180 
	C1070.031372,823.033875 1070.033447,822.949585 1070.274902,822.905884 
	C1070.832520,822.676208 1070.979004,822.400085 1070.993774,822.033142 
	C1071.032104,822.032471 1071.033447,821.955750 1071.274658,821.909546 
	C1071.831909,821.676819 1071.978760,821.400452 1071.994507,821.033447 
	C1072.032471,821.032776 1072.033691,820.956848 1072.274780,820.909851 
	C1072.831787,820.676270 1072.978760,820.399780 1072.994141,820.032715 
	C1073.031494,820.031982 1073.032715,819.957275 1073.273926,819.909729 
	C1073.831299,819.675171 1073.978271,819.398315 1073.993042,819.031006 
	C1074.029785,819.030273 1074.030884,818.956787 1074.271973,818.909424 
	C1074.828857,818.676025 1074.976562,818.399963 1075.217896,817.949036 
	C1075.666382,817.559998 1075.853271,817.255859 1076.279053,816.907349 
	C1076.833862,816.678284 1076.974854,816.403687 1076.989502,816.037476 
	C1077.037964,816.035767 1077.037720,815.938538 1077.274414,815.896118 
	C1077.824463,815.671814 1077.963989,815.400513 1077.976685,815.037598 
	C1078.023926,815.035400 1078.021973,814.940857 1078.330322,814.847107 
	C1079.093384,813.843872 1079.548096,812.934387 1080.008057,812.018982 
	C1080.013184,812.013062 1080.025146,812.002197 1080.269531,811.938965 
	C1080.671753,811.592957 1080.829468,811.310181 1081.007080,811.027344 
	C1081.026733,811.027161 1081.027100,810.987610 1081.270874,810.930298 
	C1081.668335,810.591858 1081.821899,810.310791 1082.003662,810.030884 
	C1082.031860,810.031982 1082.029297,809.975769 1082.272949,809.923096 
	C1082.832764,809.680725 1082.987183,809.401489 1083.004883,809.033875 
	C1083.029907,809.034973 1083.028442,808.984802 1083.320068,808.887512 
	C1083.743774,808.201477 1083.875854,807.612671 1084.008057,807.015930 
	C1084.008179,807.007996 1084.023804,807.006897 1084.268433,806.941650 
	C1084.671753,806.593079 1084.830444,806.309631 1085.006836,806.025513 
	C1085.024536,806.024780 1085.025879,805.989319 1085.268066,805.932373 
	C1085.831177,805.687073 1085.979980,805.407288 1085.995117,805.034607 
	C1086.033325,805.033081 1086.032837,804.956482 1086.271973,804.907532 
	C1086.870239,804.653320 1086.944580,804.372559 1086.821045,803.769287 
	C1086.945923,803.351868 1086.983765,803.181458 1087.265381,802.943726 
	C1087.665161,802.592957 1087.821411,802.309387 1088.000610,802.026367 
	C1088.023682,802.026978 1088.019531,801.981079 1088.329346,801.875671 
	C1089.087158,800.854614 1089.535278,799.938904 1090.003906,799.023499 
	C1090.024414,799.023804 1090.022339,798.982666 1090.309570,798.878784 
	C1090.735474,798.190674 1090.873901,797.606323 1091.008545,797.013306 
	C1091.004883,797.004578 1091.022339,797.010559 1091.264893,796.943115 
	C1091.661255,796.593140 1091.814941,796.310608 1091.997070,796.028809 
	C1092.025513,796.029663 1092.020630,795.972961 1092.307983,795.872803 
	C1092.728394,795.190430 1092.861450,794.608154 1093.006958,794.022827 
	C1093.019409,794.019836 1093.023315,793.994141 1093.264404,793.932007 
	C1093.870361,793.662903 1093.950317,793.376404 1093.832520,792.767883 
	C1093.953369,792.357178 1093.987061,792.188843 1094.260986,791.949707 
	C1094.651855,791.597412 1094.802490,791.315918 1094.989258,791.032471 
	C1095.025146,791.030518 1095.023438,790.958557 1095.308594,790.860962 
	C1095.722900,790.186096 1095.852051,789.608704 1096.003906,789.031006 
	C1096.026733,789.030701 1096.023193,788.985168 1096.309326,788.882263 
	C1096.725830,788.197815 1096.856201,787.616272 1097.009033,787.034363 
	C1097.031616,787.034058 1097.030396,786.988831 1097.275146,786.932861 
	C1097.595703,786.588501 1097.671753,786.300110 1097.828003,785.764038 
	C1097.942505,785.346130 1097.976929,785.175964 1098.299194,784.898315 
	C1098.721191,784.204041 1098.855225,783.617310 1099.008057,783.029480 
	C1099.026978,783.028442 1099.027344,782.990662 1099.271484,782.933716 
	C1099.592163,782.588806 1099.668579,782.300842 1099.833252,781.751587 
	C1099.977173,781.315063 1100.032837,781.139893 1100.324585,780.917480 
	C1100.914917,780.661255 1100.980957,780.383423 1100.829834,779.707520 
	C1100.939087,778.930725 1100.977295,778.483215 1101.299316,777.915649 
	C1101.716675,777.207886 1101.850098,776.620178 1102.006836,776.031311 
	C1102.030396,776.030151 1102.025024,775.983276 1102.309082,775.874573 
	C1102.646240,775.185486 1102.699463,774.605164 1102.839844,773.783203 
	C1102.955688,773.372742 1102.984253,773.203918 1103.299316,772.914185 
	C1103.645752,772.202209 1103.705811,771.611145 1103.850830,770.780579 
	C1103.962280,770.373840 1103.988647,770.206482 1104.297974,769.912598 
	C1104.644897,769.196777 1104.708740,768.607544 1104.855103,767.779663 
	C1104.963501,767.374573 1104.989380,767.208191 1105.297852,766.914429 
	C1105.643188,766.197937 1105.705933,765.608704 1105.852417,764.779907 
	C1105.962036,764.373169 1105.988159,764.206055 1106.324829,763.884521 
	C1106.683838,762.826904 1106.732178,761.923523 1106.859619,760.782593 
	C1106.964844,760.380249 1106.991211,760.215393 1107.301270,759.922852 
	C1107.646362,759.203369 1107.707520,758.611450 1107.849365,757.696655 
	C1107.958130,756.930908 1107.986206,756.488037 1108.340454,755.866577 
	C1108.709473,754.464661 1108.752441,753.241455 1108.871582,751.777344 
	C1108.970825,751.369751 1108.994019,751.203003 1109.365967,750.810547 
	C1110.138916,745.664734 1110.930786,740.744690 1110.933350,735.824341 
	C1111.002075,597.475342 1110.992798,459.126373 1110.986328,320.777405 
	C1110.986084,315.950165 1110.881226,311.122894 1110.885742,305.806824 
	C1110.961670,297.000336 1111.361816,288.659180 1110.855957,280.373291 
	C1110.520508,274.878571 1108.887573,269.463074 1107.895996,263.610596 
	C1105.163086,255.542206 1103.004639,247.556915 1099.371582,240.310913 
	C1096.545776,234.674942 1091.882568,229.960236 1088.017822,224.562286 
	C1087.729126,223.846283 1087.458374,223.404037 1087.055786,222.711273 
	C1086.632935,222.223923 1086.342041,221.987076 1085.895752,221.465378 
	C1081.333374,217.305069 1077.098633,213.207870 1072.473755,209.612549 
	C1067.176392,205.494370 1061.532593,201.821762 1055.873413,197.656555 
	C1045.061768,190.991547 1034.486328,184.504074 1023.754883,178.285767 
	C1003.894287,166.777573 983.933777,155.441986 964.031738,144.005173 
	C951.056335,136.548798 938.162292,128.949188 925.133728,121.587334 
	C916.191345,116.534363 907.080505,111.779526 897.893433,106.580338 
	C893.481689,103.901855 889.221497,101.534470 884.653259,98.994141 
	C880.565247,96.593498 876.785217,94.365784 872.687927,91.983505 
	C869.277466,90.208817 866.184387,88.588699 862.939514,86.648132 
	C847.304016,77.466736 831.839050,68.572838 816.331848,59.753078 
	C796.458313,48.449966 776.258423,37.686588 756.742798,25.798159 
	C738.377258,14.610299 719.007935,6.660912 697.852722,2.951856 
	C697.142883,2.827402 696.613464,1.673869 696.000000,1.000007 
z"/>
<path fill="#26AEE9" opacity="1.000000" stroke="none" 
	d="
M695.531372,1.000007 
	C696.613464,1.673869 697.142883,2.827402 697.852722,2.951856 
	C719.007935,6.660912 738.377258,14.610299 756.742798,25.798159 
	C776.258423,37.686588 796.458313,48.449966 816.331848,59.753078 
	C831.839050,68.572838 847.304016,77.466736 862.652222,86.843193 
	C861.817688,87.811127 861.140686,88.302368 860.416809,88.710526 
	C804.722717,120.113304 749.039795,151.535919 693.320984,182.894867 
	C666.942261,197.741028 640.494446,212.464539 614.036743,226.808929 
	C612.983643,216.977325 612.498047,207.487396 610.856567,198.201782 
	C606.690918,174.637421 594.527039,156.700241 572.458801,146.238785 
	C560.037354,140.350388 546.728516,138.171936 533.197449,138.088974 
	C492.719238,137.840805 452.238190,138.068237 411.759186,137.896973 
	C407.537659,137.879105 403.322083,136.440399 399.103760,135.660919 
	C423.010193,122.118912 446.952087,108.639099 470.813599,95.018356 
	C497.512970,79.777657 524.146851,64.422066 550.795288,49.092274 
	C570.900757,37.526455 590.582886,25.131132 611.240051,14.656136 
	C622.222595,9.087005 634.881042,6.826905 646.770996,3.035385 
	C647.795715,2.708610 648.729858,2.097621 649.353027,1.309324 
	C664.354248,1.000000 679.708435,1.000000 695.531372,1.000007 
z"/>
<path fill="#158FDA" opacity="1.000000" stroke="none" 
	d="
M355.468658,858.000000 
	C352.641937,857.019836 350.368103,855.586487 347.912659,855.130005 
	C324.409851,850.761353 304.050934,840.383911 286.005859,824.675903 
	C266.009186,807.268982 253.409561,785.435303 246.301498,760.393982 
	C241.930267,744.994385 241.416565,728.944153 242.561615,712.471802 
	C327.461914,712.003418 411.841461,712.001648 496.220978,712.000061 
	C504.479340,711.999939 512.737671,712.000732 520.844360,712.298218 
	C512.117737,722.281067 505.054321,732.934814 500.576355,745.119629 
	C496.545502,756.087830 492.619873,767.266357 494.189392,779.163025 
	C499.737183,821.214111 537.135254,855.032043 579.964844,857.300903 
	C579.988037,857.533203 580.000000,858.000000 580.000000,858.000000 
	C505.312439,858.000000 430.624878,858.000000 355.468658,858.000000 
z"/>
<path fill="#3CCBF2" opacity="1.000000" stroke="none" 
	d="
M992.000000,858.000000 
	C991.250000,858.000000 990.500000,858.000000 989.051636,857.738708 
	C986.379639,857.311523 984.406311,857.004578 982.432434,857.001160 
	C957.946228,856.958191 933.459900,856.959473 908.976318,856.560303 
	C908.560852,854.579346 908.327698,852.909790 907.697388,851.406921 
	C894.513611,819.973938 881.296997,788.554749 868.061890,757.143433 
	C853.599854,722.820496 839.098938,688.513855 824.640320,654.189514 
	C812.182556,624.615112 799.731445,595.037842 787.362366,565.426331 
	C785.963501,562.077271 784.417297,559.416687 780.334961,559.724365 
	C802.627686,546.940247 824.791382,534.463562 847.357971,521.997681 
	C851.247681,521.658936 853.329285,523.283142 854.664612,526.464783 
	C866.314514,554.221741 878.050049,581.942749 889.720215,609.691284 
	C903.453491,642.345276 917.124084,675.025757 930.863403,707.677185 
	C950.343628,753.971863 969.902710,800.233398 989.283264,846.569580 
	C990.774414,850.134766 991.121277,854.178650 992.000000,858.000000 
z"/>
<path fill="#37C3F0" opacity="1.000000" stroke="none" 
	d="
M992.437500,858.000000 
	C991.121277,854.178650 990.774414,850.134766 989.283264,846.569580 
	C969.902710,800.233398 950.343628,753.971863 930.863403,707.677185 
	C917.124084,675.025757 903.453491,642.345276 889.720215,609.691284 
	C878.050049,581.942749 866.314514,554.221741 854.664612,526.464783 
	C853.329285,523.283142 851.247681,521.658936 847.559570,521.714233 
	C867.853333,509.959351 888.348389,498.498535 909.044678,486.944305 
	C909.504517,486.705780 909.738708,486.528442 910.260925,486.179321 
	C911.379822,485.682922 912.186279,485.325989 913.056091,485.328918 
	C920.428223,503.005005 927.742310,520.318970 935.044312,537.638000 
	C947.064880,566.148438 959.072571,594.664307 971.095337,623.173828 
	C985.057129,656.281494 999.038391,689.380920 1012.994202,722.491089 
	C1025.011841,751.002930 1037.130127,779.473389 1048.927490,808.076172 
	C1052.124268,815.826477 1054.318848,823.990112 1056.775879,832.173340 
	C1056.389282,832.914062 1056.200195,833.445496 1056.011108,833.976990 
	C1056.011108,833.976990 1056.016479,834.020508 1055.791748,834.126038 
	C1055.311646,834.417297 1055.128296,834.658020 1055.017090,834.953735 
	C1055.017090,834.953735 1055.020874,835.013367 1054.707153,835.035156 
	C1053.934692,835.367371 1053.476074,835.677673 1053.017334,835.988037 
	C1053.017334,835.988037 1053.013916,836.012268 1052.661865,836.012085 
	C1051.542725,836.665405 1050.775391,837.318970 1050.008057,837.972534 
	C1050.008057,837.972473 1050.013550,838.013245 1049.707764,838.038330 
	C1048.939453,838.375610 1048.476807,838.687744 1048.014282,838.999878 
	C1048.014282,838.999878 1048.004883,839.004883 1047.662109,839.010010 
	C1046.550537,839.666504 1045.781860,840.317871 1045.013184,840.969238 
	C1045.013062,840.969177 1045.016968,841.018921 1044.707520,841.039673 
	C1043.937378,841.370728 1043.476685,841.681030 1043.016113,841.991333 
	C1043.016113,841.991333 1043.011353,842.009644 1042.715088,842.039307 
	C1041.951538,842.378052 1041.484131,842.687073 1041.016846,842.996094 
	C1041.016846,842.996094 1041.009766,843.009338 1040.715820,843.039307 
	C1039.953125,843.375305 1039.484253,843.681335 1039.015381,843.987366 
	C1039.015381,843.987366 1039.012207,844.011475 1038.713135,844.039673 
	C1037.947754,844.379333 1037.481567,844.690735 1037.015381,845.002136 
	C1037.015381,845.002136 1037.004883,845.004883 1036.715332,845.036987 
	C1035.955444,845.374695 1035.485229,845.680298 1035.015015,845.985962 
	C1035.015015,845.985962 1035.012817,846.010803 1034.647461,845.993652 
	C1033.163208,846.567566 1032.044434,847.158630 1030.925537,847.749634 
	C1030.925537,847.749634 1030.493042,847.917542 1029.908569,847.946533 
	C1028.191528,848.566589 1027.058838,849.157532 1025.926147,849.748535 
	C1025.926147,849.748474 1025.495850,849.916809 1024.934570,849.955811 
	C1023.588379,850.330627 1022.803406,850.666382 1022.018494,851.002197 
	C1022.018494,851.002197 1022.007446,851.008057 1021.621155,850.991760 
	C1019.839783,851.356506 1018.444702,851.737610 1017.049683,852.118774 
	C1011.945129,853.414307 1006.833069,854.681274 1001.741699,856.026794 
	C1000.550903,856.341553 999.430542,856.922852 998.638916,857.690796 
	C996.958313,858.000000 994.916687,858.000000 992.437500,858.000000 
z"/>
<path fill="#2FB8EA" opacity="1.000000" stroke="none" 
	d="
M908.973633,856.949341 
	C933.459900,856.959473 957.946228,856.958191 982.432434,857.001160 
	C984.406311,857.004578 986.379639,857.311523 988.676636,857.738708 
	C852.979126,858.000000 716.958191,858.000000 580.468628,858.000000 
	C580.000000,858.000000 579.988037,857.533203 580.438110,857.273438 
	C654.584351,856.992371 728.280518,856.971069 802.447266,856.970337 
	C838.269836,856.977112 873.621765,856.963257 908.973633,856.949341 
z"/>
<path fill="#137ED6" opacity="1.000000" stroke="none" 
	d="
M50.171368,307.993622 
	C50.153141,271.177032 49.757545,234.355270 50.260792,197.545792 
	C50.554165,176.087158 67.321136,159.128036 88.764427,156.962112 
	C92.725838,156.561966 96.719521,156.287720 100.698578,156.284515 
	C187.832642,156.214325 274.966736,156.190674 362.933167,156.381622 
	C365.914032,156.735748 368.062531,156.979568 370.211121,156.980423 
	C427.126404,157.002975 484.041687,156.992584 540.956970,157.028687 
	C543.431824,157.030258 545.953064,157.185471 548.373413,157.667160 
	C561.128174,160.205521 570.692505,167.467606 578.048584,178.366211 
	C583.025574,188.302719 584.336243,198.518829 584.062805,209.169235 
	C583.764160,220.801804 584.010681,232.448364 583.980347,244.547455 
	C583.932861,252.666000 583.924561,260.325928 583.716980,268.344788 
	C583.456238,274.776642 583.394775,280.849609 583.268311,287.391754 
	C583.128296,305.238403 583.053345,322.615814 582.512024,339.995300 
	C539.926392,339.998260 497.807129,339.977814 455.687988,340.045685 
	C452.730804,340.050446 449.774628,340.707764 446.548553,340.851562 
	C436.600830,320.752655 422.771606,304.363983 404.534546,291.849335 
	C378.506683,273.988464 349.419830,266.922821 318.101471,267.367767 
	C285.106842,267.836548 254.283951,275.602234 227.706406,295.591797 
	C216.873505,303.739441 208.011337,314.507294 197.826813,323.995728 
	C194.607559,323.605621 191.814407,323.042542 189.020523,323.038940 
	C145.595703,322.983154 102.170807,323.005127 58.745926,322.993958 
	C52.304852,322.992310 52.212803,322.682770 51.919228,316.208038 
	C51.794136,313.449158 50.780964,310.730530 50.171368,307.993622 
z"/>
<path fill="#0C68CD" opacity="1.000000" stroke="none" 
	d="
M242.024826,681.022888 
	C193.865936,681.013000 145.692810,680.308289 97.554344,681.295044 
	C74.518227,681.767212 48.120743,664.253540 48.583340,632.395203 
	C49.147018,593.575378 48.941669,554.744385 49.599728,515.455505 
	C99.649689,515.001038 149.168884,515.009277 198.932800,515.263489 
	C208.272476,524.708374 216.389130,535.217285 226.638046,542.870972 
	C263.675598,570.529907 305.835907,575.498657 350.090973,567.362854 
	C377.193634,562.380371 400.916046,550.087769 421.368103,531.067261 
	C424.078979,531.434082 426.377228,531.961975 428.675964,531.963928 
	C479.953400,532.006836 531.230896,531.991821 582.597168,532.445312 
	C582.610107,537.022827 582.426086,541.144226 582.481628,545.262451 
	C582.588135,553.160522 582.830750,561.056763 582.783081,569.298950 
	C582.371887,571.616455 582.044800,573.588379 582.040283,575.561157 
	C581.996704,594.706482 581.527710,613.866699 582.116821,632.993835 
	C582.958862,660.334534 561.484314,681.213928 534.199768,681.125000 
	C436.809052,680.807617 339.416626,681.014465 242.024826,681.022888 
z"/>
<path fill="#1073D2" opacity="1.000000" stroke="none" 
	d="
M198.688065,515.017517 
	C149.168884,515.009277 99.649689,515.001038 49.676304,514.991821 
	C49.309582,470.251495 49.352737,425.511963 49.502422,380.772766 
	C49.582550,356.822205 49.846169,332.872253 50.099174,308.457825 
	C50.780964,310.730530 51.794136,313.449158 51.919228,316.208038 
	C52.212803,322.682770 52.304852,322.992310 58.745926,322.993958 
	C102.170807,323.005127 145.595703,322.983154 189.020523,323.038940 
	C191.814407,323.042542 194.607559,323.605621 197.771698,324.354065 
	C186.888657,341.855133 179.513229,360.434753 175.369293,380.460541 
	C170.968674,401.726746 170.063217,423.076935 172.575302,444.571533 
	C175.563263,470.137909 184.356537,493.621368 198.688065,515.017517 
z"/>
<path fill="#24A3DB" opacity="1.000000" stroke="none" 
	d="
M398.814972,135.801727 
	C403.322083,136.440399 407.537659,137.879105 411.759186,137.896973 
	C452.238190,138.068237 492.719238,137.840805 533.197449,138.088974 
	C546.728516,138.171936 560.037354,140.350388 572.458801,146.238785 
	C594.527039,156.700241 606.690918,174.637421 610.856567,198.201782 
	C612.498047,207.487396 612.983643,216.977325 614.025024,227.006546 
	C614.054382,227.638870 614.005676,228.034363 613.674561,228.142761 
	C609.563538,230.184891 605.783630,232.118637 602.002991,233.583557 
	C601.331482,223.351273 601.196899,213.514359 599.871216,203.840652 
	C597.568542,187.037125 590.103821,172.981522 576.191467,162.596359 
	C561.963196,151.975372 545.393250,149.309280 528.519653,149.152710 
	C481.395874,148.715408 434.265320,149.031738 387.137817,148.908493 
	C384.732819,148.902206 382.331299,147.567520 379.928162,146.851334 
	C386.127502,143.215073 392.326843,139.578796 398.814972,135.801727 
z"/>
<path fill="#1488CF" opacity="1.000000" stroke="none" 
	d="
M520.996033,712.001038 
	C512.737671,712.000732 504.479340,711.999939 496.220978,712.000061 
	C411.841461,712.001648 327.461914,712.003418 242.624451,712.007568 
	C242.125885,708.974976 242.085251,705.939941 242.583649,702.456421 
	C336.692383,702.005310 430.262054,701.995178 523.831726,702.048584 
	C525.899353,702.049744 527.966614,702.774475 529.864197,703.434082 
	C527.384888,706.097595 525.075378,708.488770 522.536743,711.008545 
	C521.870361,711.425049 521.433167,711.713013 520.996033,712.001038 
z"/>
<path fill="#2199CD" opacity="1.000000" stroke="none" 
	d="
M379.576477,146.918823 
	C382.331299,147.567520 384.732819,148.902206 387.137817,148.908493 
	C434.265320,149.031738 481.395874,148.715408 528.519653,149.152710 
	C545.393250,149.309280 561.963196,151.975372 576.191467,162.596359 
	C590.103821,172.981522 597.568542,187.037125 599.871216,203.840652 
	C601.196899,213.514359 601.331482,223.351273 601.789185,233.821243 
	C599.971924,235.602142 598.367737,236.676498 596.479614,237.809021 
	C595.813110,237.921143 595.430542,237.975098 594.730103,237.796478 
	C593.942627,235.879562 593.122620,234.206467 593.067993,232.508759 
	C592.892578,227.056625 593.811829,221.443481 592.824890,216.170166 
	C590.926758,206.027985 588.419128,195.945953 585.281677,186.120834 
	C584.272766,182.961563 580.490112,180.688049 577.976501,178.009308 
	C570.692505,167.467606 561.128174,160.205521 548.373413,157.667160 
	C545.953064,157.185471 543.431824,157.030258 540.956970,157.028687 
	C484.041687,156.992584 427.126404,157.002975 370.211121,156.980423 
	C368.062531,156.979568 365.914032,156.735748 363.403015,156.417572 
	C368.435272,153.148743 373.830017,150.067520 379.576477,146.918823 
z"/>
<path fill="#1171AD" opacity="1.000000" stroke="none" 
	d="
M242.103867,681.447632 
	C339.416626,681.014465 436.809052,680.807617 534.199768,681.125000 
	C561.484314,681.213928 582.958862,660.334534 582.116821,632.993835 
	C581.527710,613.866699 581.996704,594.706482 582.040283,575.561157 
	C582.044800,573.588379 582.371887,571.616455 583.104370,569.376221 
	C585.112061,570.031677 586.564636,570.955017 587.858398,572.272095 
	C587.466309,580.298279 587.299500,587.933472 586.985962,595.562622 
	C586.351929,610.992432 586.685120,626.555786 584.691345,641.812134 
	C582.217041,660.745850 571.236877,673.868347 552.929260,680.656921 
	C540.152710,685.394653 526.782471,685.781555 513.604004,685.830444 
	C425.649139,686.156860 337.692444,685.984680 249.736511,686.079590 
	C247.291382,686.082275 244.847519,687.265320 242.403076,687.897949 
	C242.329681,685.889465 242.256287,683.880920 242.103867,681.447632 
z"/>
<path fill="#1279B9" opacity="1.000000" stroke="none" 
	d="
M242.348450,694.009583 
	C242.308136,692.618347 242.267807,691.227112 242.759186,689.423950 
	C333.248505,689.008057 423.206268,689.066101 513.163574,688.910950 
	C522.931030,688.894104 532.759094,688.128479 542.450317,686.871704 
	C566.318420,683.776428 584.069031,667.181458 587.798401,643.570435 
	C589.861938,630.505676 590.278931,617.149536 590.907532,603.899536 
	C591.380615,593.926453 591.009827,583.913391 591.336792,573.979736 
	C592.789734,574.643799 593.920715,575.246216 594.964111,576.272034 
	C594.584534,579.153625 594.053528,581.610413 594.039856,584.070190 
	C593.959473,598.521973 594.395935,612.988403 593.885742,627.422668 
	C593.396667,641.259033 591.161499,654.820801 583.165771,666.741699 
	C581.839905,668.718445 581.115295,671.098511 579.878967,673.532715 
	C576.750671,675.331726 573.881531,676.939575 570.956726,678.439026 
	C563.334961,682.346863 555.688843,686.207153 547.766846,689.855774 
	C545.654236,689.750122 543.827087,689.875061 541.640686,690.064941 
	C539.854248,690.419922 538.427124,690.709961 536.803101,690.845520 
	C536.070862,691.127380 535.535400,691.563660 534.637390,691.996826 
	C532.516541,691.995728 530.758240,691.997864 528.531372,692.000000 
	C519.708496,692.000000 511.354248,692.000000 502.657867,691.767212 
	C501.841888,691.388306 501.368286,691.115295 500.894165,691.114380 
	C474.792480,691.066406 448.690674,691.014709 422.589325,691.097961 
	C421.390686,691.101807 420.195953,692.337891 418.657135,693.232422 
	C416.180054,693.642395 414.045349,693.973877 411.910431,693.975098 
	C355.389771,694.007385 298.869110,694.005615 242.348450,694.009583 
z"/>
<path fill="#1383C7" opacity="1.000000" stroke="none" 
	d="
M530.034058,703.161621 
	C527.966614,702.774475 525.899353,702.049744 523.831726,702.048584 
	C430.262054,701.995178 336.692383,702.005310 242.667847,702.009277 
	C242.193527,700.619019 242.174072,699.227417 242.684525,697.424011 
	C334.261322,697.008118 425.308228,697.017273 516.355103,696.965942 
	C521.654358,696.962952 526.953125,696.321167 532.252747,696.310852 
	C533.529480,696.308411 534.808899,697.641357 535.890015,698.599854 
	C533.806641,700.280273 531.920349,701.720947 530.034058,703.161621 
z"/>
<path fill="#1176B3" opacity="1.000000" stroke="none" 
	d="
M591.014771,573.918091 
	C591.009827,583.913391 591.380615,593.926453 590.907532,603.899536 
	C590.278931,617.149536 589.861938,630.505676 587.798401,643.570435 
	C584.069031,667.181458 566.318420,683.776428 542.450317,686.871704 
	C532.759094,688.128479 522.931030,688.894104 513.163574,688.910950 
	C423.206268,689.066101 333.248505,689.008057 242.849228,689.014648 
	C242.367920,688.830872 242.328293,688.644470 242.345886,688.178040 
	C244.847519,687.265320 247.291382,686.082275 249.736511,686.079590 
	C337.692444,685.984680 425.649139,686.156860 513.604004,685.830444 
	C526.782471,685.781555 540.152710,685.394653 552.929260,680.656921 
	C571.236877,673.868347 582.217041,660.745850 584.691345,641.812134 
	C586.685120,626.555786 586.351929,610.992432 586.985962,595.562622 
	C587.299500,587.933472 587.466309,580.298279 588.128540,572.420654 
	C589.376587,572.756409 590.195679,573.337219 591.014771,573.918091 
z"/>
<path fill="#137EC0" opacity="1.000000" stroke="none" 
	d="
M536.087036,698.360107 
	C534.808899,697.641357 533.529480,696.308411 532.252747,696.310852 
	C526.953125,696.321167 521.654358,696.962952 516.355103,696.965942 
	C425.308228,697.017273 334.261322,697.008118 242.766632,697.013855 
	C242.274063,696.260925 242.229324,695.506409 242.266510,694.380737 
	C298.869110,694.005615 355.389771,694.007385 411.910431,693.975098 
	C414.045349,693.973877 416.180054,693.642395 419.125854,693.232422 
	C447.624542,693.000000 475.312256,693.000000 503.342133,693.232788 
	C511.264587,693.622498 518.844849,693.842651 526.425293,693.849060 
	C527.282959,693.849731 528.141724,692.645508 529.000000,692.000000 
	C530.758240,691.997864 532.516541,691.995728 534.970703,691.996826 
	C536.111084,692.000000 536.555542,692.000000 537.277161,692.215332 
	C539.072815,693.007507 540.591370,693.584290 541.916443,694.406860 
	C540.445435,695.689819 539.167908,696.726990 537.586182,697.851318 
	C536.883667,698.079041 536.485352,698.219543 536.087036,698.360107 
z"/>
<path fill="#31BAEC" opacity="1.000000" stroke="none" 
	d="
M1056.973389,831.963989 
	C1054.318848,823.990112 1052.124268,815.826477 1048.927490,808.076172 
	C1037.130127,779.473389 1025.011841,751.002930 1012.994202,722.491089 
	C999.038391,689.380920 985.057129,656.281494 971.095337,623.173828 
	C959.072571,594.664307 947.064880,566.148438 935.044312,537.638000 
	C927.742310,520.318970 920.428223,503.005005 913.224854,485.030518 
	C919.336609,480.956512 925.299805,477.462189 931.357422,474.139954 
	C948.548950,464.711578 965.779053,455.353516 983.063843,446.313660 
	C984.260010,448.489563 985.638916,450.211792 986.473206,452.166504 
	C993.984680,469.764648 1001.431213,487.390717 1008.837830,505.033295 
	C1023.200562,539.245361 1037.473145,573.495300 1051.878784,607.689209 
	C1069.449707,649.396667 1087.230591,691.016235 1104.615112,732.800903 
	C1106.987427,738.502808 1107.593384,744.939636 1109.017090,751.036194 
	C1108.994019,751.203003 1108.970825,751.369751 1108.686768,752.071655 
	C1108.288696,753.752930 1108.151489,754.899109 1108.014282,756.045227 
	C1107.986206,756.488037 1107.958130,756.930908 1107.680420,757.916382 
	C1107.292969,758.989563 1107.155151,759.520020 1107.017456,760.050476 
	C1106.991211,760.215393 1106.964844,760.380249 1106.680786,761.046509 
	C1106.286743,762.378235 1106.150513,763.208557 1106.014160,764.038879 
	C1105.988159,764.206055 1105.962036,764.373169 1105.683350,764.998535 
	C1105.292114,765.985107 1105.153687,766.513428 1105.015137,767.041809 
	C1104.989380,767.208191 1104.963501,767.374573 1104.685791,767.998169 
	C1104.294434,768.983276 1104.154785,769.511230 1104.015015,770.039185 
	C1103.988647,770.206482 1103.962280,770.373840 1103.682007,770.998169 
	C1103.289673,771.981750 1103.151245,772.508362 1103.012817,773.035034 
	C1102.984253,773.203918 1102.955688,773.372742 1102.672852,773.993408 
	C1102.287476,774.957886 1102.156250,775.470581 1102.024902,775.983276 
	C1102.025024,775.983276 1102.030396,776.030151 1101.798462,776.228394 
	C1101.382935,776.963013 1101.199219,777.499390 1101.015503,778.035767 
	C1100.977295,778.483215 1100.939087,778.930725 1100.676025,779.829651 
	C1100.261353,780.472412 1100.140503,780.700256 1100.088501,780.964661 
	C1100.032837,781.139893 1099.977173,781.315063 1099.679932,781.888428 
	C1099.248047,782.490112 1099.110962,782.724792 1099.027344,782.990662 
	C1099.027344,782.990662 1099.026978,783.028442 1098.798340,783.221985 
	C1098.383667,783.945679 1098.197510,784.475769 1098.011230,785.005859 
	C1097.976929,785.175964 1097.942505,785.346130 1097.674561,785.900635 
	C1097.250244,786.488159 1097.113403,786.722778 1097.030396,786.988831 
	C1097.030396,786.988831 1097.031616,787.034058 1096.800293,787.223145 
	C1096.387085,787.936523 1096.205200,788.460876 1096.023193,788.985168 
	C1096.023193,788.985168 1096.026733,789.030701 1095.796753,789.217407 
	C1095.385620,789.922302 1095.204590,790.440430 1095.023438,790.958557 
	C1095.023438,790.958557 1095.025146,791.030518 1094.796631,791.158081 
	C1094.328857,791.488281 1094.146484,791.733215 1094.020752,792.020508 
	C1093.987061,792.188843 1093.953369,792.357178 1093.678589,792.905945 
	C1093.246460,793.491272 1093.108398,793.727234 1093.023315,793.994141 
	C1093.023315,793.994141 1093.019409,794.019836 1092.797729,794.211853 
	C1092.390991,794.926941 1092.205811,795.449951 1092.020630,795.972961 
	C1092.020630,795.972961 1092.025513,796.029663 1091.802734,796.153687 
	C1091.338257,796.479553 1091.152466,796.723816 1091.022339,797.010559 
	C1091.022339,797.010559 1091.004883,797.004578 1090.796875,797.203491 
	C1090.400146,797.929138 1090.211304,798.455933 1090.022461,798.982666 
	C1090.022339,798.982666 1090.024414,799.023804 1089.687622,799.112488 
	C1088.906982,800.127808 1088.463257,801.054443 1088.019531,801.981079 
	C1088.019531,801.981079 1088.023682,802.026978 1087.804688,802.151855 
	C1087.341675,802.478516 1087.153687,802.723267 1087.021729,803.010986 
	C1086.983765,803.181458 1086.945923,803.351868 1086.669434,803.898560 
	C1086.242310,804.469482 1086.109741,804.696777 1086.032837,804.956482 
	C1086.032837,804.956482 1086.033325,805.033081 1085.803711,805.154541 
	C1085.335571,805.471008 1085.152954,805.708801 1085.025879,805.989319 
	C1085.025879,805.989319 1085.024536,806.024780 1084.809570,806.150024 
	C1084.348877,806.475708 1084.158569,806.719604 1084.023804,807.006897 
	C1084.023804,807.006897 1084.008179,807.007996 1083.796753,807.205811 
	C1083.399658,807.930664 1083.214111,808.457764 1083.028564,808.984802 
	C1083.028442,808.984802 1083.029907,809.034973 1082.810303,809.151245 
	C1082.347778,809.459351 1082.160645,809.695435 1082.029297,809.975769 
	C1082.029297,809.975769 1082.031860,810.031982 1081.809448,810.151367 
	C1081.344849,810.466309 1081.158203,810.705200 1081.027100,810.987610 
	C1081.027100,810.987610 1081.026733,811.027161 1080.810425,811.150696 
	C1080.348755,811.473328 1080.159058,811.715942 1080.025146,812.002197 
	C1080.025146,812.002197 1080.013184,812.013062 1079.692139,812.105347 
	C1078.921265,813.112061 1078.471680,814.026428 1078.021973,814.940857 
	C1078.021973,814.940857 1078.023926,815.035400 1077.791992,815.147766 
	C1077.329346,815.442749 1077.155273,815.668884 1077.037720,815.938538 
	C1077.037720,815.938538 1077.037964,816.035767 1076.802734,816.150146 
	C1076.333984,816.449341 1076.158203,816.678406 1076.040161,816.951782 
	C1075.853271,817.255859 1075.666382,817.559998 1075.027832,818.063171 
	C1074.338867,818.450134 1074.156982,818.681641 1074.030884,818.956787 
	C1074.030884,818.956787 1074.029785,819.030273 1073.803223,819.145996 
	C1073.339233,819.449768 1073.157959,819.681641 1073.032715,819.957275 
	C1073.032715,819.957275 1073.031494,820.031982 1072.804321,820.147217 
	C1072.339844,820.450012 1072.158691,820.681458 1072.033691,820.956848 
	C1072.033691,820.956848 1072.032471,821.032776 1071.804688,821.147705 
	C1071.339600,821.449463 1071.158447,821.680542 1071.033447,821.955750 
	C1071.033447,821.955750 1071.032104,822.032471 1070.804443,822.146484 
	C1070.339722,822.446106 1070.158691,822.675781 1070.033447,822.949585 
	C1070.033447,822.949585 1070.031372,823.033875 1069.800293,823.149719 
	C1069.333130,823.454712 1069.154297,823.687866 1069.032715,823.964905 
	C1069.032715,823.964905 1069.036133,824.026062 1068.670410,824.030884 
	C1067.544556,824.692627 1066.784546,825.349548 1066.024536,826.006470 
	C1066.024536,826.006470 1066.009766,826.009399 1065.808594,826.139771 
	C1065.357666,826.467834 1065.163696,826.710144 1065.025635,826.997192 
	C1065.025635,826.997192 1065.018188,827.018372 1064.810791,827.141357 
	C1064.355957,827.456604 1064.164551,827.694153 1064.029297,827.976868 
	C1064.029297,827.976868 1064.031738,828.031860 1063.812012,828.146729 
	C1063.350830,828.448975 1063.166992,828.681946 1063.040894,828.960510 
	C1062.847534,829.270996 1062.654053,829.581421 1062.017578,830.058594 
	C1061.344849,830.355286 1061.161133,830.533081 1061.023682,830.758545 
	C1060.856323,830.808472 1060.689087,830.858398 1059.947998,830.997437 
	C1058.573853,831.379089 1057.773560,831.671570 1056.973389,831.963989 
z"/>
<path fill="#29B0E9" opacity="1.000000" stroke="none" 
	d="
M1109.365967,750.810547 
	C1107.593384,744.939636 1106.987427,738.502808 1104.615112,732.800903 
	C1087.230591,691.016235 1069.449707,649.396667 1051.878784,607.689209 
	C1037.473145,573.495300 1023.200562,539.245361 1008.837830,505.033295 
	C1001.431213,487.390717 993.984680,469.764648 986.473206,452.166504 
	C985.638916,450.211792 984.260010,448.489563 983.289185,446.059753 
	C998.039185,437.243042 1012.634338,429.027252 1027.228149,420.808990 
	C1040.961914,413.075012 1054.614502,405.222107 1066.376465,394.017395 
	C1070.751099,389.567993 1074.826660,385.276764 1079.089355,380.703033 
	C1090.027100,368.409851 1098.250000,354.807770 1102.971558,339.444458 
	C1106.300171,328.613312 1108.256226,317.360291 1110.825195,306.295654 
	C1110.881226,311.122894 1110.986084,315.950165 1110.986328,320.777405 
	C1110.992798,459.126373 1111.002075,597.475342 1110.933350,735.824341 
	C1110.930786,740.744690 1110.138916,745.664734 1109.365967,750.810547 
z"/>
<path fill="#014295" opacity="1.000000" stroke="none" 
	d="
M1110.885742,305.806824 
	C1108.256226,317.360291 1106.300171,328.613312 1102.971558,339.444458 
	C1098.250000,354.807770 1090.027100,368.409851 1078.816895,380.614990 
	C1078.423340,379.864441 1078.155396,378.697662 1078.611084,378.011444 
	C1081.087158,374.282898 1083.979126,370.817017 1086.295776,366.998535 
	C1100.110474,344.229034 1103.253174,319.567932 1097.809692,293.900726 
	C1095.253174,281.846619 1089.435791,271.031433 1078.922119,263.673218 
	C1066.848267,255.222946 1054.431030,257.631134 1042.537476,263.836639 
	C1021.140320,275.000641 999.969238,286.600708 978.768372,298.137329 
	C958.008484,309.433899 937.302490,320.830170 916.621704,332.271027 
	C893.322083,345.160675 870.101196,358.192719 846.801147,371.081635 
	C826.119995,382.521759 805.352661,393.806000 784.667908,405.239807 
	C757.722168,420.134491 730.840027,435.144165 703.893677,450.037628 
	C683.208435,461.470520 662.560242,472.976410 641.709045,484.100342 
	C631.497986,489.547882 622.825378,496.010193 620.030518,507.979156 
	C619.049805,512.178894 617.988403,516.382141 617.384033,520.643372 
	C615.267334,535.568726 621.371460,558.072510 639.181152,564.635071 
	C642.764160,565.955383 646.170044,567.755432 649.660461,569.328064 
	C666.546204,576.935730 684.256897,581.390442 702.744019,581.914551 
	C726.731018,582.594421 747.877991,573.211914 768.375854,562.061462 
	C778.292480,556.666992 788.089539,551.053528 797.962158,545.577759 
	C812.913574,537.285034 827.929688,529.107788 842.832825,520.729492 
	C857.450928,512.511414 871.907227,504.005035 886.535950,495.806152 
	C901.305847,487.528168 916.259338,479.577576 931.024780,471.291779 
	C948.547119,461.458923 965.942627,451.400238 983.415283,441.478363 
	C1000.757751,431.630402 1018.267700,422.067291 1035.427734,411.912201 
	C1044.280762,406.673126 1052.478394,400.334656 1061.119141,394.719330 
	C1062.347900,393.920868 1064.054199,390.406036 1066.077515,394.175598 
	C1054.614502,405.222107 1040.961914,413.075012 1027.228149,420.808990 
	C1012.634338,429.027252 998.039185,437.243042 983.219299,445.713837 
	C965.779053,455.353516 948.548950,464.711578 931.357422,474.139954 
	C925.299805,477.462189 919.336609,480.956512 913.161499,484.670654 
	C912.186279,485.325989 911.379822,485.682922 910.012329,486.151001 
	C909.248657,486.520721 909.046082,486.779236 908.843506,487.037750 
	C888.348389,498.498535 867.853333,509.959351 847.156616,521.703552 
	C824.791382,534.463562 802.627686,546.940247 780.241699,559.776550 
	C780.019409,560.136169 779.977173,560.345642 779.698669,560.325317 
	C778.978210,560.550110 778.536255,560.795349 778.061890,561.028564 
	C778.029541,561.016541 778.014709,561.083984 777.763672,561.122131 
	C777.347717,561.441040 777.182678,561.721802 777.004028,562.001465 
	C776.990479,562.000488 777.001404,562.025635 776.706665,562.076782 
	C775.966675,562.429321 775.521484,562.730652 775.035828,563.038940 
	C774.995422,563.045898 775.010681,563.126465 774.722290,563.158447 
	C774.010681,563.480225 773.587402,563.770020 773.085327,564.088135 
	C773.006592,564.116516 772.996521,564.283691 772.720093,564.278870 
	C772.048035,564.543701 771.652405,564.813354 771.171753,565.131104 
	C771.086792,565.179199 771.088440,565.374451 770.776550,565.358582 
	C769.694031,565.915466 768.923462,566.488220 768.085205,567.061523 
	C768.017517,567.062195 768.010864,567.197388 767.720825,567.203491 
	C767.004517,567.492310 766.578186,567.774963 766.077271,568.079651 
	C766.002686,568.101685 766.002136,568.257385 765.723755,568.258301 
	C765.047180,568.533936 764.648926,568.808716 764.167114,569.127258 
	C764.083557,569.171021 764.088318,569.359558 763.775024,569.344788 
	C762.687622,569.905273 761.913513,570.480530 761.075745,571.054932 
	C761.012085,571.054077 761.011841,571.181396 760.739014,571.204346 
	C760.053833,571.510254 759.641479,571.793152 759.139160,572.096985 
	C759.049133,572.117920 758.996216,572.294983 758.716309,572.280579 
	C758.029663,572.534851 757.623047,572.803589 757.120483,573.118896 
	C757.024597,573.165527 756.972656,573.372253 756.707703,573.345093 
	C756.067993,573.576294 755.693176,573.834595 755.219604,574.159912 
	C755.120789,574.226990 755.091553,574.463989 754.783630,574.422852 
	C753.714844,574.944885 752.954041,575.508118 752.113647,576.083618 
	C752.034119,576.095764 752.004700,576.254028 751.739990,576.262451 
	C751.082520,576.544250 750.689697,576.817688 750.185913,577.129150 
	C750.075073,577.167236 749.975891,577.379700 749.707397,577.347534 
	C749.053467,577.573364 748.667969,577.831299 748.191589,578.140686 
	C748.100708,578.192139 748.088257,578.400635 747.778076,578.373901 
	C746.703857,578.920044 745.939758,579.492859 745.101196,580.073242 
	C745.026733,580.080811 745.006958,580.229248 744.738892,580.243164 
	C744.067078,580.532471 743.663330,580.807983 743.161377,581.111023 
	C743.063110,581.138611 742.991821,581.329834 742.737427,581.322754 
	C742.112488,581.578308 741.742004,581.841003 741.264282,582.145142 
	C741.156982,582.186646 741.085754,582.405396 740.752075,582.377563 
	C739.025085,583.261475 737.631653,584.173279 736.194092,585.027649 
	C736.149841,584.970276 736.006470,584.991211 735.628540,585.006836 
	C734.000977,585.432129 732.648132,585.655273 731.517700,586.280518 
	C720.785156,592.216858 709.352844,596.244324 697.181274,597.430237 
	C688.848083,598.242188 680.397034,597.844543 671.874084,597.656982 
	C670.925110,596.838867 670.152283,596.211914 669.268433,595.885193 
	C659.594849,592.309265 649.825745,588.978638 640.234009,585.197144 
	C620.277771,577.329529 610.277344,561.368896 607.265869,541.190796 
	C605.694519,530.662109 606.122375,519.611328 607.221863,508.958801 
	C609.000671,491.724640 618.590637,478.399323 632.594177,468.976898 
	C643.870056,461.389771 656.281250,455.483185 668.226257,448.899078 
	C688.913391,437.496307 709.657104,426.196014 730.326294,414.760864 
	C753.612854,401.877625 776.817810,388.846954 800.104858,375.964783 
	C823.831116,362.839722 847.629028,349.844299 871.368225,336.742615 
	C895.833679,323.240082 920.267456,309.680145 944.712708,296.141113 
	C962.609863,286.228760 980.444580,276.201813 998.417480,266.428833 
	C1011.866882,259.115570 1025.283081,251.679886 1039.129883,245.185120 
	C1045.777954,242.066879 1053.283569,239.929230 1060.583130,239.217133 
	C1077.731567,237.544281 1090.451294,246.120270 1101.002319,258.823517 
	C1102.782349,260.966461 1105.533081,262.303040 1107.835327,264.012146 
	C1108.887573,269.463074 1110.520508,274.878571 1110.855957,280.373291 
	C1111.361816,288.659180 1110.961670,297.000336 1110.885742,305.806824 
z"/>
<path fill="#013E8C" opacity="1.000000" stroke="none" 
	d="
M1107.895996,263.610596 
	C1105.533081,262.303040 1102.782349,260.966461 1101.002319,258.823517 
	C1090.451294,246.120270 1077.731567,237.544281 1060.583130,239.217133 
	C1053.283569,239.929230 1045.777954,242.066879 1039.129883,245.185120 
	C1025.283081,251.679886 1011.866882,259.115570 998.417480,266.428833 
	C980.444580,276.201813 962.609863,286.228760 944.712708,296.141113 
	C920.267456,309.680145 895.833679,323.240082 871.368225,336.742615 
	C847.629028,349.844299 823.831116,362.839722 800.104858,375.964783 
	C776.817810,388.846954 753.612854,401.877625 730.326294,414.760864 
	C709.657104,426.196014 688.913391,437.496307 668.226257,448.899078 
	C656.281250,455.483185 643.870056,461.389771 632.594177,468.976898 
	C618.590637,478.399323 609.000671,491.724640 607.221863,508.958801 
	C606.122375,519.611328 605.694519,530.662109 607.265869,541.190796 
	C610.277344,561.368896 620.277771,577.329529 640.234009,585.197144 
	C649.825745,588.978638 659.594849,592.309265 669.268433,595.885193 
	C670.152283,596.211914 670.925110,596.838867 671.418823,597.685547 
	C662.894348,596.922485 654.543762,596.450195 646.544983,594.519958 
	C635.603088,591.879456 624.928589,588.130554 613.930054,584.651062 
	C613.076416,584.002075 612.432251,583.558716 611.998779,582.875122 
	C611.128723,579.760315 610.448853,576.646362 608.899231,574.051880 
	C601.441040,561.565186 598.984375,547.527893 597.237366,533.577454 
	C595.243530,517.656006 598.299805,501.881226 604.382996,487.152435 
	C607.934265,478.553833 613.065918,470.327637 618.832947,462.992401 
	C626.804504,452.852997 638.729614,447.659241 649.814209,441.576263 
	C669.797302,430.610046 689.743469,419.576447 709.691223,408.545959 
	C733.859741,395.181610 758.002380,381.770203 782.178345,368.419189 
	C799.656677,358.766968 817.188538,349.211761 834.665222,339.556610 
	C858.693176,326.282074 882.684082,312.940460 906.705383,299.653687 
	C923.740112,290.231354 940.773499,280.806000 957.852661,271.464539 
	C982.960938,257.731567 1007.880676,243.626663 1033.330566,230.556259 
	C1047.551025,223.253067 1062.838257,218.901245 1079.119751,224.245972 
	C1081.493652,225.025284 1083.843628,225.907242 1086.266235,226.482208 
	C1086.701538,226.585495 1087.438354,225.417252 1088.036011,224.836060 
	C1091.882568,229.960236 1096.545776,234.674942 1099.371582,240.310913 
	C1103.004639,247.556915 1105.163086,255.542206 1107.895996,263.610596 
z"/>
<path fill="#013A83" opacity="1.000000" stroke="none" 
	d="
M1088.017822,224.562302 
	C1087.438354,225.417252 1086.701538,226.585495 1086.266235,226.482208 
	C1083.843628,225.907242 1081.493652,225.025284 1079.119751,224.245972 
	C1062.838257,218.901245 1047.551025,223.253067 1033.330566,230.556259 
	C1007.880676,243.626663 982.960938,257.731567 957.852661,271.464539 
	C940.773499,280.806000 923.740112,290.231354 906.705383,299.653687 
	C882.684082,312.940460 858.693176,326.282074 834.665222,339.556610 
	C817.188538,349.211761 799.656677,358.766968 782.178345,368.419189 
	C758.002380,381.770203 733.859741,395.181610 709.691223,408.545959 
	C689.743469,419.576447 669.797302,430.610046 649.814209,441.576263 
	C638.729614,447.659241 626.804504,452.852997 618.832947,462.992401 
	C613.065918,470.327637 607.934265,478.553833 604.382996,487.152435 
	C598.299805,501.881226 595.243530,517.656006 597.237366,533.577454 
	C598.984375,547.527893 601.441040,561.565186 608.899231,574.051880 
	C610.448853,576.646362 611.128723,579.760315 611.639526,582.834961 
	C608.060303,581.992798 605.051147,580.950500 601.899658,579.653442 
	C601.167847,578.891785 600.578186,578.384949 599.989990,577.477417 
	C599.693542,575.460144 599.649963,573.743713 599.059998,572.241943 
	C589.577148,548.103333 586.912903,523.312500 593.178894,498.067139 
	C597.625305,480.152740 603.515869,462.693634 615.985962,448.301788 
	C618.719971,445.146423 620.696350,441.334625 623.244873,437.645020 
	C624.353149,436.726349 625.238281,435.987762 626.465881,435.142212 
	C647.240784,423.824036 667.690369,412.643951 688.102234,401.395233 
	C733.887634,376.163544 779.657410,350.903412 825.427795,325.644409 
	C882.568054,294.110748 939.720764,262.599579 996.819763,230.991302 
	C1005.359802,226.263748 1013.635803,221.059250 1022.406616,216.053329 
	C1028.889648,212.750031 1034.999878,209.468781 1041.398438,205.997131 
	C1043.779053,204.786423 1045.871704,203.766129 1048.268799,202.618149 
	C1051.062012,200.978836 1053.550659,199.467224 1056.039307,197.955582 
	C1061.532593,201.821762 1067.176392,205.494370 1072.473755,209.612549 
	C1077.098633,213.207870 1081.333374,217.305069 1086.040771,221.706604 
	C1086.623291,222.475723 1086.905518,222.718750 1087.187744,222.961792 
	C1087.458374,223.404037 1087.729126,223.846283 1088.017822,224.562302 
z"/>
<path fill="#005FA6" opacity="1.000000" stroke="none" 
	d="
M614.005676,228.034363 
	C614.005676,228.034363 614.054382,227.638870 614.066162,227.441254 
	C640.494446,212.464539 666.942261,197.741028 693.320984,182.894867 
	C749.039795,151.535919 804.722717,120.113304 860.416809,88.710526 
	C861.140686,88.302368 861.817688,87.811127 862.803955,87.163635 
	C866.184387,88.588699 869.277466,90.208817 872.649963,92.338501 
	C871.715149,93.814667 870.628784,95.052811 869.262329,95.695770 
	C865.506409,97.463127 861.465088,98.672401 857.833984,100.648720 
	C838.404968,111.223434 819.031799,121.902267 799.705750,132.664291 
	C774.277527,146.824371 748.882568,161.044739 723.525696,175.332138 
	C696.286865,190.679840 669.321777,206.528793 641.831909,221.410187 
	C622.370605,231.945389 608.099548,246.875320 598.222229,266.464233 
	C589.603333,283.557312 587.201660,301.925476 587.077759,320.643433 
	C586.821899,359.280304 586.868042,397.920959 587.135986,436.557678 
	C587.178955,442.756134 589.012756,448.942169 589.787354,455.364441 
	C587.390930,456.751648 585.225891,457.908356 583.037109,458.592804 
	C583.001648,418.744812 582.990051,379.369019 582.978394,339.993256 
	C583.053345,322.615814 583.128296,305.238403 583.598206,287.372070 
	C585.169861,285.232635 586.863342,283.744873 587.442505,281.906067 
	C592.594055,265.552277 601.130371,250.939743 610.194824,236.558304 
	C611.837646,233.951813 612.753967,230.887375 614.005676,228.034363 
z"/>
<path fill="#0062AC" opacity="1.000000" stroke="none" 
	d="
M590.018738,455.133942 
	C589.012756,448.942169 587.178955,442.756134 587.135986,436.557678 
	C586.868042,397.920959 586.821899,359.280304 587.077759,320.643433 
	C587.201660,301.925476 589.603333,283.557312 598.222229,266.464233 
	C608.099548,246.875320 622.370605,231.945389 641.831909,221.410187 
	C669.321777,206.528793 696.286865,190.679840 723.525696,175.332138 
	C748.882568,161.044739 774.277527,146.824371 799.705750,132.664291 
	C819.031799,121.902267 838.404968,111.223434 857.833984,100.648720 
	C861.465088,98.672401 865.506409,97.463127 869.262329,95.695770 
	C870.628784,95.052811 871.715149,93.814667 872.967285,92.493073 
	C876.785217,94.365784 880.565247,96.593498 884.366760,99.230911 
	C883.314758,100.060844 882.235779,100.857857 881.168579,100.842285 
	C871.805054,100.705673 863.589722,104.411964 855.694824,108.723000 
	C834.825989,120.118500 814.083557,131.746277 793.329346,143.350403 
	C771.414246,155.603592 749.521362,167.897034 727.658752,180.243698 
	C697.834473,197.086594 668.116882,214.119644 638.226074,230.843216 
	C608.145325,247.672989 592.971069,273.407349 592.060364,307.582977 
	C591.417908,331.688568 590.831238,355.815979 591.150818,379.921265 
	C591.473816,404.290710 588.496338,428.826965 593.780518,453.242859 
	C592.380249,454.033691 591.199524,454.583832 590.018738,455.133942 
z"/>
<path fill="#0069BA" opacity="1.000000" stroke="none" 
	d="
M1055.873413,197.656586 
	C1053.550659,199.467224 1051.062012,200.978836 1048.196045,202.303375 
	C1045.477051,199.367920 1043.639648,195.794159 1040.711792,194.004547 
	C1021.279968,182.127121 1001.702881,170.479599 982.001892,159.052383 
	C959.125977,145.783600 936.138855,132.702850 913.072998,119.766983 
	C901.187866,113.101524 888.722046,107.313698 874.672424,111.288239 
	C866.901917,113.486435 859.331665,116.872818 852.181274,120.681335 
	C837.800110,128.341278 823.794739,136.704086 809.586426,144.691803 
	C784.212097,158.956940 758.778198,173.116333 733.413757,187.399063 
	C705.877014,202.905106 678.365540,218.456665 650.894043,234.078033 
	C638.089111,241.359375 624.737671,247.735062 614.885071,259.434814 
	C606.897461,268.919891 601.453369,279.568268 600.252502,291.646698 
	C598.710388,307.157867 598.297607,322.814240 598.088135,338.417358 
	C597.757263,363.065277 598.034912,387.720947 597.985229,412.373230 
	C597.960449,424.673096 597.665894,436.982025 600.981567,449.203461 
	C600.963074,449.407288 600.948608,449.816345 600.640259,449.868286 
	C599.917297,449.959991 599.502686,449.999725 598.822205,449.785583 
	C597.370911,442.577972 595.223694,435.632904 595.160645,428.668945 
	C594.821472,391.202087 594.861755,353.729614 595.103149,316.261230 
	C595.159607,307.496826 595.631470,298.557922 597.422363,290.015930 
	C602.298157,266.759186 615.447327,249.292984 636.382812,237.787735 
	C645.855225,232.582092 655.234497,227.206894 664.647827,221.894073 
	C688.978027,208.162216 713.294983,194.406830 737.633789,180.690277 
	C757.481934,169.504562 777.315369,158.291931 797.225952,147.218262 
	C818.736267,135.254852 840.214905,123.225479 861.939392,111.660591 
	C871.017395,106.827896 880.873657,104.483025 891.373352,106.878349 
	C893.488159,107.360817 895.815552,106.911263 898.044922,106.891426 
	C907.080505,111.779526 916.191345,116.534363 925.133728,121.587334 
	C938.162292,128.949188 951.056335,136.548798 964.031738,144.005173 
	C983.933777,155.441986 1003.894287,166.777573 1023.754883,178.285767 
	C1034.486328,184.504074 1045.061768,190.991547 1055.873413,197.656586 
z"/>
<path fill="#0067B5" opacity="1.000000" stroke="none" 
	d="
M897.893433,106.580338 
	C895.815552,106.911263 893.488159,107.360817 891.373352,106.878349 
	C880.873657,104.483025 871.017395,106.827896 861.939392,111.660591 
	C840.214905,123.225479 818.736267,135.254852 797.225952,147.218262 
	C777.315369,158.291931 757.481934,169.504562 737.633789,180.690277 
	C713.294983,194.406830 688.978027,208.162216 664.647827,221.894073 
	C655.234497,227.206894 645.855225,232.582092 636.382812,237.787735 
	C615.447327,249.292984 602.298157,266.759186 597.422363,290.015930 
	C595.631470,298.557922 595.159607,307.496826 595.103149,316.261230 
	C594.861755,353.729614 594.821472,391.202087 595.160645,428.668945 
	C595.223694,435.632904 597.370911,442.577972 598.601807,450.032837 
	C597.098206,451.356720 595.549072,452.179474 594.000000,453.002197 
	C588.496338,428.826965 591.473816,404.290710 591.150818,379.921265 
	C590.831238,355.815979 591.417908,331.688568 592.060364,307.582977 
	C592.971069,273.407349 608.145325,247.672989 638.226074,230.843216 
	C668.116882,214.119644 697.834473,197.086594 727.658752,180.243698 
	C749.521362,167.897034 771.414246,155.603592 793.329346,143.350403 
	C814.083557,131.746277 834.825989,120.118500 855.694824,108.723000 
	C863.589722,104.411964 871.805054,100.705673 881.168579,100.842285 
	C882.235779,100.857857 883.314758,100.060844 884.674805,99.403847 
	C889.221497,101.534470 893.481689,103.901855 897.893433,106.580338 
z"/>
<path fill="#29B0E9" opacity="1.000000" stroke="none" 
	d="
M1056.775879,832.173279 
	C1057.773560,831.671570 1058.573853,831.379089 1059.691284,831.049072 
	C1058.897705,831.985474 1057.786743,832.959412 1056.343506,833.955139 
	C1056.200195,833.445496 1056.389282,832.914062 1056.775879,832.173279 
z"/>
<path fill="#29B0E9" opacity="1.000000" stroke="none" 
	d="
M1026.267822,849.826477 
	C1027.058838,849.157532 1028.191528,848.566589 1029.679932,847.986206 
	C1028.893677,848.632690 1027.751587,849.268555 1026.267822,849.826477 
z"/>
<path fill="#29B0E9" opacity="1.000000" stroke="none" 
	d="
M1031.264648,847.816650 
	C1032.044434,847.158630 1033.163208,846.567566 1034.635010,845.993530 
	C1033.859863,846.634949 1032.731812,847.259277 1031.264648,847.816650 
z"/>
<path fill="#29B0E9" opacity="1.000000" stroke="none" 
	d="
M1017.364868,852.154419 
	C1018.444702,851.737610 1019.839783,851.356506 1021.616943,850.996765 
	C1020.559326,851.408752 1019.119690,851.799438 1017.364868,852.154419 
z"/>
<path fill="#29B0E9" opacity="1.000000" stroke="none" 
	d="
M1045.332520,840.943542 
	C1045.781860,840.317871 1046.550537,839.666504 1047.659180,839.014160 
	C1047.216553,839.648132 1046.434204,840.282959 1045.332520,840.943542 
z"/>
<path fill="#29B0E9" opacity="1.000000" stroke="none" 
	d="
M1066.348633,825.977905 
	C1066.784546,825.349548 1067.544556,824.692627 1068.639771,824.030518 
	C1068.207397,824.666687 1067.440063,825.307983 1066.348633,825.977905 
z"/>
<path fill="#29B0E9" opacity="1.000000" stroke="none" 
	d="
M1078.330322,814.847107 
	C1078.471680,814.026428 1078.921265,813.112061 1079.686890,812.111267 
	C1079.548096,812.934387 1079.093384,813.843872 1078.330322,814.847107 
z"/>
<path fill="#29B0E9" opacity="1.000000" stroke="none" 
	d="
M1050.337402,837.961182 
	C1050.775391,837.318970 1051.542725,836.665405 1052.649902,836.012634 
	C1052.215454,836.658875 1051.441040,837.304382 1050.337402,837.961182 
z"/>
<path fill="#29B0E9" opacity="1.000000" stroke="none" 
	d="
M1088.329346,801.875671 
	C1088.463257,801.054443 1088.906982,800.127808 1089.666992,799.112183 
	C1089.535278,799.938904 1089.087158,800.854614 1088.329346,801.875671 
z"/>
<path fill="#29B0E9" opacity="1.000000" stroke="none" 
	d="
M1108.340454,755.866577 
	C1108.151489,754.899109 1108.288696,753.752930 1108.610596,752.312500 
	C1108.752441,753.241455 1108.709473,754.464661 1108.340454,755.866577 
z"/>
<path fill="#29B0E9" opacity="1.000000" stroke="none" 
	d="
M1106.324951,763.884521 
	C1106.150513,763.208557 1106.286743,762.378235 1106.601807,761.284058 
	C1106.732178,761.923523 1106.683838,762.826904 1106.324951,763.884521 
z"/>
<path fill="#29B0E9" opacity="1.000000" stroke="none" 
	d="
M1022.365234,850.983887 
	C1022.803406,850.666382 1023.588379,850.330627 1024.707153,849.997070 
	C1024.264648,850.321411 1023.488342,850.643494 1022.365234,850.983887 
z"/>
<path fill="#29B0E9" opacity="1.000000" stroke="none" 
	d="
M1039.322510,843.965454 
	C1039.484253,843.681335 1039.953125,843.375305 1040.708984,843.042297 
	C1040.540527,843.324768 1040.084961,843.634216 1039.322510,843.965454 
z"/>
<path fill="#29B0E9" opacity="1.000000" stroke="none" 
	d="
M1053.323853,835.964966 
	C1053.476074,835.677673 1053.934692,835.367371 1054.677490,835.031982 
	C1054.517822,835.318604 1054.074097,835.630310 1053.323853,835.964966 
z"/>
<path fill="#29B0E9" opacity="1.000000" stroke="none" 
	d="
M1041.324219,842.971069 
	C1041.484131,842.687073 1041.951538,842.378052 1042.705811,842.040955 
	C1042.539062,842.323914 1042.085205,842.634949 1041.324219,842.971069 
z"/>
<path fill="#29B0E9" opacity="1.000000" stroke="none" 
	d="
M1043.319824,841.965454 
	C1043.476685,841.681030 1043.937378,841.370728 1044.682861,841.035950 
	C1044.519531,841.320801 1044.071533,841.630249 1043.319824,841.965454 
z"/>
<path fill="#29B0E9" opacity="1.000000" stroke="none" 
	d="
M1083.320068,808.887512 
	C1083.214111,808.457764 1083.399658,807.930664 1083.796631,807.213745 
	C1083.875854,807.612671 1083.743774,808.201477 1083.320068,808.887512 
z"/>
<path fill="#29B0E9" opacity="1.000000" stroke="none" 
	d="
M1090.309692,798.878845 
	C1090.211304,798.455933 1090.400146,797.929138 1090.800659,797.212158 
	C1090.873901,797.606323 1090.735474,798.190674 1090.309692,798.878845 
z"/>
<path fill="#29B0E9" opacity="1.000000" stroke="none" 
	d="
M1092.307983,795.872803 
	C1092.205811,795.449951 1092.390991,794.926941 1092.785278,794.214844 
	C1092.861450,794.608154 1092.728394,795.190430 1092.307983,795.872803 
z"/>
<path fill="#29B0E9" opacity="1.000000" stroke="none" 
	d="
M1037.321045,844.974976 
	C1037.481567,844.690735 1037.947754,844.379333 1038.700928,844.039673 
	C1038.534180,844.323547 1038.080444,844.635742 1037.321045,844.974976 
z"/>
<path fill="#29B0E9" opacity="1.000000" stroke="none" 
	d="
M1035.322266,845.963135 
	C1035.485229,845.680298 1035.955444,845.374695 1036.713379,845.042114 
	C1036.543945,845.323608 1036.086792,845.631958 1035.322266,845.963135 
z"/>
<path fill="#29B0E9" opacity="1.000000" stroke="none" 
	d="
M1095.308594,790.860962 
	C1095.204590,790.440430 1095.385620,789.922302 1095.773926,789.217773 
	C1095.852051,789.608704 1095.722900,790.186096 1095.308594,790.860962 
z"/>
<path fill="#29B0E9" opacity="1.000000" stroke="none" 
	d="
M1096.309326,788.882263 
	C1096.205200,788.460876 1096.387085,787.936523 1096.777832,787.223450 
	C1096.856201,787.616272 1096.725830,788.197815 1096.309326,788.882263 
z"/>
<path fill="#29B0E9" opacity="1.000000" stroke="none" 
	d="
M1048.320068,838.973022 
	C1048.476807,838.687744 1048.939453,838.375610 1049.687500,838.035095 
	C1049.523926,838.319885 1049.074829,838.633057 1048.320068,838.973022 
z"/>
<path fill="#29B0E9" opacity="1.000000" stroke="none" 
	d="
M1104.297974,769.912598 
	C1104.154785,769.511230 1104.294434,768.983276 1104.603271,768.236816 
	C1104.708740,768.607544 1104.644897,769.196777 1104.297974,769.912598 
z"/>
<path fill="#29B0E9" opacity="1.000000" stroke="none" 
	d="
M1101.299316,777.915649 
	C1101.199219,777.499390 1101.382935,776.963013 1101.774902,776.229553 
	C1101.850098,776.620178 1101.716675,777.207886 1101.299316,777.915649 
z"/>
<path fill="#29B0E9" opacity="1.000000" stroke="none" 
	d="
M1107.301270,759.922852 
	C1107.155151,759.520020 1107.292969,758.989563 1107.599609,758.239380 
	C1107.707520,758.611450 1107.646362,759.203369 1107.301270,759.922852 
z"/>
<path fill="#29B0E9" opacity="1.000000" stroke="none" 
	d="
M1105.297729,766.914429 
	C1105.153687,766.513428 1105.292114,765.985107 1105.599609,765.238159 
	C1105.705933,765.608704 1105.643188,766.197937 1105.297729,766.914429 
z"/>
<path fill="#29B0E9" opacity="1.000000" stroke="none" 
	d="
M1103.299316,772.914185 
	C1103.151245,772.508362 1103.289673,771.981750 1103.596924,771.237549 
	C1103.705811,771.611145 1103.645752,772.202209 1103.299316,772.914185 
z"/>
<path fill="#29B0E9" opacity="1.000000" stroke="none" 
	d="
M1102.308960,775.874573 
	C1102.156250,775.470581 1102.287476,774.957886 1102.585693,774.234985 
	C1102.699463,774.605164 1102.646240,775.185486 1102.308960,775.874573 
z"/>
<path fill="#29B0E9" opacity="1.000000" stroke="none" 
	d="
M1098.299194,784.898315 
	C1098.197510,784.475769 1098.383667,783.945679 1098.779541,783.223022 
	C1098.855225,783.617310 1098.721191,784.204041 1098.299194,784.898315 
z"/>
<path fill="#013E8C" opacity="1.000000" stroke="none" 
	d="
M1087.055786,222.711273 
	C1086.905518,222.718750 1086.623291,222.475723 1086.196045,221.991455 
	C1086.342041,221.987076 1086.632935,222.223923 1087.055786,222.711273 
z"/>
<path fill="#29B0E9" opacity="1.000000" stroke="none" 
	d="
M1055.264893,834.909668 
	C1055.128296,834.658020 1055.311646,834.417297 1055.770020,834.124390 
	C1055.819458,834.300049 1055.666138,834.582825 1055.264893,834.909668 
z"/>
<path fill="#29B0E9" opacity="1.000000" stroke="none" 
	d="
M1061.255615,830.820068 
	C1061.161133,830.533081 1061.344849,830.355286 1061.756348,830.165894 
	C1061.978271,830.475464 1061.828125,830.733826 1061.255615,830.820068 
z"/>
<path fill="#29B0E9" opacity="1.000000" stroke="none" 
	d="
M1063.282715,828.911804 
	C1063.166992,828.681946 1063.350830,828.448975 1063.784668,828.145508 
	C1063.988403,828.395386 1063.837646,828.673279 1063.282715,828.911804 
z"/>
<path fill="#29B0E9" opacity="1.000000" stroke="none" 
	d="
M1064.274292,827.922119 
	C1064.164551,827.694153 1064.355957,827.456604 1064.800537,827.145020 
	C1064.838013,827.306274 1064.678589,827.586853 1064.274292,827.922119 
z"/>
<path fill="#29B0E9" opacity="1.000000" stroke="none" 
	d="
M1065.271240,826.934692 
	C1065.163696,826.710144 1065.357666,826.467834 1065.807007,826.147217 
	C1065.843262,826.306885 1065.680054,826.589539 1065.271240,826.934692 
z"/>
<path fill="#29B0E9" opacity="1.000000" stroke="none" 
	d="
M1069.271729,823.912842 
	C1069.154297,823.687866 1069.333130,823.454712 1069.758179,823.150024 
	C1069.970825,823.399353 1069.825439,823.674805 1069.271729,823.912842 
z"/>
<path fill="#29B0E9" opacity="1.000000" stroke="none" 
	d="
M1085.268066,805.932373 
	C1085.152954,805.708801 1085.335571,805.471008 1085.765381,805.156067 
	C1085.979980,805.407288 1085.831177,805.687073 1085.268066,805.932373 
z"/>
<path fill="#29B0E9" opacity="1.000000" stroke="none" 
	d="
M1100.324585,780.917480 
	C1100.140503,780.700256 1100.261353,780.472412 1100.604980,780.158936 
	C1100.980957,780.383423 1100.914917,780.661255 1100.324585,780.917480 
z"/>
<path fill="#29B0E9" opacity="1.000000" stroke="none" 
	d="
M1099.271484,782.933716 
	C1099.110962,782.724792 1099.248047,782.490112 1099.591797,782.149658 
	C1099.668579,782.300842 1099.592163,782.588806 1099.271484,782.933716 
z"/>
<path fill="#29B0E9" opacity="1.000000" stroke="none" 
	d="
M1097.275146,786.932861 
	C1097.113403,786.722778 1097.250244,786.488159 1097.594482,786.148376 
	C1097.671753,786.300110 1097.595703,786.588501 1097.275146,786.932861 
z"/>
<path fill="#29B0E9" opacity="1.000000" stroke="none" 
	d="
M1094.260986,791.949707 
	C1094.146484,791.733215 1094.328857,791.488281 1094.760620,791.160034 
	C1094.802490,791.315918 1094.651855,791.597412 1094.260986,791.949707 
z"/>
<path fill="#29B0E9" opacity="1.000000" stroke="none" 
	d="
M1093.264404,793.932007 
	C1093.108398,793.727234 1093.246460,793.491272 1093.591553,793.148315 
	C1093.950317,793.376404 1093.870361,793.662903 1093.264404,793.932007 
z"/>
<path fill="#29B0E9" opacity="1.000000" stroke="none" 
	d="
M1091.264893,796.943115 
	C1091.152466,796.723816 1091.338257,796.479553 1091.774292,796.152893 
	C1091.814941,796.310608 1091.661255,796.593140 1091.264893,796.943115 
z"/>
<path fill="#29B0E9" opacity="1.000000" stroke="none" 
	d="
M1087.265381,802.943726 
	C1087.153687,802.723267 1087.341675,802.478516 1087.781616,802.151306 
	C1087.821411,802.309387 1087.665161,802.592957 1087.265381,802.943726 
z"/>
<path fill="#29B0E9" opacity="1.000000" stroke="none" 
	d="
M1086.271973,804.907532 
	C1086.109741,804.696777 1086.242310,804.469482 1086.582275,804.145508 
	C1086.944580,804.372559 1086.870239,804.653320 1086.271973,804.907532 
z"/>
<path fill="#29B0E9" opacity="1.000000" stroke="none" 
	d="
M1070.274902,822.905884 
	C1070.158691,822.675781 1070.339722,822.446106 1070.766113,822.147156 
	C1070.979004,822.400085 1070.832520,822.676208 1070.274902,822.905884 
z"/>
<path fill="#29B0E9" opacity="1.000000" stroke="none" 
	d="
M1084.268433,806.941650 
	C1084.158569,806.719604 1084.348877,806.475708 1084.791992,806.150696 
	C1084.830444,806.309631 1084.671753,806.593079 1084.268433,806.941650 
z"/>
<path fill="#29B0E9" opacity="1.000000" stroke="none" 
	d="
M1082.272949,809.923096 
	C1082.160645,809.695435 1082.347778,809.459351 1082.785156,809.150146 
	C1082.987183,809.401489 1082.832764,809.680725 1082.272949,809.923096 
z"/>
<path fill="#29B0E9" opacity="1.000000" stroke="none" 
	d="
M1081.270874,810.930298 
	C1081.158203,810.705200 1081.344849,810.466309 1081.781250,810.150269 
	C1081.821899,810.310791 1081.668335,810.591858 1081.270874,810.930298 
z"/>
<path fill="#29B0E9" opacity="1.000000" stroke="none" 
	d="
M1080.269531,811.938965 
	C1080.159058,811.715942 1080.348755,811.473328 1080.790771,811.150879 
	C1080.829468,811.310181 1080.671753,811.592957 1080.269531,811.938965 
z"/>
<path fill="#29B0E9" opacity="1.000000" stroke="none" 
	d="
M1077.274414,815.896118 
	C1077.155273,815.668884 1077.329346,815.442749 1077.744629,815.149902 
	C1077.963989,815.400513 1077.824463,815.671814 1077.274414,815.896118 
z"/>
<path fill="#29B0E9" opacity="1.000000" stroke="none" 
	d="
M1076.279053,816.907349 
	C1076.158203,816.678406 1076.333984,816.449341 1076.754150,816.151855 
	C1076.974854,816.403687 1076.833862,816.678284 1076.279053,816.907349 
z"/>
<path fill="#29B0E9" opacity="1.000000" stroke="none" 
	d="
M1074.271973,818.909424 
	C1074.156982,818.681641 1074.338867,818.450134 1074.766357,818.148132 
	C1074.976562,818.399963 1074.828857,818.676025 1074.271973,818.909424 
z"/>
<path fill="#29B0E9" opacity="1.000000" stroke="none" 
	d="
M1073.273926,819.909729 
	C1073.157959,819.681641 1073.339233,819.449768 1073.766357,819.146729 
	C1073.978271,819.398315 1073.831299,819.675171 1073.273926,819.909729 
z"/>
<path fill="#29B0E9" opacity="1.000000" stroke="none" 
	d="
M1072.274780,820.909851 
	C1072.158691,820.681458 1072.339844,820.450012 1072.766968,820.147949 
	C1072.978760,820.399780 1072.831787,820.676270 1072.274780,820.909851 
z"/>
<path fill="#29B0E9" opacity="1.000000" stroke="none" 
	d="
M1071.274658,821.909546 
	C1071.158447,821.680542 1071.339600,821.449463 1071.766846,821.148376 
	C1071.978760,821.400452 1071.831909,821.676819 1071.274658,821.909546 
z"/>
<path fill="#4CE1FA" opacity="1.000000" stroke="none" 
	d="
M520.844360,712.298218 
	C521.433167,711.713013 521.870361,711.425049 523.024292,711.040527 
	C529.522766,710.638367 535.312988,710.445007 541.084717,710.007141 
	C562.090210,708.413574 580.437012,700.900391 594.537537,684.834412 
	C601.248535,677.187988 606.676270,668.633179 608.204407,657.983276 
	C608.639099,657.601807 608.851990,657.353210 609.370239,656.996582 
	C623.349731,649.255188 636.971069,641.564209 650.622803,633.927551 
	C665.718872,625.482971 680.842957,617.088135 696.117310,608.987915 
	C698.523438,612.712769 701.242615,615.904541 702.915588,619.573303 
	C706.913574,628.340820 710.380737,637.349182 714.129639,646.231750 
	C727.443787,677.778625 740.796326,709.309265 754.115051,740.854187 
	C767.046082,771.481201 780.015930,802.092041 792.828308,832.768616 
	C796.147705,840.716187 798.941406,848.883423 801.976624,856.949707 
	C728.280518,856.971069 654.584351,856.992371 580.414917,857.041138 
	C537.135254,855.032043 499.737183,821.214111 494.189392,779.163025 
	C492.619873,767.266357 496.545502,756.087830 500.576355,745.119629 
	C505.054321,732.934814 512.117737,722.281067 520.844360,712.298218 
z"/>
<path fill="#44D5F6" opacity="1.000000" stroke="none" 
	d="
M802.447266,856.970337 
	C798.941406,848.883423 796.147705,840.716187 792.828308,832.768616 
	C780.015930,802.092041 767.046082,771.481201 754.115051,740.854187 
	C740.796326,709.309265 727.443787,677.778625 714.129639,646.231750 
	C710.380737,637.349182 706.913574,628.340820 702.915588,619.573303 
	C701.242615,615.904541 698.523438,612.712769 696.328247,608.748779 
	C700.377075,605.885925 704.392029,603.603516 708.374756,601.265991 
	C717.593628,595.855225 726.796875,590.417847 736.006470,584.991211 
	C736.006470,584.991211 736.149841,584.970276 736.525757,585.000488 
	C738.296387,584.155579 739.691101,583.280457 741.085754,582.405396 
	C741.085754,582.405396 741.156982,582.186646 741.486450,582.094238 
	C742.207886,581.777832 742.599854,581.553833 742.991821,581.329834 
	C742.991821,581.329834 743.063110,581.138611 743.404541,581.060913 
	C744.166321,580.731934 744.586609,580.480591 745.006958,580.229248 
	C745.006958,580.229248 745.026733,580.080811 745.405823,580.051941 
	C746.552734,579.482239 747.320496,578.941467 748.088257,578.400635 
	C748.088257,578.400635 748.100708,578.192139 748.421143,578.097290 
	C749.153015,577.794861 749.564453,577.587280 749.975891,577.379700 
	C749.975891,577.379700 750.075073,577.167236 750.422913,577.078125 
	C751.182068,576.744019 751.593384,576.499023 752.004700,576.254028 
	C752.004700,576.254028 752.034119,576.095764 752.413696,576.061890 
	C753.559387,575.506714 754.325439,574.985352 755.091553,574.463989 
	C755.091553,574.463989 755.120789,574.226990 755.445068,574.114258 
	C756.170410,573.791748 756.571533,573.582031 756.972656,573.372253 
	C756.972656,573.372253 757.024597,573.165527 757.364502,573.075195 
	C758.134949,572.754944 758.565613,572.524963 758.996216,572.294983 
	C758.996216,572.294983 759.049133,572.117920 759.389099,572.046021 
	C760.156677,571.709900 760.584290,571.445679 761.011841,571.181396 
	C761.011841,571.181396 761.012085,571.054077 761.385376,571.034912 
	C762.535278,570.463684 763.311829,569.911621 764.088318,569.359558 
	C764.088318,569.359558 764.083557,569.171021 764.409424,569.077576 
	C765.157593,568.741882 765.579895,568.499634 766.002136,568.257385 
	C766.002136,568.257385 766.002686,568.101685 766.335449,568.033447 
	C767.115784,567.709290 767.563293,567.453308 768.010864,567.197388 
	C768.010864,567.197388 768.017517,567.062195 768.393066,567.040894 
	C769.541931,566.471252 770.315186,565.922852 771.088440,565.374451 
	C771.088440,565.374451 771.086792,565.179199 771.411621,565.083374 
	C772.156494,564.752869 772.576477,564.518250 772.996521,564.283691 
	C772.996521,564.283691 773.006592,564.116516 773.346069,564.037109 
	C774.127258,563.680664 774.568970,563.403564 775.010681,563.126465 
	C775.010681,563.126465 774.995422,563.045898 775.311401,562.987610 
	C776.085449,562.628113 776.543396,562.326904 777.001404,562.025635 
	C777.001404,562.025635 776.990479,562.000488 777.194824,561.876404 
	C777.641724,561.564026 777.846924,561.341248 778.014709,561.083984 
	C778.014709,561.083984 778.029541,561.016541 778.316895,560.997559 
	C779.061951,560.767639 779.519531,560.556641 779.977173,560.345642 
	C779.977173,560.345642 780.019409,560.136169 780.112671,560.083984 
	C784.417297,559.416687 785.963501,562.077271 787.362366,565.426331 
	C799.731445,595.037842 812.182556,624.615112 824.640320,654.189514 
	C839.098938,688.513855 853.599854,722.820496 868.061890,757.143433 
	C881.296997,788.554749 894.513611,819.973938 907.697388,851.406921 
	C908.327698,852.909790 908.560852,854.579346 908.976318,856.560303 
	C873.621765,856.963257 838.269836,856.977112 802.447266,856.970337 
z"/>
<path fill="#31BAEC" opacity="1.000000" stroke="none" 
	d="
M909.044678,486.944305 
	C909.046082,486.779236 909.248657,486.520721 909.699829,486.290466 
	C909.738708,486.528442 909.504517,486.705780 909.044678,486.944305 
z"/>
<path fill="#FEFEFF" opacity="1.000000" stroke="none" 
	d="
M198.932800,515.263489 
	C184.356537,493.621368 175.563263,470.137909 172.575302,444.571533 
	C170.063217,423.076935 170.968674,401.726746 175.369293,380.460541 
	C179.513229,360.434753 186.888657,341.855133 198.197449,324.441376 
	C208.011337,314.507294 216.873505,303.739441 227.706406,295.591797 
	C254.283951,275.602234 285.106842,267.836548 318.101471,267.367767 
	C349.419830,266.922821 378.506683,273.988464 404.534546,291.849335 
	C422.771606,304.363983 436.600830,320.752655 446.590820,341.221497 
	C462.818909,375.987274 466.608704,411.858551 460.727386,448.746613 
	C455.743195,480.007843 443.392181,508.011688 420.955688,530.983276 
	C400.916046,550.087769 377.193634,562.380371 350.090973,567.362854 
	C305.835907,575.498657 263.675598,570.529907 226.638046,542.870972 
	C216.389130,535.217285 208.272476,524.708374 198.932800,515.263489 
M348.835358,515.420959 
	C369.401642,507.497833 383.816711,493.114685 391.988068,472.851318 
	C403.453308,444.419891 403.875946,415.117096 397.344299,385.499084 
	C392.819946,364.983368 384.066010,346.905426 367.471100,333.204895 
	C337.173340,308.191406 273.161377,308.926727 247.032440,359.206726 
	C230.885483,390.278412 229.640411,423.284943 238.562622,456.878143 
	C244.377655,478.772430 255.423981,497.177490 275.019867,509.235870 
	C298.148376,523.468079 322.841766,523.861450 348.835358,515.420959 
z"/>
<path fill="#0F71D1" opacity="1.000000" stroke="none" 
	d="
M421.368103,531.067261 
	C443.392181,508.011688 455.743195,480.007843 460.727386,448.746613 
	C466.608704,411.858551 462.818909,375.987274 446.860260,341.431580 
	C449.774628,340.707764 452.730804,340.050446 455.687988,340.045685 
	C497.807129,339.977814 539.926392,339.998260 582.512024,339.995300 
	C582.990051,379.369019 583.001648,418.744812 582.988647,459.054016 
	C582.973633,473.658691 582.983337,487.329956 582.941345,501.467590 
	C582.762512,511.951874 582.635437,521.969788 582.508362,531.987732 
	C531.230896,531.991821 479.953400,532.006836 428.675964,531.963928 
	C426.377228,531.961975 424.078979,531.434082 421.368103,531.067261 
z"/>
<path fill="#1F8EBE" opacity="1.000000" stroke="none" 
	d="
M578.048584,178.366226 
	C580.490112,180.688049 584.272766,182.961563 585.281677,186.120834 
	C588.419128,195.945953 590.926758,206.027985 592.824890,216.170166 
	C593.811829,221.443481 592.892578,227.056625 593.067993,232.508759 
	C593.122620,234.206467 593.942627,235.879562 594.493774,238.042603 
	C591.056702,240.377121 587.538086,242.232986 584.019531,244.088837 
	C584.010681,232.448364 583.764160,220.801804 584.062805,209.169235 
	C584.336243,198.518829 583.025574,188.302719 578.048584,178.366226 
z"/>
<path fill="#005799" opacity="1.000000" stroke="none" 
	d="
M613.674561,228.142761 
	C612.753967,230.887375 611.837646,233.951813 610.194824,236.558304 
	C601.130371,250.939743 592.594055,265.552277 587.442505,281.906067 
	C586.863342,283.744873 585.169861,285.232635 583.663208,286.902863 
	C583.394775,280.849609 583.456238,274.776642 584.054321,268.255585 
	C585.093689,267.402161 585.825439,267.101227 586.064941,266.575867 
	C589.814026,258.350647 593.570190,250.126572 597.115234,241.812958 
	C597.585754,240.709549 596.908997,239.116913 596.763550,237.750854 
	C598.367737,236.676498 599.971924,235.602142 601.789917,234.290070 
	C605.783630,232.118637 609.563538,230.184891 613.674561,228.142761 
z"/>
<path fill="#004E8A" opacity="1.000000" stroke="none" 
	d="
M596.479614,237.809021 
	C596.908997,239.116913 597.585754,240.709549 597.115234,241.812958 
	C593.570190,250.126572 589.814026,258.350647 586.064941,266.575867 
	C585.825439,267.101227 585.093689,267.402161 584.253601,267.896667 
	C583.924561,260.325928 583.932861,252.666000 583.980347,244.547455 
	C587.538086,242.232986 591.056702,240.377121 594.811584,238.275146 
	C595.430542,237.975098 595.813110,237.921143 596.479614,237.809021 
z"/>
<path fill="#013679" opacity="1.000000" stroke="none" 
	d="
M582.597168,532.445312 
	C582.635437,521.969788 582.762512,511.951874 583.274780,501.343445 
	C584.239502,499.618622 584.981934,498.537445 585.372437,497.341370 
	C588.244812,488.543213 591.010193,479.710083 593.882874,470.911987 
	C596.184509,463.862610 598.589478,456.846954 600.948608,449.816345 
	C600.948608,449.816345 600.963074,449.407288 601.323181,449.140381 
	C603.813110,447.601654 605.942932,446.329895 608.421509,444.982880 
	C613.520813,442.546814 618.271240,440.185974 623.021667,437.825134 
	C620.696350,441.334625 618.719971,445.146423 615.985962,448.301788 
	C603.515869,462.693634 597.625305,480.152740 593.178894,498.067139 
	C586.912903,523.312500 589.577148,548.103333 599.059998,572.241943 
	C599.649963,573.743713 599.693542,575.460144 599.670166,577.385864 
	C597.916565,577.079529 596.484131,576.464111 595.051697,575.848633 
	C593.920715,575.246216 592.789734,574.643799 591.336731,573.979736 
	C590.195679,573.337219 589.376587,572.756409 588.287354,572.026978 
	C586.564636,570.955017 585.112061,570.031677 583.338135,569.031006 
	C582.830750,561.056763 582.588135,553.160522 582.481628,545.262451 
	C582.426086,541.144226 582.610107,537.022827 582.597168,532.445312 
z"/>
<path fill="#49D7EF" opacity="1.000000" stroke="none" 
	d="
M608.021973,658.149963 
	C606.676270,668.633179 601.248535,677.187988 594.537537,684.834412 
	C580.437012,700.900391 562.090210,708.413574 541.084717,710.007141 
	C535.312988,710.445007 529.522766,710.638367 523.253418,710.911926 
	C525.075378,708.488770 527.384888,706.097595 529.864197,703.434021 
	C531.920349,701.720947 533.806641,700.280273 535.890015,698.599854 
	C536.485352,698.219543 536.883667,698.079041 537.901611,698.122192 
	C540.307434,698.509888 542.150513,699.105652 543.871094,698.856384 
	C558.534973,696.731995 571.867493,691.402100 582.400757,680.748779 
	C585.956482,677.152588 588.109436,672.169556 591.083496,667.607788 
	C591.854187,666.955811 592.444763,666.516235 593.379089,666.001465 
	C598.489197,663.334106 603.255615,660.742004 608.021973,658.149963 
z"/>
<path fill="#137FC1" opacity="1.000000" stroke="none" 
	d="
M593.035400,666.076721 
	C592.444763,666.516235 591.854187,666.955811 590.746704,667.711426 
	C586.857422,669.782471 583.485107,671.537354 580.112793,673.292236 
	C581.115295,671.098511 581.839905,668.718445 583.165771,666.741699 
	C591.161499,654.820801 593.396667,641.259033 593.885742,627.422668 
	C594.395935,612.988403 593.959473,598.521973 594.039856,584.070190 
	C594.053528,581.610413 594.584534,579.153625 594.964111,576.272034 
	C596.484131,576.464111 597.916565,577.079529 599.668823,577.786560 
	C600.578186,578.384949 601.167847,578.891785 601.732300,580.044556 
	C601.471375,587.460022 601.078735,594.228394 601.031433,600.999207 
	C600.920593,616.886353 601.682861,632.833069 597.964355,648.466431 
	C596.554871,654.392090 594.691711,660.209839 593.035400,666.076721 
z"/>
<path fill="#44CAE1" opacity="1.000000" stroke="none" 
	d="
M579.879028,673.532715 
	C583.485107,671.537354 586.857422,669.782471 590.566589,667.923950 
	C588.109436,672.169556 585.956482,677.152588 582.400757,680.748779 
	C571.867493,691.402100 558.534973,696.731995 543.871094,698.856384 
	C542.150513,699.105652 540.307434,698.509888 538.205811,698.035034 
	C539.167908,696.726990 540.445435,695.689819 542.186401,694.321899 
	C543.098816,693.658081 543.547913,693.325012 544.301392,692.889526 
	C545.754639,691.886841 546.903564,690.986633 548.052429,690.086365 
	C555.688843,686.207153 563.334961,682.346863 570.956726,678.439026 
	C573.881531,676.939575 576.750671,675.331726 579.879028,673.532715 
z"/>
<path fill="#127BBC" opacity="1.000000" stroke="none" 
	d="
M503.000000,693.000000 
	C475.312256,693.000000 447.624542,693.000000 419.468079,693.000000 
	C420.195953,692.337891 421.390686,691.101807 422.589325,691.097961 
	C448.690674,691.014709 474.792480,691.066406 500.894165,691.114380 
	C501.368286,691.115295 501.841888,691.388306 502.657867,692.017212 
	C503.000000,692.500000 503.000000,693.000000 503.000000,693.000000 
z"/>
<path fill="#127CBD" opacity="1.000000" stroke="none" 
	d="
M503.342133,693.232788 
	C503.000000,693.000000 503.000000,692.500000 503.000000,692.250000 
	C511.354248,692.000000 519.708496,692.000000 528.531372,692.000000 
	C528.141724,692.645508 527.282959,693.849731 526.425293,693.849060 
	C518.844849,693.842651 511.264587,693.622498 503.342133,693.232788 
z"/>
<path fill="#127CBD" opacity="1.000000" stroke="none" 
	d="
M543.997009,692.991943 
	C543.547913,693.325012 543.098816,693.658081 542.379761,694.076111 
	C540.591370,693.584290 539.072815,693.007507 537.277161,691.965332 
	C537.000000,691.500000 537.000000,691.000000 537.000000,691.000000 
	C538.427124,690.709961 539.854248,690.419922 541.840393,690.298584 
	C542.931946,691.308899 543.464478,692.150391 543.997009,692.991943 
z"/>
<path fill="#127BBC" opacity="1.000000" stroke="none" 
	d="
M544.301392,692.889526 
	C543.464478,692.150391 542.931946,691.308899 542.199707,690.233643 
	C543.827087,689.875061 545.654236,689.750122 547.766846,689.855774 
	C546.903564,690.986633 545.754639,691.886841 544.301392,692.889526 
z"/>
<path fill="#127BBC" opacity="1.000000" stroke="none" 
	d="
M536.803101,690.845520 
	C537.000000,691.000000 537.000000,691.500000 537.000000,691.750000 
	C536.555542,692.000000 536.111084,692.000000 535.333313,692.000000 
	C535.535400,691.563660 536.070862,691.127380 536.803101,690.845520 
z"/>
<path fill="#01459A" opacity="1.000000" stroke="none" 
	d="
M1066.376465,394.017395 
	C1064.054199,390.406036 1062.347900,393.920868 1061.119141,394.719330 
	C1052.478394,400.334656 1044.280762,406.673126 1035.427734,411.912201 
	C1018.267700,422.067291 1000.757751,431.630402 983.415283,441.478363 
	C965.942627,451.400238 948.547119,461.458923 931.024780,471.291779 
	C916.259338,479.577576 901.305847,487.528168 886.535950,495.806152 
	C871.907227,504.005035 857.450928,512.511414 842.832825,520.729492 
	C827.929688,529.107788 812.913574,537.285034 797.962158,545.577759 
	C788.089539,551.053528 778.292480,556.666992 768.375854,562.061462 
	C747.877991,573.211914 726.731018,582.594421 702.744019,581.914551 
	C684.256897,581.390442 666.546204,576.935730 649.660461,569.328064 
	C646.170044,567.755432 642.764160,565.955383 639.181152,564.635071 
	C621.371460,558.072510 615.267334,535.568726 617.384033,520.643372 
	C617.988403,516.382141 619.049805,512.178894 620.030518,507.979156 
	C622.825378,496.010193 631.497986,489.547882 641.709045,484.100342 
	C662.560242,472.976410 683.208435,461.470520 703.893677,450.037628 
	C730.840027,435.144165 757.722168,420.134491 784.667908,405.239807 
	C805.352661,393.806000 826.119995,382.521759 846.801147,371.081635 
	C870.101196,358.192719 893.322083,345.160675 916.621704,332.271027 
	C937.302490,320.830170 958.008484,309.433899 978.768372,298.137329 
	C999.969238,286.600708 1021.140320,275.000641 1042.537476,263.836639 
	C1054.431030,257.631134 1066.848267,255.222946 1078.922119,263.673218 
	C1089.435791,271.031433 1095.253174,281.846619 1097.809692,293.900726 
	C1103.253174,319.567932 1100.110474,344.229034 1086.295776,366.998535 
	C1083.979126,370.817017 1081.087158,374.282898 1078.611084,378.011444 
	C1078.155396,378.697662 1078.423340,379.864441 1078.629761,380.897522 
	C1074.826660,385.276764 1070.751099,389.567993 1066.376465,394.017395 
z"/>
<path fill="#158ED9" opacity="1.000000" stroke="none" 
	d="
M735.628540,585.006836 
	C726.796875,590.417847 717.593628,595.855225 708.374756,601.265991 
	C704.392029,603.603516 700.377075,605.885925 696.165771,608.432495 
	C680.842957,617.088135 665.718872,625.482971 650.622803,633.927551 
	C636.971069,641.564209 623.349731,649.255188 609.363403,656.549683 
	C610.007874,644.611328 611.239319,633.059692 611.931824,621.475769 
	C612.586243,610.530457 612.641602,599.549988 613.055786,588.588623 
	C613.103210,587.332764 613.763428,586.100159 614.139465,584.856750 
	C624.928589,588.130554 635.603088,591.879456 646.544983,594.519958 
	C654.543762,596.450195 662.894348,596.922485 671.543335,598.016174 
	C680.397034,597.844543 688.848083,598.242188 697.181274,597.430237 
	C709.352844,596.244324 720.785156,592.216858 731.517700,586.280518 
	C732.648132,585.655273 734.000977,585.432129 735.628540,585.006836 
z"/>
<path fill="#3CCBF2" opacity="1.000000" stroke="none" 
	d="
M740.752075,582.377563 
	C739.691101,583.280457 738.296387,584.155579 736.570007,585.057861 
	C737.631653,584.173279 739.025085,583.261475 740.752075,582.377563 
z"/>
<path fill="#3CCBF2" opacity="1.000000" stroke="none" 
	d="
M763.775024,569.344788 
	C763.311829,569.911621 762.535278,570.463684 761.449097,571.035767 
	C761.913513,570.480530 762.687622,569.905273 763.775024,569.344788 
z"/>
<path fill="#3CCBF2" opacity="1.000000" stroke="none" 
	d="
M754.783630,574.422791 
	C754.325439,574.985352 753.559387,575.506714 752.493286,576.049744 
	C752.954041,575.508118 753.714844,574.944885 754.783630,574.422791 
z"/>
<path fill="#3CCBF2" opacity="1.000000" stroke="none" 
	d="
M747.778076,578.373962 
	C747.320496,578.941467 746.552734,579.482239 745.480286,580.044373 
	C745.939758,579.492859 746.703857,578.920044 747.778076,578.373962 
z"/>
<path fill="#3CCBF2" opacity="1.000000" stroke="none" 
	d="
M770.776550,565.358582 
	C770.315186,565.922852 769.541931,566.471252 768.460754,567.040283 
	C768.923462,566.488220 769.694031,565.915466 770.776550,565.358582 
z"/>
<path fill="#3CCBF2" opacity="1.000000" stroke="none" 
	d="
M758.716309,572.280579 
	C758.565613,572.524963 758.134949,572.754944 757.460327,573.028564 
	C757.623047,572.803589 758.029663,572.534851 758.716309,572.280579 
z"/>
<path fill="#3CCBF2" opacity="1.000000" stroke="none" 
	d="
M756.707703,573.345093 
	C756.571533,573.582031 756.170410,573.791748 755.543823,574.047241 
	C755.693176,573.834595 756.067993,573.576294 756.707703,573.345093 
z"/>
<path fill="#3CCBF2" opacity="1.000000" stroke="none" 
	d="
M765.723755,568.258301 
	C765.579895,568.499634 765.157593,568.741882 764.493042,569.033813 
	C764.648926,568.808716 765.047180,568.533936 765.723755,568.258301 
z"/>
<path fill="#3CCBF2" opacity="1.000000" stroke="none" 
	d="
M767.720825,567.203491 
	C767.563293,567.453308 767.115784,567.709290 766.410034,568.011414 
	C766.578186,567.774963 767.004517,567.492310 767.720825,567.203491 
z"/>
<path fill="#3CCBF2" opacity="1.000000" stroke="none" 
	d="
M751.739990,576.262451 
	C751.593384,576.499023 751.182068,576.744019 750.533813,577.040039 
	C750.689697,576.817688 751.082520,576.544250 751.739990,576.262451 
z"/>
<path fill="#3CCBF2" opacity="1.000000" stroke="none" 
	d="
M749.707397,577.347534 
	C749.564453,577.587280 749.153015,577.794861 748.512024,578.045837 
	C748.667969,577.831299 749.053467,577.573364 749.707397,577.347534 
z"/>
<path fill="#3CCBF2" opacity="1.000000" stroke="none" 
	d="
M744.738892,580.243164 
	C744.586609,580.480591 744.166321,580.731934 743.502808,581.033325 
	C743.663330,580.807983 744.067078,580.532471 744.738892,580.243164 
z"/>
<path fill="#3CCBF2" opacity="1.000000" stroke="none" 
	d="
M742.737427,581.322754 
	C742.599854,581.553833 742.207886,581.777832 741.593750,582.052734 
	C741.742004,581.841003 742.112488,581.578308 742.737427,581.322754 
z"/>
<path fill="#3CCBF2" opacity="1.000000" stroke="none" 
	d="
M772.720093,564.278870 
	C772.576477,564.518250 772.156494,564.752869 771.496643,565.035278 
	C771.652405,564.813354 772.048035,564.543701 772.720093,564.278870 
z"/>
<path fill="#3CCBF2" opacity="1.000000" stroke="none" 
	d="
M774.722290,563.158447 
	C774.568970,563.403564 774.127258,563.680664 773.424805,564.008789 
	C773.587402,563.770020 774.010681,563.480225 774.722290,563.158447 
z"/>
<path fill="#3CCBF2" opacity="1.000000" stroke="none" 
	d="
M776.706665,562.076782 
	C776.543396,562.326904 776.085449,562.628113 775.351807,562.980652 
	C775.521484,562.730652 775.966675,562.429321 776.706665,562.076782 
z"/>
<path fill="#3CCBF2" opacity="1.000000" stroke="none" 
	d="
M760.739014,571.204346 
	C760.584290,571.445679 760.156677,571.709900 759.479126,572.025085 
	C759.641479,571.793152 760.053833,571.510254 760.739014,571.204346 
z"/>
<path fill="#3CCBF2" opacity="1.000000" stroke="none" 
	d="
M779.698669,560.325317 
	C779.519531,560.556641 779.061951,560.767639 778.349304,561.009583 
	C778.536255,560.795349 778.978210,560.550110 779.698669,560.325317 
z"/>
<path fill="#3CCBF2" opacity="1.000000" stroke="none" 
	d="
M777.763672,561.122131 
	C777.846924,561.341248 777.641724,561.564026 777.208374,561.877441 
	C777.182678,561.721802 777.347717,561.441040 777.763672,561.122131 
z"/>
<path fill="#1487CE" opacity="1.000000" stroke="none" 
	d="
M613.930054,584.651062 
	C613.763428,586.100159 613.103210,587.332764 613.055786,588.588623 
	C612.641602,599.549988 612.586243,610.530457 611.931824,621.475769 
	C611.239319,633.059692 610.007874,644.611328 609.018677,656.623962 
	C608.851990,657.353210 608.639099,657.601807 608.204407,657.983276 
	C603.255615,660.742004 598.489197,663.334106 593.379150,666.001465 
	C594.691711,660.209839 596.554871,654.392090 597.964355,648.466431 
	C601.682861,632.833069 600.920593,616.886353 601.031433,600.999207 
	C601.078735,594.228394 601.471375,587.460022 601.874512,580.299377 
	C605.051147,580.950500 608.060303,581.992798 611.428772,583.075256 
	C612.432251,583.558716 613.076416,584.002075 613.930054,584.651062 
z"/>
<path fill="#0078D2" opacity="1.000000" stroke="none" 
	d="
M1022.033936,216.075378 
	C1013.635803,221.059250 1005.359802,226.263748 996.819763,230.991302 
	C939.720764,262.599579 882.568054,294.110748 825.427795,325.644409 
	C779.657410,350.903412 733.887634,376.163544 688.102234,401.395233 
	C667.690369,412.643951 647.240784,423.824036 626.194336,434.889832 
	C624.948120,434.612915 624.227905,434.215912 623.697266,434.391541 
	C619.151611,435.896332 616.619263,434.255829 615.919495,429.600189 
	C614.938660,423.074402 613.244507,416.556580 613.153381,410.017273 
	C612.970520,396.894257 613.844971,383.760498 613.957764,370.628387 
	C614.122253,351.472321 613.912292,332.313232 614.046265,313.156708 
	C614.095032,306.189026 614.509033,299.212372 615.046631,292.262268 
	C615.873840,281.569244 620.175537,272.633209 629.462097,266.757538 
	C638.155090,261.257416 646.942688,255.888809 655.875000,250.788559 
	C677.543823,238.415756 699.313782,226.219711 721.056702,213.976944 
	C743.379822,201.407516 765.694336,188.822678 788.057983,176.325790 
	C813.761536,161.962631 839.516357,147.691254 865.245972,133.374725 
	C877.458618,126.579376 889.640747,126.611954 901.850403,133.416580 
	C919.869324,143.458725 937.997009,153.309006 955.921082,163.517181 
	C975.143311,174.464722 994.178101,185.741364 1013.306030,196.854828 
	C1020.790222,201.203201 1025.271973,206.876663 1022.033936,216.075378 
z"/>
<path fill="#0071C7" opacity="1.000000" stroke="none" 
	d="
M1022.406616,216.053314 
	C1025.271973,206.876663 1020.790222,201.203201 1013.306030,196.854828 
	C994.178101,185.741364 975.143311,174.464722 955.921082,163.517181 
	C937.997009,153.309006 919.869324,143.458725 901.850403,133.416580 
	C889.640747,126.611954 877.458618,126.579376 865.245972,133.374725 
	C839.516357,147.691254 813.761536,161.962631 788.057983,176.325790 
	C765.694336,188.822678 743.379822,201.407516 721.056702,213.976944 
	C699.313782,226.219711 677.543823,238.415756 655.875000,250.788559 
	C646.942688,255.888809 638.155090,261.257416 629.462097,266.757538 
	C620.175537,272.633209 615.873840,281.569244 615.046631,292.262268 
	C614.509033,299.212372 614.095032,306.189026 614.046265,313.156708 
	C613.912292,332.313232 614.122253,351.472321 613.957764,370.628387 
	C613.844971,383.760498 612.970520,396.894257 613.153381,410.017273 
	C613.244507,416.556580 614.938660,423.074402 615.919495,429.600189 
	C616.619263,434.255829 619.151611,435.896332 623.697266,434.391541 
	C624.227905,434.215912 624.948120,434.612915 625.851929,434.996765 
	C625.238281,435.987762 624.353149,436.726349 623.244873,437.645050 
	C618.271240,440.185974 613.520813,442.546814 608.122803,444.783691 
	C602.391907,439.387451 603.216614,432.442261 603.165955,426.225739 
	C602.841553,386.423737 602.851807,346.616730 603.133911,306.814117 
	C603.186340,299.415405 604.216980,291.829102 606.109741,284.677002 
	C610.540833,267.933594 621.930420,256.534607 636.627502,248.214523 
	C658.916260,235.596741 681.305481,223.156570 703.620117,210.584274 
	C728.686279,196.461716 753.708557,182.261292 778.765442,168.122177 
	C804.691528,153.492645 830.787231,139.155914 856.522095,124.197823 
	C875.082092,113.410057 892.885193,113.890015 911.216003,124.689888 
	C933.996155,138.111176 957.166687,150.868134 980.075195,164.074081 
	C996.929932,173.790298 1013.671021,183.705765 1030.383667,193.665146 
	C1035.291016,196.589523 1039.682861,200.176514 1041.110229,206.187561 
	C1034.999878,209.468781 1028.889648,212.750031 1022.406616,216.053314 
z"/>
<path fill="#006CBE" opacity="1.000000" stroke="none" 
	d="
M1041.398438,205.997131 
	C1039.682861,200.176514 1035.291016,196.589523 1030.383667,193.665146 
	C1013.671021,183.705765 996.929932,173.790298 980.075195,164.074081 
	C957.166687,150.868134 933.996155,138.111176 911.216003,124.689888 
	C892.885193,113.890015 875.082092,113.410057 856.522095,124.197823 
	C830.787231,139.155914 804.691528,153.492645 778.765442,168.122177 
	C753.708557,182.261292 728.686279,196.461716 703.620117,210.584274 
	C681.305481,223.156570 658.916260,235.596741 636.627502,248.214523 
	C621.930420,256.534607 610.540833,267.933594 606.109741,284.677002 
	C604.216980,291.829102 603.186340,299.415405 603.133911,306.814117 
	C602.851807,346.616730 602.841553,386.423737 603.165955,426.225739 
	C603.216614,432.442261 602.391907,439.387451 607.773987,444.858887 
	C605.942932,446.329895 603.813110,447.601654 601.341675,448.936523 
	C597.665894,436.982025 597.960449,424.673096 597.985229,412.373230 
	C598.034912,387.720947 597.757263,363.065277 598.088135,338.417358 
	C598.297607,322.814240 598.710388,307.157867 600.252502,291.646698 
	C601.453369,279.568268 606.897461,268.919891 614.885071,259.434814 
	C624.737671,247.735062 638.089111,241.359375 650.894043,234.078033 
	C678.365540,218.456665 705.877014,202.905106 733.413757,187.399063 
	C758.778198,173.116333 784.212097,158.956940 809.586426,144.691803 
	C823.794739,136.704086 837.800110,128.341278 852.181274,120.681335 
	C859.331665,116.872818 866.901917,113.486435 874.672424,111.288239 
	C888.722046,107.313698 901.187866,113.101524 913.072998,119.766983 
	C936.138855,132.702850 959.125977,145.783600 982.001892,159.052383 
	C1001.702881,170.479599 1021.279968,182.127121 1040.711792,194.004547 
	C1043.639648,195.794159 1045.477051,199.367920 1047.891602,202.431091 
	C1045.871704,203.766129 1043.779053,204.786423 1041.398438,205.997131 
z"/>
<path fill="#01316E" opacity="1.000000" stroke="none" 
	d="
M600.640259,449.868286 
	C598.589478,456.846954 596.184509,463.862610 593.882874,470.911987 
	C591.010193,479.710083 588.244812,488.543213 585.372437,497.341370 
	C584.981934,498.537445 584.239502,499.618622 583.326538,500.877106 
	C582.983337,487.329956 582.973633,473.658691 583.012390,459.526245 
	C585.225891,457.908356 587.390930,456.751648 589.787354,455.364441 
	C591.199524,454.583832 592.380249,454.033691 593.780518,453.242859 
	C595.549072,452.179474 597.098206,451.356720 598.867676,450.286713 
	C599.502686,449.999725 599.917297,449.959991 600.640259,449.868286 
z"/>
<path fill="#1073D2" opacity="1.000000" stroke="none" 
	d="
M348.482971,515.585022 
	C322.841766,523.861450 298.148376,523.468079 275.019867,509.235870 
	C255.423981,497.177490 244.377655,478.772430 238.562622,456.878143 
	C229.640411,423.284943 230.885483,390.278412 247.032440,359.206726 
	C273.161377,308.926727 337.173340,308.191406 367.471100,333.204895 
	C384.066010,346.905426 392.819946,364.983368 397.344299,385.499084 
	C403.875946,415.117096 403.453308,444.419891 391.988068,472.851318 
	C383.816711,493.114685 369.401642,507.497833 348.482971,515.585022 
z"/>
</svg>