<svg version="1.1" id="Layer_1" xmlns="http://www.w3.org/2000/svg" xmlns:xlink="http://www.w3.org/1999/xlink" x="0px" y="0px"
	 width="100%" viewBox="0 0 200 200" enable-background="new 0 0 200 200" xml:space="preserve">
<path fill="#010101" opacity="1.000000" stroke="none" 
	d="
M117.000000,201.000000 
	C78.024071,201.000000 39.548149,201.000000 1.036112,201.000000 
	C1.036112,134.399109 1.036112,67.798203 1.036112,1.098643 
	C67.559090,1.098643 134.118378,1.098643 200.838837,1.098643 
	C200.838837,67.666351 200.838837,134.333145 200.838837,201.000000 
	C173.131821,201.000000 145.315903,201.000000 117.000000,201.000000 
M12.027156,119.824806 
	C12.123170,121.210999 12.219184,122.597191 12.167558,124.554581 
	C12.427734,125.042801 12.687912,125.531021 12.959641,126.855049 
	C13.346680,129.234131 13.733718,131.613205 14.011828,134.907333 
	C14.361483,140.348434 14.301096,145.854782 15.154224,151.215775 
	C16.529425,159.857376 16.936783,168.900375 23.274357,176.714096 
	C28.666260,183.510498 35.193405,188.525330 44.383106,190.391846 
	C44.930763,190.492722 45.478416,190.593613 46.937195,190.897202 
	C51.950050,190.834656 56.962910,190.772110 62.665668,190.872559 
	C63.776829,190.580887 64.887993,190.289215 66.799271,190.039993 
	C67.857750,189.925415 68.916222,189.810822 70.663284,189.846970 
	C71.766029,189.536133 72.868782,189.225296 74.810593,188.963058 
	C76.194504,188.821777 77.578423,188.680481 79.787651,188.632614 
	C81.596550,188.408493 83.403152,188.163452 85.214775,187.964035 
	C91.467354,187.275803 97.721687,186.603485 104.822838,185.997055 
	C107.543144,185.609848 110.263451,185.222641 113.885033,184.988266 
	C122.576523,183.931442 131.268005,182.874619 140.751572,181.875320 
	C141.789551,181.706268 142.827530,181.537216 144.398834,181.645401 
	C144.929810,181.417969 145.460785,181.190521 146.827484,180.960312 
	C165.830170,180.405914 180.538345,164.609146 180.908203,147.964066 
	C181.115250,138.647171 180.865021,129.320114 180.975189,119.071930 
	C180.975632,97.426880 181.062607,75.781181 180.899811,54.137360 
	C180.869125,50.058475 180.630997,45.670177 179.140900,41.966934 
	C172.598846,25.708483 159.897003,18.136011 142.699265,18.044209 
	C114.394958,17.893116 86.089165,17.969088 57.784283,18.048033 
	C54.361229,18.057579 50.855644,18.314775 47.533825,19.084881 
	C38.241001,21.239258 30.026234,25.237581 24.263693,33.966236 
	C22.118694,35.525730 19.973696,37.085224 17.251478,39.039768 
	C8.871291,47.737278 5.665030,58.183811 6.805359,70.077919 
	C8.304235,85.711807 9.831938,101.342926 11.202322,117.541649 
	C11.480044,118.023560 11.757768,118.505463 12.027156,119.824806 
z"/>
<path fill="#FFFFFF" opacity="1.000000" stroke="none" 
	d="
M24.969410,33.926868 
	C30.026234,25.237581 38.241001,21.239258 47.533825,19.084881 
	C50.855644,18.314775 54.361229,18.057579 57.784283,18.048033 
	C86.089165,17.969088 114.394958,17.893116 142.699265,18.044209 
	C159.897003,18.136011 172.598846,25.708483 179.140900,41.966934 
	C180.630997,45.670177 180.869125,50.058475 180.899811,54.137360 
	C181.062607,75.781181 180.975632,97.426880 180.549286,119.584557 
	C179.096771,121.265228 178.120773,122.483147 177.031158,123.589111 
	C175.563385,125.078926 174.237381,127.092911 172.433090,127.770775 
	C170.103165,128.646118 167.360825,128.423737 164.776169,128.676010 
	C163.952896,126.654396 163.393448,124.562523 162.277176,122.829277 
	C161.679947,121.901978 160.123215,121.592644 158.584503,120.948395 
	C156.058289,120.596115 153.948807,120.059341 151.835510,120.043777 
	C140.557831,119.960747 129.279205,120.008011 117.797256,119.760651 
	C116.525742,119.511078 115.457863,119.511078 113.931679,119.511078 
	C114.991173,116.508736 110.763725,112.829353 116.383728,111.168137 
	C130.171921,111.547989 143.577972,111.868576 156.981857,111.794647 
	C158.265671,111.787575 159.830200,109.470825 160.624008,107.902214 
	C160.847382,107.460777 158.974091,105.445213 157.734177,104.904572 
	C156.137192,104.208229 154.211472,104.054184 152.424469,104.040474 
	C142.632217,103.965309 132.835770,103.864098 123.048431,104.096115 
	C120.353378,104.159996 117.684692,105.335983 114.659683,105.807549 
	C112.136490,101.238419 112.453369,95.374062 115.239029,93.302353 
	C116.539505,94.053101 117.594925,94.885040 118.656769,94.893326 
	C131.115356,94.990417 143.577789,95.092407 156.030762,94.814468 
	C157.668488,94.777916 159.259155,92.631477 160.871628,91.462234 
	C159.233521,90.315636 157.678818,88.358177 155.941162,88.179474 
	C151.337173,87.705994 146.654068,88.001633 142.055527,87.576424 
	C142.283340,79.231087 142.687485,71.293114 142.430649,63.376595 
	C142.381882,61.873241 139.714798,60.454830 138.166656,58.601360 
	C137.005539,57.295929 135.938797,55.599758 134.860779,55.592552 
	C111.669510,55.437660 88.476501,55.418198 65.285980,55.619339 
	C64.064400,55.629929 62.861725,57.820675 61.289795,59.009407 
	C59.861618,60.505306 57.913441,61.964638 57.872906,63.475163 
	C57.653805,71.640114 57.907192,79.817749 57.530281,87.994019 
	C52.413471,88.004036 47.735584,87.726364 43.131592,88.187065 
	C41.702633,88.330048 40.474152,90.476501 39.153893,91.705727 
	C40.447201,92.795204 41.722874,94.805977 43.036552,94.831116 
	C55.651657,95.072548 68.275543,95.089851 80.889397,94.819656 
	C82.233231,94.790878 83.529053,92.520180 84.847153,91.289520 
	C83.553070,90.200958 82.366646,88.381218 80.943169,88.171646 
	C77.691162,87.692871 74.323143,88.002037 71.045128,87.613251 
	C71.780350,85.038231 72.584328,82.869072 73.143326,80.638512 
	C74.600815,74.822746 79.300491,73.625214 84.167175,73.282738 
	C86.949623,73.086922 89.205948,74.415749 88.842804,78.147530 
	C88.081635,85.969589 87.683434,93.826950 86.924782,101.649307 
	C86.779388,103.148476 85.663559,104.553535 84.645065,105.842979 
	C81.914948,105.124161 79.542862,104.122482 77.154137,104.081093 
	C66.833374,103.902298 56.507744,104.004570 46.183884,104.004570 
	C43.927147,104.004570 41.670410,104.004578 39.521130,104.004578 
	C38.719799,110.681877 39.672726,111.962517 45.091862,111.986267 
	C56.414585,112.035889 67.739258,112.097313 79.059143,111.911217 
	C81.049004,111.878494 83.019447,110.664139 85.160294,110.366730 
	C85.581482,113.264511 85.841232,115.791069 86.077156,118.085869 
	C83.946175,118.890831 82.472969,119.447327 80.531128,120.003845 
	C67.708839,120.004074 55.355190,120.004288 42.830437,119.775856 
	C42.105869,120.029999 41.552418,120.512794 40.721760,121.202377 
	C39.965687,122.939125 39.486820,124.469086 38.654129,126.057678 
	C36.411636,127.045822 34.540051,128.012238 32.630543,128.896790 
	C29.213007,130.479904 23.631958,127.666931 23.041674,124.003494 
	C22.280540,119.279716 21.839287,114.495872 20.877926,109.816452 
	C20.392229,107.452316 19.064720,105.261116 18.083687,102.524796 
	C18.041361,90.976059 17.938488,79.893173 18.066391,68.812943 
	C18.127062,63.556942 18.628380,58.306030 18.958649,52.636246 
	C20.981291,46.122078 22.975351,40.024471 24.969410,33.926868 
M53.783844,57.831455 
	C50.298325,53.537067 45.793625,54.573036 41.539711,55.860870 
	C37.973728,56.940437 38.793919,59.630829 40.569588,61.735817 
	C43.462982,65.165817 52.445065,62.980782 53.783844,57.831455 
M156.763077,55.416641 
	C154.798645,55.290817 152.626770,54.586060 150.925781,55.195518 
	C149.077988,55.857594 147.668106,57.741875 146.067261,59.093227 
	C147.833405,60.394882 149.435486,62.171669 151.415070,62.855186 
	C153.151230,63.454659 155.465073,63.252357 157.235367,62.609753 
	C158.687042,62.082802 159.714554,60.387344 160.930099,59.209858 
	C159.796753,58.050774 158.663391,56.891685 156.763077,55.416641 
M147.810776,72.110680 
	C144.639633,74.811638 145.656219,77.522873 148.814636,78.532082 
	C151.658813,79.440880 155.050934,79.014404 158.126266,78.608215 
	C159.161713,78.471451 160.491562,76.680573 160.701218,75.474358 
	C160.853165,74.600235 159.505783,72.696648 158.610275,72.546738 
	C155.304764,71.993408 151.909164,71.978416 147.810776,72.110680 
M39.614166,76.961159 
	C43.229000,80.560257 47.587135,79.003937 51.634701,78.344948 
	C52.440430,78.213768 52.836971,75.569305 53.422195,74.083786 
	C50.790947,73.081810 48.147011,71.264801 45.531998,71.305504 
	C42.880569,71.346779 38.790443,71.445038 39.614166,76.961159 
z"/>
<path fill="#FCFCFC" opacity="1.000000" stroke="none" 
	d="
M80.999763,120.003815 
	C82.472969,119.447327 83.946175,118.890831 86.077156,118.085869 
	C85.841232,115.791069 85.581482,113.264511 85.160522,109.967484 
	C84.998016,108.132004 84.996727,107.067001 84.995430,106.002007 
	C85.663559,104.553535 86.779388,103.148476 86.924782,101.649307 
	C87.683434,93.826950 88.081635,85.969589 88.842804,78.147530 
	C89.205948,74.415749 86.949623,73.086922 84.167175,73.282738 
	C79.300491,73.625214 74.600815,74.822746 73.143326,80.638512 
	C72.584328,82.869072 71.780350,85.038231 70.581696,87.616608 
	C66.049484,87.995575 62.023590,87.993294 57.997696,87.991013 
	C57.907192,79.817749 57.653805,71.640114 57.872906,63.475163 
	C57.913441,61.964638 59.861618,60.505306 61.360413,59.410240 
	C61.514179,63.197586 61.236866,66.597038 60.573128,70.087837 
	C59.861004,73.161079 58.766888,76.335014 59.449177,79.064995 
	C60.009846,81.308365 62.680271,83.024452 64.415596,84.974251 
	C66.224197,83.308975 68.898315,81.968452 69.669258,79.913818 
	C71.530273,74.954063 74.438614,71.305862 79.736153,71.166962 
	C83.698891,71.063057 89.348656,67.540962 91.193619,74.820404 
	C91.238998,74.999466 92.116814,74.967560 92.689789,75.451904 
	C92.717339,77.568886 92.661499,79.268021 92.270500,80.975754 
	C91.353966,81.599007 90.772591,82.213661 90.191208,82.828308 
	C90.995583,83.230141 91.799950,83.631981 92.687500,84.395782 
	C92.715149,85.494049 92.659630,86.230362 92.214714,86.991318 
	C91.240868,90.449837 90.549377,93.872765 90.195274,97.330238 
	C90.146042,97.810997 91.759743,98.462067 92.685493,99.352905 
	C92.712891,100.103226 92.658424,100.534950 92.212212,100.991768 
	C91.215492,102.515968 90.110504,104.007057 90.086334,105.515465 
	C89.924294,115.627968 89.992210,125.744164 89.732689,136.152557 
	C86.904533,137.158600 84.329247,137.871231 81.313194,138.705841 
	C81.648064,140.516144 81.958855,142.196243 81.953003,144.104248 
	C80.715683,149.361420 81.769600,150.925034 86.515640,150.976196 
	C95.167953,151.069504 103.822113,151.032211 112.475266,150.995331 
	C119.242592,150.966492 120.618675,149.053711 118.705910,142.073257 
	C119.118492,138.905014 117.864197,138.002838 115.112236,137.787079 
	C110.662231,137.438187 107.088562,135.919205 107.129883,130.330109 
	C107.276009,110.564438 107.276825,90.797699 107.728592,71.019012 
	C117.586632,68.402275 127.590378,70.990929 131.132416,80.828598 
	C131.504471,81.861954 132.319641,83.298775 133.159286,83.479454 
	C134.736252,83.818794 137.057220,84.021355 138.047043,83.137077 
	C140.858368,80.625549 140.847794,71.579735 138.385574,67.522552 
	C138.272705,64.389656 138.264252,61.693439 138.255798,58.997223 
	C139.714798,60.454830 142.381882,61.873241 142.430649,63.376595 
	C142.687485,71.293114 142.283340,79.231087 141.586609,87.579773 
	C134.291672,87.999504 127.517990,88.061600 120.746109,87.977783 
	C117.218910,87.934128 114.943390,89.069168 114.996964,93.000916 
	C112.453369,95.374062 112.136490,101.238419 114.658539,106.180283 
	C115.334740,108.164612 115.667862,109.582085 116.000984,110.999550 
	C110.763725,112.829353 114.991173,116.508736 113.931679,119.511078 
	C115.457863,119.511078 116.525742,119.511078 117.581039,120.046143 
	C116.776550,122.371910 115.585648,124.130142 115.435616,125.973114 
	C115.390526,126.526894 118.236137,127.886398 119.770988,127.907784 
	C131.587769,128.072418 143.409256,128.086472 155.225464,127.902802 
	C156.977524,127.875572 159.225830,126.978447 160.253845,125.692055 
	C160.852936,124.942406 159.483322,122.619492 158.999496,121.004425 
	C160.123215,121.592644 161.679947,121.901978 162.277176,122.829277 
	C163.393448,124.562523 163.952896,126.654396 164.776169,128.676010 
	C167.360825,128.423737 170.103165,128.646118 172.433090,127.770775 
	C174.237381,127.092911 175.563385,125.078926 177.031158,123.589111 
	C178.120773,122.483147 179.096771,121.265228 180.472107,120.047409 
	C180.865021,129.320114 181.115250,138.647171 180.908203,147.964066 
	C180.538345,164.609146 165.830170,180.405914 146.265259,180.762421 
	C145.090530,180.832382 144.478012,181.100266 143.865509,181.368149 
	C142.827530,181.537216 141.789551,181.706268 140.076569,181.536224 
	C137.414536,181.106659 135.427704,180.942184 133.440430,180.936874 
	C105.291451,180.861526 77.142418,180.807800 48.749313,180.514938 
	C42.810070,177.424957 36.728947,175.124741 31.548248,171.527695 
	C27.760904,168.898071 25.157959,164.562622 22.015285,160.592590 
	C21.004370,156.463409 20.005234,152.729172 19.006611,148.612625 
	C18.682556,146.497009 18.357992,144.763733 18.037167,142.558060 
	C18.066549,129.054367 18.092192,116.023048 18.117832,102.991730 
	C19.064720,105.261116 20.392229,107.452316 20.877926,109.816452 
	C21.839287,114.495872 22.280540,119.279716 23.041674,124.003494 
	C23.631958,127.666931 29.213007,130.479904 32.630543,128.896790 
	C34.540051,128.012238 36.411636,127.045822 38.997116,126.235977 
	C41.365631,126.903374 43.031807,127.905174 44.709946,127.925621 
	C56.169292,128.065292 67.633743,128.121841 79.089699,127.880211 
	C81.049217,127.838875 82.975883,126.239815 84.917725,125.360367 
	C83.611740,123.574852 82.305748,121.789337 80.999763,120.003815 
M156.760284,143.899277 
	C158.116806,142.673431 159.473343,141.447586 160.829865,140.221741 
	C158.953827,139.150040 157.113724,137.234924 155.195496,137.153152 
	C147.056183,136.806168 138.883148,136.780685 130.747406,137.165466 
	C128.827484,137.256256 127.004501,139.397125 125.136925,140.594910 
	C127.068565,141.729630 128.961273,143.757355 130.938614,143.843582 
	C139.242966,144.205566 147.572632,143.986816 156.760284,143.899277 
M73.717827,138.909134 
	C72.588051,138.294785 71.467117,137.166946 70.327118,137.147339 
	C61.213352,136.990616 52.090836,136.892212 42.985462,137.201630 
	C41.675804,137.246140 40.443432,139.564911 39.175297,140.831207 
	C40.666885,141.884415 42.129772,143.797974 43.654800,143.848846 
	C52.430882,144.141632 61.221912,143.957886 70.007370,144.014175 
	C73.024139,144.033524 74.262657,142.648209 73.717827,138.909134 
z"/>
<path fill="#ECECEC" opacity="1.000000" stroke="none" 
	d="
M11.347244,116.975235 
	C9.831938,101.342926 8.304235,85.711807 6.805359,70.077919 
	C5.665030,58.183811 8.871291,47.737278 17.684013,39.192749 
	C17.406458,43.404419 16.802715,47.485439 15.956132,51.515453 
	C15.122685,55.482933 13.117646,59.476845 16.967506,63.476696 
	C16.969185,80.626213 16.959757,97.308098 16.554844,113.992096 
	C14.152823,114.025978 11.790719,113.527969 11.811111,116.852348 
	C11.657064,116.895454 11.347244,116.975235 11.347244,116.975235 
z"/>
<path fill="#ECECEC" opacity="1.000000" stroke="none" 
	d="
M44.019131,189.932892 
	C35.193405,188.525330 28.666260,183.510498 23.133162,176.067108 
	C23.758289,174.902985 24.664854,173.830765 25.262400,173.981735 
	C26.598303,174.319229 27.780199,175.266312 29.268772,175.975662 
	C29.512718,175.986221 30.000908,175.998779 30.136208,176.312866 
	C32.514801,178.083618 34.758099,179.540283 37.066025,181.359467 
	C41.308727,185.177643 45.941597,185.897644 51.405907,184.025604 
	C52.877235,184.005753 53.947563,183.988861 55.317360,184.257782 
	C64.100479,184.663574 72.584122,184.783569 81.017151,185.217255 
	C80.298454,186.533707 79.630394,187.536453 78.962334,188.539200 
	C77.578423,188.680481 76.194504,188.821777 74.174774,188.693451 
	C72.350861,188.847992 71.162781,189.272110 69.974701,189.696228 
	C68.916222,189.810822 67.857750,189.925415 66.189987,189.761383 
	C64.379066,189.891708 63.177414,190.300644 61.975765,190.709579 
	C56.962910,190.772110 51.950050,190.834656 46.445232,190.527466 
	C45.308556,190.082794 44.663845,190.007843 44.019131,189.932892 
z"/>
<path fill="#C2C2C2" opacity="1.000000" stroke="none" 
	d="
M81.067772,184.903564 
	C72.584122,184.783569 64.100479,184.663574 55.247574,183.902176 
	C53.579922,182.852097 52.281532,182.443390 50.651367,182.028091 
	C49.877022,182.021606 49.434448,182.021744 48.995827,181.703613 
	C48.997650,181.173172 48.995522,180.960983 48.993397,180.748810 
	C77.142418,180.807800 105.291451,180.861526 133.440430,180.936874 
	C135.427704,180.942184 137.414536,181.106659 139.680542,181.507462 
	C131.268005,182.874619 122.576523,183.931442 113.339622,184.535767 
	C109.858948,183.729736 106.923683,183.376190 103.566475,183.027954 
	C100.038399,183.345383 96.935852,183.700516 93.825272,183.959152 
	C89.575966,184.312454 85.320564,184.592255 81.067772,184.903564 
z"/>
<path fill="#DEDEDE" opacity="1.000000" stroke="none" 
	d="
M29.024826,175.965103 
	C27.780199,175.266312 26.598303,174.319229 25.262400,173.981735 
	C24.664854,173.830765 23.758289,174.902985 22.969097,175.774597 
	C16.936783,168.900375 16.529425,159.857376 15.154224,151.215775 
	C14.301096,145.854782 14.361483,140.348434 14.425296,134.451050 
	C15.556770,133.993515 16.274776,133.992279 16.996258,134.431900 
	C17.344296,137.591980 17.688862,140.311218 18.033426,143.030441 
	C18.357992,144.763733 18.682556,146.497009 18.722176,148.873550 
	C19.290833,153.344391 20.144434,157.171967 20.999321,161.387497 
	C22.101337,163.892227 23.138979,166.044952 24.318602,168.116821 
	C25.827482,170.766998 27.450813,173.352005 29.024826,175.965103 
z"/>
<path fill="#DBDBDB" opacity="1.000000" stroke="none" 
	d="
M81.017151,185.217255 
	C85.320564,184.592255 89.575966,184.312454 93.825272,183.959152 
	C96.935852,183.700516 100.038399,183.345383 103.568787,183.390305 
	C103.987144,184.473267 103.981247,185.199203 103.975357,185.925125 
	C97.721687,186.603485 91.467354,187.275803 85.214775,187.964035 
	C83.403152,188.163452 81.596550,188.408493 79.374992,188.585907 
	C79.630394,187.536453 80.298454,186.533707 81.017151,185.217255 
z"/>
<path fill="#E9E9E9" opacity="1.000000" stroke="none" 
	d="
M16.992785,133.991043 
	C16.274776,133.992279 15.556770,133.993515 14.479759,133.993515 
	C13.733718,131.613205 13.346680,129.234131 13.184700,126.292328 
	C13.044906,125.147537 12.680052,124.565460 12.315198,123.983383 
	C12.219184,122.597191 12.123170,121.210999 12.257872,119.247589 
	C12.314112,118.049995 12.139634,117.429619 11.965158,116.809242 
	C11.790719,113.527969 14.152823,114.025978 16.570206,114.461441 
	C16.984961,121.282799 16.988873,127.636917 16.992785,133.991043 
z"/>
<path fill="#E9E9E9" opacity="1.000000" stroke="none" 
	d="
M16.956398,63.009056 
	C13.117646,59.476845 15.122685,55.482933 15.956132,51.515453 
	C16.802715,47.485439 17.406458,43.404419 17.972622,38.995228 
	C19.973696,37.085224 22.118694,35.525730 24.616552,33.946552 
	C22.975351,40.024471 20.981291,46.122078 18.576733,52.714287 
	C17.762959,56.475613 17.359678,59.742336 16.956398,63.009056 
z"/>
<path fill="#D3D3D3" opacity="1.000000" stroke="none" 
	d="
M104.399094,185.961090 
	C103.981247,185.199203 103.987144,184.473267 103.990730,183.384995 
	C106.923683,183.376190 109.858948,183.729736 112.888985,184.459351 
	C110.263451,185.222641 107.543144,185.609848 104.399094,185.961090 
z"/>
<path fill="#DBDBDB" opacity="1.000000" stroke="none" 
	d="
M62.320717,190.791077 
	C63.177414,190.300644 64.379066,189.891708 65.789932,189.740158 
	C64.887993,190.289215 63.776829,190.580887 62.320717,190.791077 
z"/>
<path fill="#DBDBDB" opacity="1.000000" stroke="none" 
	d="
M70.318993,189.771606 
	C71.162781,189.272110 72.350861,188.847992 73.755234,188.669159 
	C72.868782,189.225296 71.766029,189.536133 70.318993,189.771606 
z"/>
<path fill="#C2C2C2" opacity="1.000000" stroke="none" 
	d="
M144.132172,181.506775 
	C144.478012,181.100266 145.090530,180.832382 145.847397,180.763794 
	C145.460785,181.190521 144.929810,181.417969 144.132172,181.506775 
z"/>
<path fill="#DEDEDE" opacity="1.000000" stroke="none" 
	d="
M12.241377,124.268982 
	C12.680052,124.565460 13.044906,125.147537 13.178925,125.874428 
	C12.687912,125.531021 12.427734,125.042801 12.241377,124.268982 
z"/>
<path fill="#DBDBDB" opacity="1.000000" stroke="none" 
	d="
M44.201118,190.162369 
	C44.663845,190.007843 45.308556,190.082794 45.989670,190.426117 
	C45.478416,190.593613 44.930763,190.492722 44.201118,190.162369 
z"/>
<path fill="#DEDEDE" opacity="1.000000" stroke="none" 
	d="
M11.811111,116.852348 
	C12.139634,117.429619 12.314112,118.049995 12.262039,118.828873 
	C11.757768,118.505463 11.480044,118.023560 11.274783,117.258438 
	C11.347244,116.975235 11.657064,116.895454 11.811111,116.852348 
z"/>
<path fill="#303030" opacity="1.000000" stroke="none" 
	d="
M92.603958,100.966667 
	C92.658424,100.534950 92.712891,100.103226 92.788742,98.899384 
	C92.741463,94.407059 92.672791,90.686867 92.604111,86.966675 
	C92.659630,86.230362 92.715149,85.494049 92.790398,84.019264 
	C92.741966,82.509575 92.673813,81.738365 92.605652,80.967148 
	C92.661499,79.268021 92.717339,77.568886 92.792397,75.025406 
	C92.757088,72.142517 92.702568,70.103973 92.749214,67.631424 
	C92.763687,65.807549 92.676994,64.417694 92.588600,63.000648 
	C88.797089,63.000648 85.513214,62.868877 82.243507,63.028099 
	C75.454201,63.358715 68.759407,68.636559 67.941376,74.376053 
	C67.292976,76.951080 67.308372,79.496056 63.712910,78.893387 
	C60.459053,78.347984 61.080544,76.088020 61.082306,73.972557 
	C61.083408,72.647240 61.003254,71.321846 60.959557,69.996490 
	C61.236866,66.597038 61.514179,63.197586 61.720871,59.397301 
	C62.861725,57.820675 64.064400,55.629929 65.285980,55.619339 
	C88.476501,55.418198 111.669510,55.437660 134.860779,55.592552 
	C135.938797,55.599758 137.005539,57.295929 138.166656,58.601357 
	C138.264252,61.693439 138.272705,64.389656 138.279831,67.974426 
	C138.320862,71.005035 138.645020,73.193687 138.301361,75.271912 
	C138.090485,76.547188 136.856918,77.653351 136.082581,78.835449 
	C134.738586,77.819878 133.155746,76.996941 132.129776,75.724876 
	C131.374039,74.787865 131.345978,73.263947 131.042999,71.640633 
	C125.938187,60.725964 116.174744,63.714256 107.550903,62.850838 
	C107.329117,63.694237 107.115257,64.141487 107.114708,64.588997 
	C107.113708,65.412529 107.238144,66.236206 107.238342,67.454132 
	C107.221832,68.909424 107.277283,69.970390 107.332726,71.031364 
	C107.276825,90.797699 107.276009,110.564438 107.129883,130.330109 
	C107.088562,135.919205 110.662231,137.438187 115.112236,137.787079 
	C117.864197,138.002838 119.118492,138.905014 118.392410,142.275513 
	C116.763588,143.285278 115.397614,143.725891 113.567200,144.084763 
	C104.057426,144.060104 95.012108,144.117188 85.600128,144.114716 
	C84.245529,143.995544 83.257584,143.935959 82.269638,143.876358 
	C81.958855,142.196243 81.648064,140.516144 81.313194,138.705841 
	C84.329247,137.871231 86.904533,137.158600 90.082443,136.047485 
	C91.399910,133.873703 92.707146,132.106323 92.731110,130.321732 
	C92.862450,120.539047 92.679169,110.752129 92.603958,100.966667 
z"/>
<path fill="#F2F2F2" opacity="1.000000" stroke="none" 
	d="
M84.645065,105.842979 
	C84.996727,107.067001 84.998016,108.132004 84.999084,109.596245 
	C83.019447,110.664139 81.049004,111.878494 79.059143,111.911217 
	C67.739258,112.097313 56.414585,112.035889 45.091862,111.986267 
	C39.672726,111.962517 38.719799,110.681877 39.521130,104.004578 
	C41.670410,104.004578 43.927147,104.004570 46.183884,104.004570 
	C56.507744,104.004570 66.833374,103.902298 77.154137,104.081093 
	C79.542862,104.122482 81.914948,105.124161 84.645065,105.842979 
z"/>
<path fill="#F2F2F2" opacity="1.000000" stroke="none" 
	d="
M158.584503,120.948395 
	C159.483322,122.619492 160.852936,124.942406 160.253845,125.692055 
	C159.225830,126.978447 156.977524,127.875572 155.225464,127.902802 
	C143.409256,128.086472 131.587769,128.072418 119.770988,127.907784 
	C118.236137,127.886398 115.390526,126.526894 115.435616,125.973114 
	C115.585648,124.130142 116.776550,122.371910 117.784676,120.295715 
	C129.279205,120.008011 140.557831,119.960747 151.835510,120.043777 
	C153.948807,120.059341 156.058289,120.596115 158.584503,120.948395 
z"/>
<path fill="#F2F2F2" opacity="1.000000" stroke="none" 
	d="
M116.383728,111.168137 
	C115.667862,109.582085 115.334740,108.164612 115.002762,106.374420 
	C117.684692,105.335983 120.353378,104.159996 123.048431,104.096115 
	C132.835770,103.864098 142.632217,103.965309 152.424469,104.040474 
	C154.211472,104.054184 156.137192,104.208229 157.734177,104.904572 
	C158.974091,105.445213 160.847382,107.460777 160.624008,107.902214 
	C159.830200,109.470825 158.265671,111.787575 156.981857,111.794647 
	C143.577972,111.868576 130.171921,111.547989 116.383728,111.168137 
z"/>
<path fill="#F2F2F2" opacity="1.000000" stroke="none" 
	d="
M80.531128,120.003845 
	C82.305748,121.789337 83.611740,123.574852 84.917725,125.360367 
	C82.975883,126.239815 81.049217,127.838875 79.089699,127.880211 
	C67.633743,128.121841 56.169292,128.065292 44.709946,127.925621 
	C43.031807,127.905174 41.365631,126.903374 39.350937,126.177345 
	C39.486820,124.469086 39.965687,122.939125 41.019264,121.182922 
	C42.063160,120.639290 42.532352,120.321899 43.001545,120.004501 
	C55.355190,120.004288 67.708839,120.004074 80.531128,120.003845 
z"/>
<path fill="#F1F1F1" opacity="1.000000" stroke="none" 
	d="
M57.530281,87.994019 
	C62.023590,87.993294 66.049484,87.995575 70.538818,87.994499 
	C74.323143,88.002037 77.691162,87.692871 80.943169,88.171646 
	C82.366646,88.381218 83.553070,90.200958 84.847153,91.289520 
	C83.529053,92.520180 82.233231,94.790878 80.889397,94.819656 
	C68.275543,95.089851 55.651657,95.072548 43.036552,94.831116 
	C41.722874,94.805977 40.447201,92.795204 39.153893,91.705727 
	C40.474152,90.476501 41.702633,88.330048 43.131592,88.187065 
	C47.735584,87.726364 52.413471,88.004036 57.530281,87.994019 
z"/>
<path fill="#F1F1F1" opacity="1.000000" stroke="none" 
	d="
M115.239029,93.302353 
	C114.943390,89.069168 117.218910,87.934128 120.746109,87.977783 
	C127.517990,88.061600 134.291672,87.999504 141.533524,87.994583 
	C146.654068,88.001633 151.337173,87.705994 155.941162,88.179474 
	C157.678818,88.358177 159.233521,90.315636 160.871628,91.462234 
	C159.259155,92.631477 157.668488,94.777916 156.030762,94.814468 
	C143.577789,95.092407 131.115356,94.990417 118.656769,94.893326 
	C117.594925,94.885040 116.539505,94.053101 115.239029,93.302353 
z"/>
<path fill="#F2F2F2" opacity="1.000000" stroke="none" 
	d="
M53.860428,58.225227 
	C52.445065,62.980782 43.462982,65.165817 40.569588,61.735817 
	C38.793919,59.630829 37.973728,56.940437 41.539711,55.860870 
	C45.793625,54.573036 50.298325,53.537067 53.860428,58.225227 
z"/>
<path fill="#F2F2F2" opacity="1.000000" stroke="none" 
	d="
M157.146561,55.574619 
	C158.663391,56.891685 159.796753,58.050774 160.930099,59.209854 
	C159.714554,60.387344 158.687042,62.082802 157.235367,62.609753 
	C155.465073,63.252357 153.151230,63.454659 151.415070,62.855186 
	C149.435486,62.171669 147.833405,60.394882 146.067261,59.093231 
	C147.668106,57.741875 149.077988,55.857594 150.925781,55.195518 
	C152.626770,54.586060 154.798645,55.290817 157.146561,55.574619 
z"/>
<path fill="#F2F2F2" opacity="1.000000" stroke="none" 
	d="
M148.179108,71.935852 
	C151.909164,71.978416 155.304764,71.993408 158.610275,72.546738 
	C159.505783,72.696648 160.853165,74.600235 160.701218,75.474358 
	C160.491562,76.680573 159.161713,78.471451 158.126266,78.608215 
	C155.050934,79.014404 151.658813,79.440880 148.814636,78.532082 
	C145.656219,77.522873 144.639633,74.811638 148.179108,71.935852 
z"/>
<path fill="#F2F2F2" opacity="1.000000" stroke="none" 
	d="
M39.429405,76.611794 
	C38.790443,71.445038 42.880569,71.346779 45.531998,71.305504 
	C48.147011,71.264801 50.790947,73.081810 53.422195,74.083786 
	C52.836971,75.569305 52.440430,78.213768 51.634701,78.344948 
	C47.587135,79.003937 43.229000,80.560257 39.429405,76.611794 
z"/>
<path fill="#D8D8D8" opacity="1.000000" stroke="none" 
	d="
M16.967506,63.476696 
	C17.359678,59.742336 17.762959,56.475613 18.548153,53.130852 
	C18.628380,58.306030 18.127062,63.556942 18.066391,68.812943 
	C17.938488,79.893173 18.041361,90.976059 18.083687,102.524796 
	C18.092192,116.023048 18.066549,129.054367 18.037167,142.558060 
	C17.688862,140.311218 17.344296,137.591980 16.996258,134.431900 
	C16.988873,127.636917 16.984961,121.282799 16.965691,114.459320 
	C16.959757,97.308098 16.969185,80.626213 16.967506,63.476696 
z"/>
<path fill="#FCFCFC" opacity="1.000000" stroke="none" 
	d="
M42.830437,119.775856 
	C42.532352,120.321899 42.063160,120.639290 41.296463,120.976135 
	C41.552418,120.512794 42.105869,120.029999 42.830437,119.775856 
z"/>
<path fill="#F0F0F0" opacity="1.000000" stroke="none" 
	d="
M156.326660,143.940002 
	C147.572632,143.986816 139.242966,144.205566 130.938614,143.843582 
	C128.961273,143.757355 127.068565,141.729630 125.136925,140.594910 
	C127.004501,139.397125 128.827484,137.256256 130.747406,137.165466 
	C138.883148,136.780685 147.056183,136.806168 155.195496,137.153152 
	C157.113724,137.234924 158.953827,139.150040 160.829865,140.221741 
	C159.473343,141.447586 158.116806,142.673431 156.326660,143.940002 
z"/>
<path fill="#F0F0F0" opacity="1.000000" stroke="none" 
	d="
M73.824951,139.313965 
	C74.262657,142.648209 73.024139,144.033524 70.007370,144.014175 
	C61.221912,143.957886 52.430882,144.141632 43.654800,143.848846 
	C42.129772,143.797974 40.666885,141.884415 39.175297,140.831207 
	C40.443432,139.564911 41.675804,137.246140 42.985462,137.201630 
	C52.090836,136.892212 61.213352,136.990616 70.327118,137.147339 
	C71.467117,137.166946 72.588051,138.294785 73.824951,139.313965 
z"/>
<path fill="#EEEEEE" opacity="1.000000" stroke="none" 
	d="
M92.648048,68.065437 
	C92.702568,70.103973 92.757088,72.142517 92.709000,74.607552 
	C92.116814,74.967560 91.238998,74.999466 91.193619,74.820404 
	C89.348656,67.540962 83.698891,71.063057 79.736153,71.166962 
	C74.438614,71.305862 71.530273,74.954063 69.669258,79.913818 
	C68.898315,81.968452 66.224197,83.308975 64.415596,84.974251 
	C62.680271,83.024452 60.009846,81.308365 59.449177,79.064995 
	C58.766888,76.335014 59.861004,73.161079 60.573128,70.087837 
	C61.003254,71.321846 61.083408,72.647240 61.082306,73.972557 
	C61.080544,76.088020 60.459053,78.347984 63.712910,78.893387 
	C67.308372,79.496056 67.292976,76.951080 68.279419,74.317719 
	C75.583893,67.288094 83.643867,65.745293 92.648048,68.065437 
z"/>
<path fill="#ECECEC" opacity="1.000000" stroke="none" 
	d="
M107.728592,71.019012 
	C107.277283,69.970390 107.221832,68.909424 107.679993,67.449112 
	C116.358711,66.098457 123.861122,68.198502 130.993668,72.001549 
	C131.345978,73.263947 131.374039,74.787865 132.129776,75.724876 
	C133.155746,76.996941 134.738586,77.819878 136.082581,78.835449 
	C136.856918,77.653351 138.090485,76.547188 138.301361,75.271912 
	C138.645020,73.193687 138.320862,71.005035 138.384247,68.411102 
	C140.847794,71.579735 140.858368,80.625549 138.047043,83.137077 
	C137.057220,84.021355 134.736252,83.818794 133.159286,83.479454 
	C132.319641,83.298775 131.504471,81.861954 131.132416,80.828598 
	C127.590378,70.990929 117.586632,68.402275 107.728592,71.019012 
z"/>
<path fill="#ECECEC" opacity="1.000000" stroke="none" 
	d="
M114.031647,144.166473 
	C115.397614,143.725891 116.763588,143.285278 118.443069,142.642426 
	C120.618675,149.053711 119.242592,150.966492 112.475266,150.995331 
	C103.822113,151.032211 95.167953,151.069504 86.515640,150.976196 
	C81.769600,150.925034 80.715683,149.361420 81.953003,144.104248 
	C83.257584,143.935959 84.245529,143.995544 85.618073,144.496979 
	C86.881233,145.949371 87.731743,147.806732 88.642784,147.836914 
	C96.135902,148.085114 103.646126,148.138428 111.134308,147.835007 
	C112.147972,147.793961 113.068169,145.446167 114.031647,144.166473 
z"/>
<path fill="#D3D3D3" opacity="1.000000" stroke="none" 
	d="
M29.268772,175.975662 
	C27.450813,173.352005 25.827482,170.766998 24.318602,168.116821 
	C23.138979,166.044952 22.101337,163.892227 21.256607,161.385864 
	C21.684092,160.993362 21.855577,160.990448 22.027067,160.987549 
	C25.157959,164.562622 27.760904,168.898071 31.548248,171.527695 
	C36.728947,175.124741 42.810070,177.424957 48.749313,180.514923 
	C48.995522,180.960983 48.997650,181.173172 48.769478,181.969116 
	C44.692631,181.702133 40.846088,180.851364 36.695343,179.850586 
	C34.261063,178.466644 32.130985,177.232712 30.000908,175.998779 
	C30.000908,175.998779 29.512718,175.986221 29.268772,175.975662 
z"/>
<path fill="#EEEEEE" opacity="1.000000" stroke="none" 
	d="
M92.212204,100.991768 
	C92.679169,110.752129 92.862450,120.539047 92.731110,130.321732 
	C92.707146,132.106323 91.399910,133.873703 90.335312,135.754089 
	C89.992210,125.744164 89.924294,115.627968 90.086334,105.515465 
	C90.110504,104.007057 91.215492,102.515968 92.212204,100.991768 
z"/>
<path fill="#EEEEEE" opacity="1.000000" stroke="none" 
	d="
M92.214722,86.991318 
	C92.672791,90.686867 92.741463,94.407059 92.706879,98.580772 
	C91.759743,98.462067 90.146042,97.810997 90.195274,97.330238 
	C90.549377,93.872765 91.240868,90.449837 92.214722,86.991318 
z"/>
<path fill="#D8D8D8" opacity="1.000000" stroke="none" 
	d="
M22.015285,160.592590 
	C21.855577,160.990448 21.684092,160.993362 21.255318,160.997925 
	C20.144434,157.171967 19.290833,153.344391 18.721666,149.255875 
	C20.005234,152.729172 21.004370,156.463409 22.015285,160.592590 
z"/>
<path fill="#EEEEEE" opacity="1.000000" stroke="none" 
	d="
M92.270508,80.975754 
	C92.673813,81.738365 92.741966,82.509575 92.707230,83.657303 
	C91.799950,83.631981 90.995583,83.230141 90.191208,82.828308 
	C90.772591,82.213661 91.353966,81.599007 92.270508,80.975754 
z"/>
<path fill="#DBDBDB" opacity="1.000000" stroke="none" 
	d="
M36.999542,180.000610 
	C40.846088,180.851364 44.692631,181.702133 48.765526,182.287384 
	C49.434448,182.021744 49.877022,182.021606 50.655224,182.359741 
	C50.995533,183.141525 51.000217,183.585037 51.004902,184.028564 
	C45.941597,185.897644 41.308727,185.177643 37.065556,181.110397 
	C37.000458,180.498810 36.999542,180.000610 36.999542,180.000610 
z"/>
<path fill="#DEDEDE" opacity="1.000000" stroke="none" 
	d="
M36.695343,179.850586 
	C36.999542,180.000610 37.000458,180.498810 37.000927,180.747879 
	C34.758099,179.540283 32.514801,178.083618 30.136206,176.312866 
	C32.130985,177.232712 34.261063,178.466644 36.695343,179.850586 
z"/>
<path fill="#D3D3D3" opacity="1.000000" stroke="none" 
	d="
M51.405907,184.025604 
	C51.000217,183.585037 50.995533,183.141525 50.986996,182.366348 
	C52.281532,182.443390 53.579922,182.852097 54.948101,183.616394 
	C53.947563,183.988861 52.877235,184.005753 51.405907,184.025604 
z"/>
<path fill="#D0D0D0" opacity="1.000000" stroke="none" 
	d="
M113.567200,144.084747 
	C113.068169,145.446167 112.147972,147.793961 111.134308,147.835007 
	C103.646126,148.138428 96.135902,148.085114 88.642784,147.836914 
	C87.731743,147.806732 86.881233,145.949371 85.984726,144.556549 
	C95.012108,144.117188 104.057426,144.060104 113.567200,144.084747 
z"/>
<path fill="#CECECE" opacity="1.000000" stroke="none" 
	d="
M92.749214,67.631424 
	C83.643867,65.745293 75.583893,67.288094 68.425735,73.961739 
	C68.759407,68.636559 75.454201,63.358715 82.243507,63.028099 
	C85.513214,62.868877 88.797089,63.000648 92.588600,63.000648 
	C92.676994,64.417694 92.763687,65.807549 92.749214,67.631424 
z"/>
<path fill="#CECECE" opacity="1.000000" stroke="none" 
	d="
M131.042999,71.640633 
	C123.861122,68.198502 116.358711,66.098457 107.751953,67.054794 
	C107.238144,66.236206 107.113708,65.412529 107.114708,64.588997 
	C107.115257,64.141487 107.329117,63.694237 107.550903,62.850838 
	C116.174744,63.714256 125.938187,60.725964 131.042999,71.640633 
z"/>
</svg>