<svg version="1.1" id="Layer_1" xmlns="http://www.w3.org/2000/svg" xmlns:xlink="http://www.w3.org/1999/xlink" x="0px" y="0px"
	 width="100%" viewBox="0 0 768 715" enable-background="new 0 0 768 715" xml:space="preserve">
<path fill="#41A5EE" opacity="1.000000" stroke="none" 
	d="
M201.000000,0.999999 
	C383.022003,1.000000 565.044006,1.000000 747.192383,1.251394 
	C747.763245,1.966733 748.121948,2.644711 748.665222,2.862581 
	C757.234070,6.299664 763.257629,12.292087 766.976807,20.715052 
	C767.245117,21.322680 768.307068,21.579859 769.000000,21.999989 
	C769.000000,74.355347 769.000000,126.710693 768.531616,179.514374 
	C658.219849,179.955338 548.376404,179.949295 438.532990,179.933365 
	C435.705353,179.932953 432.877716,179.824554 430.035614,179.359390 
	C429.306427,156.223862 413.383850,143.612900 393.163605,143.774078 
	C321.835663,144.342621 250.500351,143.985519 179.096344,143.516968 
	C179.016586,106.443954 178.792343,69.831551 179.114624,33.223957 
	C179.231018,20.003710 186.131897,8.303603 199.653152,2.932002 
	C200.261871,2.690173 200.558167,1.661941 201.000000,0.999999 
z"/>
<path fill="#103F91" opacity="1.000000" stroke="none" 
	d="
M769.000000,537.000000 
	C769.000000,589.022034 769.000000,641.044006 768.636292,693.446167 
	C763.564941,703.578186 756.842773,711.186035 746.200562,714.670410 
	C746.009094,714.733093 746.061401,715.540222 746.000000,716.000000 
	C564.977966,716.000000 383.955963,716.000000 202.559311,715.638062 
	C200.965576,714.517578 199.801376,713.647095 198.518814,713.017822 
	C186.751785,707.244751 179.490875,697.784485 179.194550,684.807556 
	C178.610565,659.233582 179.115173,633.634827 179.626205,608.037598 
	C246.074509,608.021851 312.066162,607.976318 378.057739,608.038086 
	C392.395569,608.051453 402.391541,601.418274 409.035583,588.714905 
	C409.452637,587.981567 409.735352,587.495422 410.365143,586.935791 
	C421.212006,582.400513 427.304321,574.188293 428.812683,563.220093 
	C429.998383,554.598328 429.650055,545.765686 430.452698,537.012085 
	C543.614807,536.998352 656.307434,536.999207 769.000000,537.000000 
z"/>
<path fill="#185ABD" opacity="1.000000" stroke="none" 
	d="
M769.000000,536.531372 
	C656.307434,536.999207 543.614807,536.998352 430.472229,536.984680 
	C430.022186,536.971802 430.053192,536.912598 430.037903,536.452515 
	C429.996521,476.697388 429.970428,417.402283 430.416138,358.087555 
	C433.551300,358.050659 436.214752,358.018463 438.878174,358.018280 
	C548.918762,358.010376 658.959412,358.005371 769.000000,358.000000 
	C769.000000,417.354218 769.000000,476.708466 769.000000,536.531372 
z"/>
<path fill="#2B7CD3" opacity="1.000000" stroke="none" 
	d="
M769.000000,357.531342 
	C658.959412,358.005371 548.918762,358.010376 438.878174,358.018280 
	C436.214752,358.018463 433.551300,358.050659 430.425873,358.065216 
	C429.963867,358.062500 429.973663,358.017548 429.978516,357.547211 
	C429.984558,298.070282 429.985748,239.063660 430.001617,179.984192 
	C430.016327,179.911316 430.050079,179.766525 430.050079,179.766510 
	C432.877716,179.824554 435.705353,179.932953 438.532990,179.933365 
	C548.376404,179.949295 658.219849,179.955338 768.531616,179.981354 
	C769.000000,239.020889 769.000000,298.041779 769.000000,357.531342 
z"/>
<path fill="#000000" opacity="1.000000" stroke="none" 
	d="
M179.169540,608.046326 
	C179.115173,633.634827 178.610565,659.233582 179.194550,684.807556 
	C179.490875,697.784485 186.751785,707.244751 198.518814,713.017822 
	C199.801376,713.647095 200.965576,714.517578 202.092331,715.638062 
	C135.076401,716.000000 68.152809,716.000000 1.000000,716.000000 
	C1.000000,655.312622 1.000000,594.625000 1.346913,533.272095 
	C2.150468,533.402405 2.634655,534.183594 3.059309,534.995850 
	C5.740128,540.123657 8.054642,545.551270 14.054449,548.365723 
	C19.423847,550.785095 24.609625,554.634888 29.853094,554.715149 
	C62.893147,555.220825 95.946014,554.889465 129.459412,554.901428 
	C146.255676,555.025757 162.587173,555.083313 178.930328,555.599243 
	C178.988235,561.720337 179.034470,567.383057 179.054688,573.509888 
	C179.071762,579.321777 179.114853,584.669434 179.106583,590.481567 
	C179.093323,596.646057 179.131439,602.346191 179.169540,608.046326 
z"/>
<path fill="#000000" opacity="1.000000" stroke="none" 
	d="
M200.531342,0.999999 
	C200.558167,1.661941 200.261871,2.690173 199.653152,2.932002 
	C186.131897,8.303603 179.231018,20.003710 179.114624,33.223957 
	C178.792343,69.831551 179.016586,106.443954 179.026367,143.981262 
	C178.988495,150.264267 178.949081,155.620453 178.446808,160.987289 
	C130.719696,160.997467 83.455475,160.986725 36.191254,161.002319 
	C20.556299,161.007477 9.177174,167.717422 2.804739,182.305710 
	C2.623449,182.720734 1.620060,182.776642 1.000000,183.000000 
	C1.000000,122.402863 1.000000,61.805733 1.000000,1.000000 
	C67.354080,1.000000 133.708389,1.000000 200.531342,0.999999 
z"/>
<path fill="#1F63C1" opacity="1.000000" stroke="none" 
	d="
M1.000005,354.000000 
	C1.000000,322.312439 1.000000,290.624878 1.350939,258.396851 
	C12.986728,251.484680 24.315304,245.189026 35.548412,238.727417 
	C72.160385,217.667130 108.957977,196.915131 145.208740,175.249069 
	C157.942261,167.638580 170.992249,162.210358 185.666687,162.116745 
	C231.779068,161.822556 277.894623,162.024368 323.925415,162.366760 
	C322.439331,164.031540 321.222992,165.675781 319.602539,166.642746 
	C311.895386,171.241699 304.070587,175.643051 296.301727,180.139023 
	C270.116211,195.293015 243.945602,210.472870 217.752457,225.613678 
	C186.236847,243.831100 154.717453,262.042084 123.162712,280.191528 
	C118.884438,282.652283 114.391434,284.739716 109.796379,286.667053 
	C107.424843,276.088013 105.118629,265.867706 103.171211,255.579453 
	C102.617523,252.654312 101.511078,251.749130 98.627846,251.813049 
	C90.970268,251.982758 83.306412,251.868896 75.645058,251.868210 
	C70.912506,251.867798 66.179955,251.868118 61.159191,251.868118 
	C66.081268,273.008881 70.829132,293.401367 75.169479,313.850983 
	C73.046562,314.509735 71.188232,314.862213 69.637825,315.751495 
	C53.928307,324.762268 38.330086,333.968536 22.567932,342.885406 
	C15.533868,346.864685 8.198584,350.311523 1.000005,354.000000 
z"/>
<path fill="#1C5FBF" opacity="1.000000" stroke="none" 
	d="
M1.000005,354.468689 
	C8.198584,350.311523 15.533868,346.864685 22.567932,342.885406 
	C38.330086,333.968536 53.928307,324.762268 69.637825,315.751495 
	C71.188232,314.862213 73.046562,314.509735 75.323959,314.189392 
	C84.452919,350.908234 93.019890,387.345856 101.198708,423.876740 
	C98.836014,424.836121 96.759331,425.524994 94.902481,426.595276 
	C72.747833,439.365051 50.663132,452.256561 28.477238,464.971558 
	C19.421549,470.161438 10.165115,475.001038 1.000001,480.000000 
	C1.000000,438.312439 1.000000,396.624878 1.000005,354.468689 
z"/>
<path fill="#1959BB" opacity="1.000000" stroke="none" 
	d="
M1.000001,480.468658 
	C10.165115,475.001038 19.421549,470.161438 28.477238,464.971558 
	C50.663132,452.256561 72.747833,439.365051 94.902481,426.595276 
	C96.759331,425.524994 98.836014,424.836121 101.351944,424.216248 
	C104.652451,436.216919 107.595322,447.932892 110.070572,459.746826 
	C110.931480,463.855804 112.730751,464.847382 116.732330,464.777069 
	C128.483109,464.570618 140.242523,464.857208 151.918488,465.287292 
	C149.980179,467.200439 148.285812,469.044952 146.231628,470.301086 
	C140.985092,473.509369 135.566025,476.434326 130.237335,479.509644 
	C98.411613,497.876831 66.556396,516.193420 34.797440,534.675354 
	C27.654694,538.832031 20.855089,543.578430 13.897505,548.053284 
	C8.054642,545.551270 5.740128,540.123657 3.059309,534.995850 
	C2.634655,534.183594 2.150468,533.402405 1.346913,532.803406 
	C1.000000,515.645752 1.000000,498.291534 1.000001,480.468658 
z"/>
<path fill="#2266C3" opacity="1.000000" stroke="none" 
	d="
M324.008942,162.034119 
	C277.894623,162.024368 231.779068,161.822556 185.666687,162.116745 
	C170.992249,162.210358 157.942261,167.638580 145.208740,175.249069 
	C108.957977,196.915131 72.160385,217.667130 35.548412,238.727417 
	C24.315304,245.189026 12.986728,251.484680 1.350939,257.928162 
	C1.000000,233.312439 1.000000,208.624878 1.000000,183.468658 
	C1.620060,182.776642 2.623449,182.720734 2.804739,182.305710 
	C9.177174,167.717422 20.556299,161.007477 36.191254,161.002319 
	C83.455475,160.986725 130.719696,160.997467 178.920914,161.006042 
	C226.565948,161.022552 273.273987,161.018509 319.982025,161.047119 
	C333.610352,161.055466 347.238647,161.157013 360.518250,161.392029 
	C348.115997,161.723541 336.062469,161.878830 324.008942,162.034119 
z"/>
<path fill="#000000" opacity="1.000000" stroke="none" 
	d="
M746.468750,716.000000 
	C746.061401,715.540222 746.009094,714.733093 746.200562,714.670410 
	C756.842773,711.186035 763.564941,703.578186 768.636292,693.913208 
	C769.000000,701.261230 769.000000,708.522522 769.000000,716.000000 
	C761.647217,716.000000 754.292358,716.000000 746.468750,716.000000 
z"/>
<path fill="#000000" opacity="1.000000" stroke="none" 
	d="
M769.000000,21.531078 
	C768.307068,21.579859 767.245117,21.322680 766.976807,20.715052 
	C763.257629,12.292087 757.234070,6.299664 748.665222,2.862581 
	C748.121948,2.644711 747.763245,1.966733 747.659363,1.251394 
	C754.926147,1.000000 761.852295,1.000000 769.000000,1.000000 
	C769.000000,7.685770 769.000000,14.373973 769.000000,21.531078 
z"/>
<path fill="#3B95D8" opacity="1.000000" stroke="none" 
	d="
M360.866943,161.215820 
	C347.238647,161.157013 333.610352,161.055466 319.982025,161.047119 
	C273.273987,161.018509 226.565948,161.022552 179.383789,160.995392 
	C178.949081,155.620453 178.988495,150.264267 179.097870,144.443787 
	C250.500351,143.985519 321.835663,144.342621 393.163605,143.774078 
	C413.383850,143.612900 429.306427,156.223862 430.035614,179.359406 
	C430.050079,179.766525 430.016327,179.911316 429.535156,179.955032 
	C422.329956,180.028931 415.605927,180.059097 408.702179,180.038483 
	C408.522491,179.987701 408.162720,179.884552 408.057648,179.557251 
	C403.861511,171.780579 398.040802,165.683853 389.817749,163.847137 
	C382.166290,162.138123 374.039185,162.558380 365.769653,161.898041 
	C363.900848,161.575150 362.383881,161.395493 360.866943,161.215820 
z"/>
<path fill="#0B2E69" opacity="1.000000" stroke="none" 
	d="
M179.157944,590.017151 
	C179.114853,584.669434 179.071762,579.321777 179.516098,573.484253 
	C243.335678,572.659668 306.667847,572.324829 370.339172,572.204346 
	C382.103729,573.271606 393.068878,572.191650 401.302917,563.073608 
	C405.227692,558.727417 408.363281,553.668518 411.886658,549.404541 
	C411.284027,562.254089 410.651062,574.631714 410.018127,587.009277 
	C409.735352,587.495422 409.452637,587.981567 408.614166,588.727356 
	C400.088104,589.325439 392.118073,589.948181 384.147339,589.957825 
	C315.817627,590.040527 247.487762,590.012268 179.157944,590.017151 
z"/>
<path fill="#0D3274" opacity="1.000000" stroke="none" 
	d="
M179.106583,590.481567 
	C247.487762,590.012268 315.817627,590.040527 384.147339,589.957825 
	C392.118073,589.948181 400.088104,589.325439 408.479858,588.974487 
	C402.391541,601.418274 392.395569,608.051453 378.057739,608.038086 
	C312.066162,607.976318 246.074509,608.021851 179.626205,608.037598 
	C179.131439,602.346191 179.093323,596.646057 179.106583,590.481567 
z"/>
<path fill="#0E3983" opacity="1.000000" stroke="none" 
	d="
M410.365173,586.935791 
	C410.651062,574.631714 411.284027,562.254089 411.908234,548.950439 
	C411.942017,544.341675 411.984558,540.658936 412.493347,536.976135 
	C418.657471,536.954895 424.355347,536.933716 430.053192,536.912598 
	C430.053192,536.912598 430.022186,536.971802 430.002686,536.999268 
	C429.650055,545.765686 429.998383,554.598328 428.812683,563.220093 
	C427.304321,574.188293 421.212006,582.400513 410.365173,586.935791 
z"/>
<path fill="#1651AA" opacity="1.000000" stroke="none" 
	d="
M430.037903,536.452515 
	C424.355347,536.933716 418.657471,536.954895 412.472168,536.986694 
	C411.984741,536.997375 411.953064,537.031921 411.959534,536.560486 
	C411.964966,479.224854 411.967255,422.360657 411.951385,365.496460 
	C411.950684,363.007568 411.783264,360.518707 411.796631,358.018188 
	C411.899811,358.006531 412.106873,357.991425 412.568085,357.995972 
	C418.677429,358.006165 424.325531,358.011871 429.973663,358.017578 
	C429.973663,358.017548 429.963867,358.062500 429.954102,358.084839 
	C429.970428,417.402283 429.996521,476.697388 430.037903,536.452515 
z"/>
<path fill="#2770BE" opacity="1.000000" stroke="none" 
	d="
M429.978516,357.547241 
	C424.325531,358.011871 418.677429,358.006165 412.521973,357.529907 
	C411.994080,305.099030 412.088684,253.138184 411.817047,201.179245 
	C411.780304,194.144318 409.905579,187.119034 408.881897,180.089294 
	C415.605927,180.059097 422.329956,180.028931 429.520447,180.027893 
	C429.985748,239.063660 429.984558,298.070282 429.978516,357.547241 
z"/>
<path fill="#144EB2" opacity="1.000000" stroke="none" 
	d="
M178.918655,555.140808 
	C162.587173,555.083313 146.255676,555.025757 129.547638,554.578125 
	C130.844009,552.636597 132.301712,550.717773 134.223862,549.591858 
	C149.870590,540.427124 165.600479,531.404175 181.312149,522.350403 
	C212.302399,504.492371 243.307480,486.659973 274.258789,468.734711 
	C275.739807,467.876953 276.762329,466.227539 278.398071,464.840027 
	C280.418121,464.658386 282.038483,464.583557 283.867157,464.499115 
	C285.635162,457.583344 287.370850,450.794006 289.437134,443.919556 
	C313.476929,430.071533 337.408875,416.673523 360.800018,402.389954 
	C372.286011,395.376190 386.257416,391.599457 393.881470,379.460693 
	C393.940155,424.155273 394.050323,468.382874 393.876953,512.609375 
	C393.849182,519.688599 392.552246,526.762878 391.619141,534.101196 
	C384.722748,548.996338 372.928955,554.865540 357.308563,554.840576 
	C300.337799,554.749634 243.366806,554.817261 186.395889,554.844543 
	C183.903427,554.845703 181.411072,555.037659 178.918655,555.140808 
z"/>
<path fill="#1754B7" opacity="1.000000" stroke="none" 
	d="
M277.998352,464.946838 
	C276.762329,466.227539 275.739807,467.876953 274.258789,468.734711 
	C243.307480,486.659973 212.302399,504.492371 181.312149,522.350403 
	C165.600479,531.404175 149.870590,540.427124 134.223862,549.591858 
	C132.301712,550.717773 130.844009,552.636597 129.082870,554.511353 
	C95.946014,554.889465 62.893147,555.220825 29.853094,554.715149 
	C24.609625,554.634888 19.423847,550.785095 14.054450,548.365723 
	C20.855089,543.578430 27.654694,538.832031 34.797440,534.675354 
	C66.556396,516.193420 98.411613,497.876831 130.237335,479.509644 
	C135.566025,476.434326 140.985092,473.509369 146.231628,470.301086 
	C148.285812,469.044952 149.980179,467.200439 152.322006,465.181244 
	C155.173599,464.491333 157.541626,464.244080 160.280701,463.972412 
	C161.585464,463.630890 162.602051,463.457764 163.440399,462.975067 
	C176.248215,455.600311 188.988174,448.106567 201.838715,440.807434 
	C210.190750,436.063507 218.696014,431.589386 227.171082,427.397156 
	C229.903549,438.506866 232.842575,449.161255 235.158371,459.949371 
	C235.966003,463.711761 237.473846,464.751160 241.047089,464.731628 
	C253.363403,464.664215 265.681122,464.854614 277.998352,464.946838 
z"/>
<path fill="#071E43" opacity="1.000000" stroke="none" 
	d="
M178.930328,555.599243 
	C181.411072,555.037659 183.903427,554.845703 186.395889,554.844543 
	C243.366806,554.817261 300.337799,554.749634 357.308563,554.840576 
	C372.928955,554.865540 384.722748,548.996338 391.934570,534.244019 
	C392.982880,535.082336 393.492798,536.039673 394.001953,537.440308 
	C393.990234,550.140991 389.337921,560.100281 379.141266,567.116028 
	C376.314545,569.060974 373.058868,570.382507 370.000000,571.990051 
	C306.667847,572.324829 243.335678,572.659668 179.542114,573.020142 
	C179.034470,567.383057 178.988235,561.720337 178.930328,555.599243 
z"/>
<path fill="#FDFEFE" opacity="1.000000" stroke="none" 
	d="
M278.398041,464.840027 
	C265.681122,464.854614 253.363403,464.664215 241.047089,464.731628 
	C237.473846,464.751160 235.966003,463.711761 235.158371,459.949371 
	C232.842575,449.161255 229.903549,438.506866 227.231842,426.985901 
	C222.930679,408.412048 218.607239,390.652222 214.274490,372.480042 
	C208.312103,346.426697 202.359039,320.785706 196.468216,295.412842 
	C194.770569,304.907501 193.305923,314.737701 191.220306,324.434296 
	C186.368240,346.992767 181.216888,369.486847 176.055450,392.383545 
	C175.128967,396.145691 174.302887,399.524445 173.543823,402.918152 
	C168.990540,423.275787 164.452682,443.636902 159.909637,463.996826 
	C157.541626,464.244080 155.173599,464.491333 152.402069,464.844635 
	C140.242523,464.857208 128.483109,464.570618 116.732330,464.777069 
	C112.730751,464.847382 110.931480,463.855804 110.070572,459.746826 
	C107.595322,447.932892 104.652451,436.216919 101.740089,424.122955 
	C93.019890,387.345856 84.452919,350.908234 75.731476,314.132263 
	C70.829132,293.401367 66.081268,273.008881 61.159191,251.868118 
	C66.179955,251.868118 70.912506,251.867798 75.645058,251.868210 
	C83.306412,251.868896 90.970268,251.982758 98.627846,251.813049 
	C101.511078,251.749130 102.617523,252.654312 103.171211,255.579453 
	C105.118629,265.867706 107.424843,276.088013 109.767609,287.078064 
	C119.173721,332.966797 128.407120,378.111572 137.055710,420.397156 
	C149.506332,366.130096 162.602280,309.050323 175.668961,252.098145 
	C191.104080,252.098145 205.714233,252.098145 220.414490,252.098145 
	C222.476944,260.217468 224.489426,268.140015 226.609558,276.402405 
	C229.693390,288.870728 232.669571,300.999237 235.725677,313.525970 
	C240.705734,334.115479 245.696274,354.285370 250.476715,374.504913 
	C254.144806,390.019623 257.547943,405.597015 261.083740,421.211914 
	C261.316833,420.784851 261.777252,420.274933 261.882904,419.699829 
	C266.541779,394.336273 271.150055,368.963501 275.807495,343.599701 
	C278.901611,326.749573 282.060577,309.911407 285.412842,292.748169 
	C288.253815,278.958832 290.872498,265.489136 293.465668,252.150513 
	C307.227417,252.150513 320.432587,252.150513 333.898651,252.150513 
	C329.262939,272.022125 324.715607,291.514801 320.074402,311.395752 
	C314.593750,334.707733 309.182800,357.625793 303.827209,380.556793 
	C298.889435,401.698883 294.011047,422.854858 289.106506,444.004700 
	C287.370850,450.794006 285.635162,457.583344 283.867157,464.499115 
	C282.038483,464.583557 280.418121,464.658386 278.398041,464.840027 
z"/>
<path fill="#1C5FBF" opacity="1.000000" stroke="none" 
	d="
M226.501907,276.062561 
	C224.489426,268.140015 222.476944,260.217468 220.414490,252.098145 
	C205.714233,252.098145 191.104080,252.098145 175.668961,252.098145 
	C162.602280,309.050323 149.506332,366.130096 137.055710,420.397156 
	C128.407120,378.111572 119.173721,332.966797 109.969086,287.411011 
	C114.391434,284.739716 118.884438,282.652283 123.162712,280.191528 
	C154.717453,262.042084 186.236847,243.831100 217.752457,225.613678 
	C243.945602,210.472870 270.116211,195.293015 296.301727,180.139023 
	C304.070587,175.643051 311.895386,171.241699 319.602539,166.642746 
	C321.222992,165.675781 322.439331,164.031540 323.925415,162.366760 
	C336.062469,161.878830 348.115997,161.723541 360.518250,161.392044 
	C362.383881,161.395493 363.900848,161.575150 366.069458,162.085815 
	C377.714539,164.209290 385.086365,170.976486 390.829803,180.230530 
	C390.820587,180.661209 390.817474,180.833481 390.467072,181.034210 
	C389.339844,181.327728 388.492493,181.474503 387.789886,181.875198 
	C372.344910,190.683578 356.889435,199.474182 341.489288,208.360535 
	C305.508789,229.122314 269.545471,249.913895 233.615753,270.763306 
	C231.074997,272.237671 228.865463,274.282837 226.501907,276.062561 
z"/>
<path fill="#19487B" opacity="1.000000" stroke="none" 
	d="
M390.814331,181.005753 
	C390.817474,180.833481 390.820587,180.661209 391.314392,180.233307 
	C397.257660,179.946640 402.710175,179.915604 408.162720,179.884552 
	C408.162720,179.884552 408.522491,179.987701 408.702209,180.038498 
	C409.905579,187.119034 411.780304,194.144318 411.817047,201.179245 
	C412.088684,253.138184 411.994080,305.099030 412.060791,357.525360 
	C412.106873,357.991425 411.899811,358.006531 411.358459,358.012360 
	C405.242401,358.020660 399.667664,358.023102 394.060547,357.555603 
	C393.976074,324.058014 393.923950,291.030426 393.903442,257.534149 
	C393.950592,236.520096 394.162079,215.971634 393.836670,195.431656 
	C393.760254,190.608292 391.870087,185.813629 390.814331,181.005753 
z"/>
<path fill="#265F8B" opacity="1.000000" stroke="none" 
	d="
M408.057648,179.557266 
	C402.710175,179.915604 397.257660,179.946640 391.320496,179.974915 
	C385.086365,170.976486 377.714539,164.209290 366.421326,162.229034 
	C374.039185,162.558380 382.166290,162.138123 389.817749,163.847137 
	C398.040802,165.683853 403.861511,171.780579 408.057648,179.557266 
z"/>
<path fill="#092554" opacity="1.000000" stroke="none" 
	d="
M370.339172,572.204346 
	C373.058868,570.382507 376.314545,569.060974 379.141266,567.116028 
	C389.337921,560.100281 393.990234,550.140991 394.469543,537.440063 
	C400.609680,537.008240 406.281372,537.020081 411.953064,537.031921 
	C411.953064,537.031921 411.984741,536.997375 412.005920,536.986816 
	C411.984558,540.658936 411.942017,544.341675 411.877930,548.478394 
	C408.363281,553.668518 405.227692,558.727417 401.302917,563.073608 
	C393.068878,572.191650 382.103729,573.271606 370.339172,572.204346 
z"/>
<path fill="#0E346E" opacity="1.000000" stroke="none" 
	d="
M411.959534,536.560486 
	C406.281372,537.020081 400.609680,537.008240 394.470367,536.996704 
	C393.492798,536.039673 392.982880,535.082336 392.157501,533.982239 
	C392.552246,526.762878 393.849182,519.688599 393.876953,512.609375 
	C394.050323,468.382874 393.940155,424.155273 393.919312,378.993164 
	C393.974091,371.380737 394.033508,364.703125 394.092926,358.025574 
	C399.667664,358.023102 405.242401,358.020660 411.255310,358.024017 
	C411.783264,360.518707 411.950684,363.007568 411.951385,365.496460 
	C411.967255,422.360657 411.964966,479.224854 411.959534,536.560486 
z"/>
<path fill="#1857B9" opacity="1.000000" stroke="none" 
	d="
M394.060547,357.555573 
	C394.033508,364.703125 393.974091,371.380737 393.876831,378.525848 
	C386.257416,391.599457 372.286011,395.376190 360.800018,402.389954 
	C337.408875,416.673523 313.476929,430.071533 289.437134,443.919556 
	C294.011047,422.854858 298.889435,401.698883 303.827209,380.556793 
	C309.182800,357.625793 314.593750,334.707733 320.399292,311.307495 
	C323.306671,309.183014 325.720032,307.405487 328.296051,305.907837 
	C347.408325,294.796295 366.511536,283.667694 385.720642,272.725403 
	C389.789978,270.407349 391.644165,267.240326 392.057709,262.741760 
	C392.206757,261.120239 393.241333,259.580109 393.871796,258.002838 
	C393.923950,291.030426 393.976074,324.058014 394.060547,357.555573 
z"/>
<path fill="#1959BB" opacity="1.000000" stroke="none" 
	d="
M214.283798,372.892395 
	C218.607239,390.652222 222.930679,408.412048 227.193375,426.583130 
	C218.696014,431.589386 210.190750,436.063507 201.838715,440.807434 
	C188.988174,448.106567 176.248215,455.600311 163.440399,462.975067 
	C162.602051,463.457764 161.585464,463.630890 160.280716,463.972412 
	C164.452682,443.636902 168.990540,423.275787 173.543823,402.918152 
	C174.302887,399.524445 175.128967,396.145691 176.416046,392.354248 
	C178.450012,391.368683 180.103210,390.983459 181.515350,390.176422 
	C188.708542,386.065491 195.759460,381.699280 203.026138,377.725922 
	C206.593170,375.775482 210.519882,374.482788 214.283798,372.892395 
z"/>
<path fill="#1C5FBF" opacity="1.000000" stroke="none" 
	d="
M393.903442,257.534149 
	C393.241333,259.580109 392.206757,261.120239 392.057709,262.741760 
	C391.644165,267.240326 389.789978,270.407349 385.720642,272.725403 
	C366.511536,283.667694 347.408325,294.796295 328.296051,305.907837 
	C325.720032,307.405487 323.306671,309.183014 320.493134,310.919189 
	C324.715607,291.514801 329.262939,272.022125 333.898651,252.150513 
	C320.432587,252.150513 307.227417,252.150513 293.465668,252.150513 
	C290.872498,265.489136 288.253815,278.958832 285.081482,292.709930 
	C283.572662,291.557220 282.617523,290.123077 281.364136,288.241089 
	C271.816833,293.780945 262.285889,299.497162 252.568878,304.877350 
	C247.086029,307.913177 241.296921,310.395844 235.645767,313.127716 
	C232.669571,300.999237 229.693390,288.870728 226.609558,276.402405 
	C228.865463,274.282837 231.074997,272.237671 233.615753,270.763306 
	C269.545471,249.913895 305.508789,229.122314 341.489288,208.360535 
	C356.889435,199.474182 372.344910,190.683578 387.789886,181.875198 
	C388.492493,181.474503 389.339844,181.327728 390.467041,181.034210 
	C391.870087,185.813629 393.760254,190.608292 393.836670,195.431656 
	C394.162079,215.971634 393.950592,236.520096 393.903442,257.534149 
z"/>
<path fill="#1C5DBD" opacity="1.000000" stroke="none" 
	d="
M235.725677,313.525970 
	C241.296921,310.395844 247.086029,307.913177 252.568878,304.877350 
	C262.285889,299.497162 271.816833,293.780945 281.364136,288.241089 
	C282.617523,290.123077 283.572662,291.557220 284.859131,293.029602 
	C282.060577,309.911407 278.901611,326.749573 275.807495,343.599701 
	C271.150055,368.963501 266.541779,394.336273 261.882904,419.699829 
	C261.777252,420.274933 261.316833,420.784851 261.083740,421.211914 
	C257.547943,405.597015 254.144806,390.019623 250.476715,374.504913 
	C245.696274,354.285370 240.705734,334.115479 235.725677,313.525970 
z"/>
<path fill="#1D5FBE" opacity="1.000000" stroke="none" 
	d="
M214.274490,372.480042 
	C210.519882,374.482788 206.593170,375.775482 203.026138,377.725922 
	C195.759460,381.699280 188.708542,386.065491 181.515350,390.176422 
	C180.103210,390.983459 178.450012,391.368683 176.547409,391.977722 
	C181.216888,369.486847 186.368240,346.992767 191.220306,324.434296 
	C193.305923,314.737701 194.770569,304.907501 196.468216,295.412842 
	C202.359039,320.785706 208.312103,346.426697 214.274490,372.480042 
z"/>
</svg>