<svg version="1.1" id="Layer_1" xmlns="http://www.w3.org/2000/svg" xmlns:xlink="http://www.w3.org/1999/xlink" x="0px" y="0px"
	 width="100%" viewBox="0 0 278 55" enable-background="new 0 0 278 55" xml:space="preserve">
<path fill="#D2D2D2" opacity="1.000000" stroke="none" 
	d="
M8.000000,56.000000 
	C7.555555,56.000000 7.111111,56.000000 6.283236,55.629990 
	C4.266537,54.839989 2.633268,54.419994 1.000000,54.000000 
	C1.000000,37.645771 1.000000,21.291542 1.466908,4.514636 
	C91.586380,4.082812 181.239059,4.123500 270.891266,3.939471 
	C276.213745,3.928546 277.238617,5.647282 277.132263,10.503799 
	C276.851379,23.326529 277.113312,36.161144 277.115662,49.420273 
	C277.584686,54.726440 274.145691,54.032909 271.186005,54.032837 
	C197.248016,54.030994 123.310036,54.031124 49.372047,54.030949 
	C37.215576,54.030922 25.058125,53.957203 12.903796,54.118580 
	C11.261160,54.140388 9.634212,55.343750 8.000000,56.000000 
M18.509808,51.053288 
	C21.174385,51.053265 23.838963,51.053219 26.503540,51.053215 
	C106.942711,51.053188 187.381973,51.004311 267.820801,51.167507 
	C272.959839,51.177933 274.374023,49.713791 274.192169,44.697681 
	C273.818359,34.385712 274.083893,24.050707 274.078400,13.725185 
	C274.074860,7.070383 274.068573,7.058704 267.647736,7.057867 
	C234.839218,7.053592 202.030701,7.056009 169.222183,7.055794 
	C116.595314,7.055448 63.968216,7.124001 11.341957,6.945313 
	C6.193182,6.927830 4.687637,8.513154 4.905591,13.505455 
	C5.268442,21.816648 5.004421,30.155207 5.004415,38.482243 
	C5.004406,51.052509 5.004422,51.052509 18.509808,51.053288 
z"/>
<path fill="#FEFEFE" opacity="1.000000" stroke="none" 
	d="
M277.159119,48.991028 
	C277.113312,36.161144 276.851379,23.326529 277.132263,10.503799 
	C277.238617,5.647282 276.213745,3.928546 270.891266,3.939471 
	C181.239059,4.123500 91.586380,4.082812 1.466908,4.045979 
	C1.000000,3.001331 1.000000,2.002663 1.000000,1.062624 
	C93.666687,1.062624 186.333374,1.062624 279.000000,1.062624 
	C279.000000,16.771059 279.000000,32.416870 278.692596,48.530857 
	C277.976501,48.996365 277.567810,48.993698 277.159119,48.991028 
z"/>
<path fill="#FCFCFC" opacity="1.000000" stroke="none" 
	d="
M277.115662,49.420273 
	C277.567810,48.993698 277.976501,48.996365 278.692596,48.999516 
	C279.000000,51.329659 279.000000,53.659313 279.000000,55.994484 
	C188.979111,56.000000 98.958214,56.000000 8.468658,56.000000 
	C9.634212,55.343750 11.261160,54.140388 12.903796,54.118580 
	C25.058125,53.957203 37.215576,54.030922 49.372047,54.030949 
	C123.310036,54.031124 197.248016,54.030994 271.186005,54.032837 
	C274.145691,54.032909 277.584686,54.726440 277.115662,49.420273 
z"/>
<path fill="#FCFCFC" opacity="1.000000" stroke="none" 
	d="
M1.000000,54.500000 
	C2.633268,54.419994 4.266537,54.839989 5.949903,55.629990 
	C4.333333,55.666664 2.666667,55.333332 1.000000,54.500000 
z"/>
<path fill="#FEFEFE" opacity="1.000000" stroke="none" 
	d="
M18.011997,51.053375 
	C5.004422,51.052509 5.004406,51.052509 5.004415,38.482243 
	C5.004421,30.155207 5.268442,21.816648 4.905591,13.505455 
	C4.687637,8.513154 6.193182,6.927830 11.341957,6.945313 
	C63.968216,7.124001 116.595314,7.055448 169.222183,7.055794 
	C202.030701,7.056009 234.839218,7.053592 267.647736,7.057867 
	C274.068573,7.058704 274.074860,7.070383 274.078400,13.725185 
	C274.083893,24.050707 273.818359,34.385712 274.192169,44.697681 
	C274.374023,49.713791 272.959839,51.177933 267.820801,51.167507 
	C187.381973,51.004311 106.942711,51.053188 26.503540,51.053215 
	C23.838963,51.053219 21.174385,51.053265 18.011997,51.053375 
M138.116302,34.715450 
	C138.518707,35.751640 138.921112,36.787830 139.323517,37.824020 
	C139.733490,37.748528 140.143463,37.673031 140.553436,37.597538 
	C140.693100,36.397560 140.832764,35.197582 141.011322,33.141869 
	C141.002563,31.428349 140.993820,29.714830 141.005402,27.333546 
	C140.998367,26.888571 140.991333,26.443598 141.007904,25.103077 
	C141.007904,22.502865 141.007904,19.902653 141.007904,17.302441 
	C140.211151,17.292549 139.414383,17.282658 138.617630,17.272766 
	C138.379196,20.146635 138.140778,23.020506 137.014862,25.920929 
	C134.007416,25.924664 130.999985,25.928396 127.496361,25.327967 
	C127.161057,22.792841 126.825752,20.257715 126.490456,17.722589 
	C126.025299,17.782072 125.560143,17.841555 125.094986,17.901037 
	C125.420334,24.772560 124.223427,31.712498 125.836304,38.526157 
	C126.425705,38.537174 127.015099,38.548187 127.604500,38.559204 
	C127.756447,35.096165 127.908401,31.633125 128.949753,28.108414 
	C131.928497,28.108515 134.907227,28.108616 137.986038,28.936842 
	C138.062012,30.619268 138.138000,32.301697 138.116302,34.715450 
M249.470093,29.139933 
	C251.049088,30.806231 252.498352,32.627697 254.247696,34.090256 
	C255.673889,35.282631 257.458954,36.045788 259.084900,36.999252 
	C258.456512,35.495850 257.926422,33.940300 257.166107,32.506863 
	C256.633972,31.503628 255.923187,30.502581 255.055923,29.786839 
	C252.335297,27.541582 252.854156,25.389381 254.869690,23.019840 
	C256.263489,21.381210 257.463196,19.577475 259.519043,16.812822 
	C253.132126,17.584631 252.198502,22.738626 248.928177,24.154648 
	C248.761932,21.849615 248.595703,19.544582 248.429459,17.239550 
	C247.865463,17.268925 247.301453,17.298300 246.737442,17.327677 
	C246.737442,23.266874 246.737442,29.206070 246.737442,35.145267 
	C247.156525,35.199150 247.575607,35.253036 247.994690,35.306919 
	C248.267853,33.166012 248.541016,31.025108 249.470093,29.139933 
M26.825113,37.044170 
	C30.890776,36.045403 30.180931,33.264046 29.190708,30.486771 
	C28.657997,28.992678 27.872635,27.588667 27.830385,25.826818 
	C27.830347,23.849167 28.554329,20.631046 27.693319,20.128508 
	C25.198332,18.672270 22.091202,18.163706 19.159512,17.661457 
	C18.698601,17.582497 17.401318,19.444613 17.344904,20.456820 
	C17.106222,24.739532 17.019896,29.048891 17.237577,33.330219 
	C17.328457,35.117619 18.172421,38.281139 18.923582,38.357307 
	C21.245714,38.592773 23.687946,37.643818 26.825113,37.044170 
M171.738098,17.155748 
	C169.405609,21.536083 167.073105,25.916420 164.346527,31.036818 
	C162.691833,26.751799 161.317169,23.053959 159.833313,19.400465 
	C158.924438,17.162703 156.359009,15.786277 155.557419,18.180809 
	C153.495560,24.340067 153.419266,30.874184 154.554062,37.257118 
	C155.120987,37.302971 155.687912,37.348824 156.254822,37.394680 
	C156.685516,33.761372 157.116196,30.128065 157.546875,26.494759 
	C159.859238,28.748846 160.851929,31.173397 162.084213,33.469360 
	C162.733276,34.678680 163.800766,35.663429 164.679337,36.749580 
	C165.645676,35.541809 166.903809,34.465317 167.518387,33.099281 
	C168.850784,30.137741 169.854034,27.028116 171.442917,22.770424 
	C172.112244,28.422731 172.598953,32.532913 173.085678,36.643097 
	C173.835327,36.605049 174.584991,36.567005 175.334656,36.528957 
	C175.093628,31.284290 174.975204,26.029018 174.523117,20.802605 
	C174.413651,19.537127 173.203064,18.366888 171.738098,17.155748 
M73.914642,29.686333 
	C75.888870,32.547218 77.863091,35.408108 79.837311,38.268993 
	C80.281998,38.053162 80.726685,37.837334 81.171371,37.621502 
	C81.171371,30.869652 81.171371,24.117804 81.171371,17.365953 
	C80.581070,17.346140 79.990768,17.326326 79.400467,17.306513 
	C79.400467,21.492590 79.400467,25.678667 79.400467,31.249651 
	C75.182831,25.493460 71.996834,21.145235 68.810837,16.797010 
	C68.455521,17.041475 68.100204,17.285940 67.744888,17.530405 
	C67.744888,24.134230 67.744888,30.738052 67.744888,37.341873 
	C68.341774,37.359417 68.938660,37.376961 69.535545,37.394505 
	C69.725815,33.635410 69.916084,29.876316 70.149162,25.271545 
	C71.636147,26.939190 72.590965,28.010021 73.914642,29.686333 
M200.148483,20.487103 
	C199.382538,19.292635 198.616592,18.098169 197.850632,16.903702 
	C197.282394,16.818686 196.714142,16.733669 196.145905,16.648651 
	C193.509125,23.131866 190.872360,29.615080 188.235580,36.098293 
	C191.728439,34.859531 194.103928,32.392303 197.004105,31.151279 
	C202.359558,28.859613 200.975525,37.372597 206.455078,37.239357 
	C204.316757,31.536968 202.377045,26.364229 200.148483,20.487103 
M230.668365,34.722240 
	C228.435394,31.769920 227.478424,28.988388 229.843597,25.334600 
	C231.862946,22.215008 230.669205,18.663548 227.165939,17.645391 
	C224.813934,16.961828 219.619781,18.090218 219.533768,18.845049 
	C218.881500,24.569578 219.177048,30.402105 219.177048,36.200958 
	C219.610718,36.216251 220.044388,36.231544 220.478058,36.246838 
	C220.895309,33.871883 221.312561,31.496929 221.729813,29.121973 
	C222.178192,28.970861 222.626572,28.819750 223.074936,28.668638 
	C224.544327,30.710649 226.026535,32.743587 227.478424,34.797962 
	C228.399261,36.100906 229.138504,38.174286 230.668365,34.722240 
M43.031956,26.541996 
	C43.031368,28.870634 42.814663,31.226143 43.099804,33.519253 
	C43.320744,35.296055 43.921669,38.324757 44.783829,38.485180 
	C47.657860,39.019939 50.725590,38.513680 54.442238,38.380447 
	C51.776649,34.317455 45.743538,38.426071 46.199028,33.001740 
	C46.373196,30.927626 49.351871,29.089012 51.426266,26.715425 
	C50.639191,24.887259 43.910255,27.012108 46.326496,22.204580 
	C47.317974,20.231867 51.560459,19.893093 54.321213,18.804026 
	C54.284306,18.641830 54.290112,18.365751 54.204422,18.333611 
	C45.409943,15.035054 43.015324,16.587456 43.031956,26.541996 
M109.286018,17.609510 
	C102.872978,16.386486 98.355850,18.941610 97.178154,24.458357 
	C95.697533,31.394108 98.847481,37.546505 104.672195,38.514141 
	C106.511871,38.819759 108.596268,38.318211 110.418747,37.725281 
	C111.122543,37.496307 111.410110,35.987988 112.142975,34.566708 
	C102.868408,35.681126 100.322449,34.080296 100.008057,27.703239 
	C99.736122,22.187399 102.912956,20.004145 112.030968,19.212246 
	C111.295708,18.835957 110.560455,18.459665 109.286018,17.609510 
z"/>
<path fill="#D2D2D2" opacity="1.000000" stroke="none" 
	d="
M172.118469,17.154301 
	C173.203064,18.366888 174.413651,19.537127 174.523117,20.802605 
	C174.975204,26.029018 175.093628,31.284290 175.334656,36.528957 
	C174.584991,36.567005 173.835327,36.605049 173.085678,36.643097 
	C172.598953,32.532913 172.112244,28.422731 171.442917,22.770424 
	C169.854034,27.028116 168.850784,30.137741 167.518387,33.099281 
	C166.903809,34.465317 165.645676,35.541809 164.679337,36.749580 
	C163.800766,35.663429 162.733276,34.678680 162.084213,33.469360 
	C160.851929,31.173397 159.859238,28.748846 157.546875,26.494759 
	C157.116196,30.128065 156.685516,33.761372 156.254822,37.394680 
	C155.687912,37.348824 155.120987,37.302971 154.554062,37.257118 
	C153.419266,30.874184 153.495560,24.340067 155.557419,18.180809 
	C156.359009,15.786277 158.924438,17.162703 159.833313,19.400465 
	C161.317169,23.053959 162.691833,26.751799 164.346527,31.036818 
	C167.073105,25.916420 169.405609,21.536083 172.118469,17.154301 
M157.636032,24.518627 
	C157.636032,24.518627 157.518982,24.598139 157.636032,24.518627 
z"/>
<path fill="#D4D4D4" opacity="1.000000" stroke="none" 
	d="
M73.730217,29.383591 
	C72.590965,28.010021 71.636147,26.939190 70.149162,25.271545 
	C69.916084,29.876316 69.725815,33.635410 69.535545,37.394505 
	C68.938660,37.376961 68.341774,37.359417 67.744888,37.341873 
	C67.744888,30.738052 67.744888,24.134230 67.744888,17.530405 
	C68.100204,17.285940 68.455521,17.041475 68.810837,16.797010 
	C71.996834,21.145235 75.182831,25.493460 79.400467,31.249651 
	C79.400467,25.678667 79.400467,21.492590 79.400467,17.306513 
	C79.990768,17.326326 80.581070,17.346140 81.171371,17.365953 
	C81.171371,24.117804 81.171371,30.869652 81.171371,37.621502 
	C80.726685,37.837334 80.281998,38.053162 79.837311,38.268993 
	C77.863091,35.408108 75.888870,32.547218 73.730217,29.383591 
z"/>
<path fill="#D2D2D2" opacity="1.000000" stroke="none" 
	d="
M200.292908,20.839296 
	C202.377045,26.364229 204.316757,31.536968 206.455078,37.239357 
	C200.975525,37.372597 202.359558,28.859613 197.004105,31.151279 
	C194.103928,32.392303 191.728439,34.859531 188.235580,36.098293 
	C190.872360,29.615080 193.509125,23.131866 196.145905,16.648651 
	C196.714142,16.733669 197.282394,16.818686 197.850632,16.903702 
	C198.616592,18.098169 199.382538,19.292635 200.292908,20.839296 
M198.210724,23.497232 
	C197.397202,23.794357 195.999542,23.946451 195.882812,24.416576 
	C195.568573,25.682245 195.694626,27.103756 195.941544,28.407408 
	C195.975006,28.584084 197.702423,28.439917 198.645493,28.444311 
	C198.603790,26.997112 198.562073,25.549915 198.210724,23.497232 
z"/>
<path fill="#D2D2D2" opacity="1.000000" stroke="none" 
	d="
M230.729111,35.063889 
	C229.138504,38.174286 228.399261,36.100906 227.478424,34.797962 
	C226.026535,32.743587 224.544327,30.710649 223.074936,28.668638 
	C222.626572,28.819750 222.178192,28.970861 221.729813,29.121973 
	C221.312561,31.496929 220.895309,33.871883 220.478058,36.246838 
	C220.044388,36.231544 219.610718,36.216251 219.177048,36.200958 
	C219.177048,30.402105 218.881500,24.569578 219.533768,18.845049 
	C219.619781,18.090218 224.813934,16.961828 227.165939,17.645391 
	C230.669205,18.663548 231.862946,22.215008 229.843597,25.334600 
	C227.478424,28.988388 228.435394,31.769920 230.729111,35.063889 
M221.881912,25.565466 
	C224.441818,26.269571 227.050873,26.376865 227.483276,23.133059 
	C227.598740,22.266991 225.221497,20.269365 223.877289,20.160000 
	C220.063660,19.849722 221.146545,22.759659 221.881912,25.565466 
z"/>
<path fill="#D4D4D4" opacity="1.000000" stroke="none" 
	d="
M43.025967,26.055088 
	C43.015324,16.587456 45.409943,15.035054 54.204422,18.333611 
	C54.290112,18.365751 54.284306,18.641830 54.322651,18.807541 
	C51.560459,19.893093 47.317974,20.231867 46.326496,22.204580 
	C43.910255,27.012108 50.639191,24.887259 51.426266,26.715425 
	C49.351871,29.089012 46.373196,30.927626 46.199028,33.001740 
	C45.743538,38.426071 51.776649,34.317455 54.442238,38.380447 
	C50.725590,38.513680 47.657860,39.019939 44.783829,38.485180 
	C43.921669,38.324757 43.320744,35.296055 43.099804,33.519253 
	C42.814663,31.226143 43.031368,28.870634 43.025967,26.055088 
z"/>
<path fill="#D2D2D2" opacity="1.000000" stroke="none" 
	d="
M109.555603,17.846443 
	C110.560455,18.459665 111.295708,18.835957 112.030968,19.212246 
	C102.912956,20.004145 99.736122,22.187399 100.008057,27.703239 
	C100.322449,34.080296 102.868408,35.681126 112.142975,34.566708 
	C111.410110,35.987988 111.122543,37.496307 110.418747,37.725281 
	C108.596268,38.318211 106.511871,38.819759 104.672195,38.514141 
	C98.847481,37.546505 95.697533,31.394108 97.178154,24.458357 
	C98.355850,18.941610 102.872978,16.386486 109.555603,17.846443 
z"/>
<path fill="#CFCFCF" opacity="1.000000" stroke="none" 
	d="
M26.083544,37.154774 
	C23.687946,37.643818 21.245714,38.592773 18.923582,38.357307 
	C18.172421,38.281139 17.328457,35.117619 17.237577,33.330219 
	C17.019896,29.048891 17.106222,24.739532 17.344904,20.456820 
	C17.401318,19.444613 18.698601,17.582497 19.159512,17.661457 
	C22.091202,18.163706 25.198332,18.672270 27.693319,20.128508 
	C28.554329,20.631046 27.830347,23.849167 27.267551,25.823112 
	C26.455788,25.520115 26.206860,25.220827 25.983292,24.536219 
	C24.598156,22.821289 23.187662,21.491678 21.777168,20.162067 
	C21.189749,22.096903 20.602331,24.031738 19.972908,26.288815 
	C19.626572,27.420206 19.322243,28.229355 19.022305,29.473949 
	C19.113039,36.327538 19.113039,36.327538 25.927994,36.058792 
	C26.013802,36.667755 26.048672,36.911263 26.083544,37.154774 
z"/>
<path fill="#D4D4D4" opacity="1.000000" stroke="none" 
	d="
M248.933197,25.040684 
	C252.198502,22.738626 253.132126,17.584631 259.519043,16.812822 
	C257.463196,19.577475 256.263489,21.381210 254.869690,23.019840 
	C252.854156,25.389381 252.335297,27.541582 255.055923,29.786839 
	C255.923187,30.502581 256.633972,31.503628 257.166107,32.506863 
	C257.926422,33.940300 258.456512,35.495850 259.084900,36.999260 
	C257.458954,36.045788 255.673889,35.282631 254.247696,34.090256 
	C252.498352,32.627697 251.049088,30.806231 248.946655,28.781004 
	C248.593216,27.294945 248.763199,26.167814 248.933197,25.040684 
z"/>
<path fill="#D4D4D4" opacity="1.000000" stroke="none" 
	d="
M128.060364,28.170086 
	C127.908401,31.633125 127.756447,35.096165 127.604500,38.559204 
	C127.015099,38.548187 126.425705,38.537174 125.836304,38.526157 
	C124.223427,31.712498 125.420334,24.772560 125.094986,17.901037 
	C125.560143,17.841555 126.025299,17.782072 126.490456,17.722589 
	C126.825752,20.257715 127.161057,22.792841 127.749329,26.003229 
	C128.021652,27.175690 128.041016,27.672888 128.060364,28.170086 
z"/>
<path fill="#D4D4D4" opacity="1.000000" stroke="none" 
	d="
M25.957932,24.921537 
	C26.206860,25.220827 26.455788,25.520115 26.952995,25.981707 
	C27.872635,27.588667 28.657997,28.992678 29.190708,30.486771 
	C30.180931,33.264046 30.890776,36.045403 26.454329,37.099472 
	C26.048672,36.911263 26.013802,36.667755 25.985130,35.723984 
	C27.069080,29.545416 26.213827,28.811357 19.017914,29.038506 
	C19.322243,28.229355 19.626572,27.420206 20.361023,26.299591 
	C22.513409,25.632597 24.235670,25.277067 25.957932,24.921537 
z"/>
<path fill="#CFCFCF" opacity="1.000000" stroke="none" 
	d="
M248.930695,24.597666 
	C248.763199,26.167814 248.593216,27.294945 248.618713,28.653139 
	C248.541016,31.025108 248.267853,33.166012 247.994690,35.306919 
	C247.575607,35.253036 247.156525,35.199150 246.737442,35.145267 
	C246.737442,29.206070 246.737442,23.266874 246.737442,17.327677 
	C247.301453,17.298300 247.865463,17.268925 248.429459,17.239550 
	C248.595703,19.544582 248.761932,21.849615 248.930695,24.597666 
z"/>
<path fill="#D2D2D2" opacity="1.000000" stroke="none" 
	d="
M137.902344,25.894375 
	C138.140778,23.020506 138.379196,20.146635 138.617630,17.272766 
	C139.414383,17.282658 140.211151,17.292549 141.007904,17.302441 
	C141.007904,19.902653 141.007904,22.502865 140.624557,25.551865 
	C139.494598,26.000885 138.747986,26.001116 137.976379,25.974815 
	C137.951401,25.948282 137.902344,25.894375 137.902344,25.894375 
z"/>
<path fill="#D2D2D2" opacity="1.000000" stroke="none" 
	d="
M128.505066,28.139250 
	C128.041016,27.672888 128.021652,27.175690 127.997421,26.305309 
	C130.999985,25.928396 134.007416,25.924664 137.458603,25.907652 
	C137.902344,25.894375 137.951401,25.948282 137.976379,26.307880 
	C138.001221,27.111351 138.001083,27.555220 137.972351,28.026669 
	C137.943771,28.054245 137.885971,28.108717 137.885971,28.108717 
	C134.907227,28.108616 131.928497,28.108515 128.505066,28.139250 
z"/>
<path fill="#D2D2D2" opacity="1.000000" stroke="none" 
	d="
M140.985077,28.001310 
	C140.993820,29.714830 141.002563,31.428349 140.645554,33.571861 
	C139.591187,33.995945 138.902573,33.990036 138.213974,33.984123 
	C138.138000,32.301697 138.062012,30.619268 137.936005,28.522779 
	C137.885971,28.108717 137.943771,28.054245 138.346039,28.026686 
	C139.493912,27.999853 140.239487,28.000582 140.985077,28.001310 
z"/>
<path fill="#D4D4D4" opacity="1.000000" stroke="none" 
	d="
M138.165131,34.349785 
	C138.902573,33.990036 139.591187,33.995945 140.626099,33.999733 
	C140.832764,35.197582 140.693100,36.397560 140.553436,37.597538 
	C140.143463,37.673031 139.733490,37.748528 139.323517,37.824020 
	C138.921112,36.787830 138.518707,35.751640 138.165131,34.349785 
z"/>
<path fill="#D4D4D4" opacity="1.000000" stroke="none" 
	d="
M140.995239,27.667427 
	C140.239487,28.000582 139.493912,27.999853 138.374634,27.999107 
	C138.001083,27.555220 138.001221,27.111351 138.001358,26.334414 
	C138.747986,26.001116 139.494598,26.000885 140.612762,25.999638 
	C140.991333,26.443598 140.998367,26.888571 140.995239,27.667427 
z"/>
<path fill="#FEFEFE" opacity="1.000000" stroke="none" 
	d="
M157.577515,24.558384 
	C157.518982,24.598139 157.636032,24.518627 157.577515,24.558384 
z"/>
<path fill="#FCFCFC" opacity="1.000000" stroke="none" 
	d="
M198.365540,23.799974 
	C198.562073,25.549915 198.603790,26.997112 198.645493,28.444311 
	C197.702423,28.439917 195.975006,28.584084 195.941544,28.407408 
	C195.694626,27.103756 195.568573,25.682245 195.882812,24.416576 
	C195.999542,23.946451 197.397202,23.794357 198.365540,23.799974 
z"/>
<path fill="#FCFCFC" opacity="1.000000" stroke="none" 
	d="
M221.632843,25.257998 
	C221.146545,22.759659 220.063660,19.849722 223.877289,20.160000 
	C225.221497,20.269365 227.598740,22.266991 227.483276,23.133059 
	C227.050873,26.376865 224.441818,26.269571 221.632843,25.257998 
z"/>
<path fill="#FCFCFC" opacity="1.000000" stroke="none" 
	d="
M19.022305,29.473949 
	C26.213827,28.811357 27.069080,29.545416 25.934193,35.358528 
	C19.113039,36.327538 19.113039,36.327538 19.022305,29.473949 
z"/>
<path fill="#FCFCFC" opacity="1.000000" stroke="none" 
	d="
M25.983292,24.536219 
	C24.235670,25.277067 22.513409,25.632597 20.403030,25.977350 
	C20.602331,24.031738 21.189749,22.096903 21.777168,20.162067 
	C23.187662,21.491678 24.598156,22.821289 25.983292,24.536219 
z"/>
</svg>