<?xml version="1.0" encoding="UTF-8" standalone="no"?>
<svg xmlns="http://www.w3.org/2000/svg" width="609.05713" height="135.71982" viewBox="0 0 161.14636 35.909203">
  <g transform="translate(.026458 -.23337) scale(.8661)">
    <path fill="#003662" d="M82.3 25.6H70.1v2.8h.4c.1-.4.8-1.2 1.7-1.2h2.7v14.3h2.7V27.2h2.8c.9 0 1.5.5 1.6 1v.1h.4zm-79.5-.9C1 26.5 0 29.1 0 31.6c0 2.9 1.2 5.5 3.2 7.3 2 1.8 4.7 2.8 7.5 2.8 1.5 0 4.4-.3 7.3-2l.1-.1.3-4-.5-.1-.1.2C15.7 40 12.5 40 11.2 40c-5.5 0-8-4.6-8-8.8 0-4.1 2.5-8.3 8-8.3 1.7 0 4.8.6 6.4 4.3l.1.2.5-.2-.2-4.1-.1-.1c-2.6-1.1-4.7-1.6-6.8-1.6-3.4.1-6.3 1.2-8.3 3.3zm18.3.9-.1.4c.2.1.5.7.5 1.4v14h2.6v-7.2h1.1c1 .1 1.4.7 2 1.6l.1.1.3.6c.6.9 1.3 2.2 2.1 3.4.6.9 1.3 1.3 2.2 1.5.6.1 1.9.1 2.4-.1l.6-.1.2-.1-.8-.2c-.3-.1-.8-.3-1.5-1.1-.4-.5-1.1-1.6-2.1-3.2l-1-1.6c-.3-.4-.7-1-1.5-1.5 1.5-.5 2.9-1.8 2.9-3.8 0-.6-.1-1.7-1.1-2.6-1-.9-2.5-1.4-4.6-1.4Zm4.5 1.5c2.7.1 2.8 2.4 2.8 2.7 0 2.3-1.7 3.1-3.1 3.1h-1.1v-5.7c.3-.1.8-.2 1.4-.1zM48 25.6v.4c.2.1.4.7.4 1.2v14.2h4.5c3 0 5.4-.9 7.1-2.7 1.4-1.5 2.2-3.4 2.2-5.5 0-1.2-.4-3.1-1.6-4.6-1.6-2-4-3.1-7.3-3.1zm3.1 1.6h1.4c.4 0 1.3 0 2 .1 4.4.7 4.9 4.4 4.9 6 0 1.3-.2 3.1-1.3 4.6C57 39.3 55.3 40 53 40h-1.9V27.2zm16.6-1.6h-3.1v.4c.3.1.5.7.5 1.3v14.1h2.6zm53 0h-3.1v.4c.3.1.5.7.5 1.3v14.1h2.6zm-76.1 0h-8.8l.1.4c.2.1.5.7.5 1.4v14h8.8l.6-2.8-.4-.1-.1.2c-.7 1.1-1.5 1.3-4 1.3-.9 0-1.8-.1-2.4-.1v-6.4h4.5V32h-4.5v-4.9h3.6c.8 0 1.7.8 1.8 1.3v.1h.4zm112.8 0h-8.8v.4c.2.1.5.6.5 1.4v14h8.8l.6-2.8-.4-.1-.1.2c-.7 1.1-1.5 1.3-4 1.3-.9 0-1.8-.1-2.4-.1v-6.4h4.5V32h-4.5v-4.9h3.6c1 0 1.7.8 1.7 1.3v.1h.4zM90 22.7c-.9.7-2 1.9-2.1 4v.1c0 2.5 1.6 3.9 4.2 5.2.1.1.3.2 1 .5 2.2 1.1 3.7 1.9 3.7 4.1 0 .8-.3 1.9-1.1 2.7-.7.7-1.6 1-2.7 1-3.3 0-4.5-2.9-4.8-4.2l-.1-.2-.6.1.2 4.1.3-.1c1.1.6 2.8 1.6 5.4 1.7 1.8 0 3.6-.7 4.9-2 1.1-1.1 1.7-2.5 1.7-4 0-3.3-2.4-4.6-4.9-5.9l-.5-.3c-2.6-1.3-3.8-2.1-3.8-3.7 0-1.1.9-2.9 3.1-2.9 2.6 0 4 2 4.3 3.2l.1.2.6-.1-.2-3.6-.1-.1c-1.5-1-3.4-1.2-4.2-1.2-1.8.1-3.3.6-4.4 1.4zm35 6.9c0 2.2 1.3 3.3 3.4 4.4l.8.4c1.7.8 2.8 1.4 2.8 3 0 .3-.1 1.2-.8 2-.5.5-1.2.8-2.1.7-2.5 0-3.4-2-3.8-3.1l-.1-.2-.5.1.1 3.3.1.1c.8.5 2.2 1.3 4.3 1.3 1.4 0 2.9-.6 3.9-1.6.9-.9 1.3-2 1.3-3.2 0-2.8-1.9-3.8-3.9-4.8l-.4-.2c-2.2-1.1-2.9-1.6-2.9-2.8 0-.9.6-2.1 2.4-2.1 2.1 0 3 1.6 3.2 2.4l.1.2.5-.1-.2-2.9-.1-.1c-1.2-.8-2.7-.9-3.3-.9-2.3 0-4.8 1.4-4.8 4.1zm11.8 0c0 2.2 1.3 3.3 3.4 4.4l.8.4c1.7.8 2.8 1.4 2.8 3 0 .3-.1 1.2-.8 2-.5.5-1.2.8-2.1.7-2.5 0-3.4-2-3.8-3.1l-.1-.2-.5.1.1 3.3.1.1c.8.5 2.2 1.3 4.3 1.3 1.4 0 2.9-.6 3.9-1.6.9-.9 1.3-2 1.3-3.2 0-2.8-1.9-3.8-3.9-4.8l-.4-.2c-2.2-1.1-2.9-1.6-2.9-2.8 0-.5.2-1.1.6-1.5.4-.4 1-.6 1.7-.6 2.1 0 3 1.6 3.2 2.4l.1.2.5-.1-.2-2.9-.1-.1c-1.2-.8-2.7-.9-3.3-.9-2.1 0-4.7 1.4-4.7 4.1zm-22.6-4h-2.1v.4c.1.1.4.3.4 1.3v9c0 1.7-.6 3.8-3.7 3.8-2.9 0-3.5-1.7-3.5-4.3V25.6H102v.4c.2.1.6.5.6 1.4v8.4c0 5.2 3.4 5.8 6 5.8 1.3 0 5.4-.4 5.4-5.3zm65.9-4.5c1.9.6 3.8 1.4 5.9 2.6-5.1-8.4-14.1-17.5-23-23.4 2.3 2.3 6 7.3 7 12.6 3.6 2.6 7 5.4 10.1 8.2zm0 0c-4.4-1.4-8.1-1.5-10.8-1.2 1-2.3 1.1-4.7.7-7-6.7-4.8-14.2-9-21.3-12.1 5.2 3.5 11 13.8 13.4 24.8 5.2-1.5 13.1-2.6 23.4.9-1.7-1.8-3.5-3.6-5.4-5.4z"/>
    <path fill="none" d="M169.9 12.9c.4 2.3.3 4.7-.6 7 2.8-.3 6.5-.2 10.8 1.2-3.1-2.8-6.5-5.6-10.2-8.2z"/>
  </g>
</svg>