<?xml version="1.0" encoding="UTF-8" standalone="no"?>
<!-- Created with Inkscape (http://www.inkscape.org/) -->

<svg
   xmlns:dc="http://purl.org/dc/elements/1.1/"
   xmlns:cc="http://creativecommons.org/ns#"
   xmlns:rdf="http://www.w3.org/1999/02/22-rdf-syntax-ns#"
   xmlns:svg="http://www.w3.org/2000/svg"
   xmlns="http://www.w3.org/2000/svg"
   xmlns:sodipodi="http://sodipodi.sourceforge.net/DTD/sodipodi-0.dtd"
   xmlns:inkscape="http://www.inkscape.org/namespaces/inkscape"
   width="195.97426"
   height="82.723862"
   viewBox="0 0 51.851523 21.887355"
   version="1.1"
   id="svg2165"
   inkscape:version="0.92.0 r15299"
   sodipodi:docname="tpg.svg">
  <defs
     id="defs2159">
    <clipPath
       id="clipPath1563"
       clipPathUnits="userSpaceOnUse">
      <path
         inkscape:connector-curvature="0"
         id="path1561"
         d="m 233.15,694.806 h 145.7 V 756 h -145.7 z" />
    </clipPath>
  </defs>
  <sodipodi:namedview
     id="base"
     pagecolor="#ffffff"
     bordercolor="#666666"
     borderopacity="1.0"
     inkscape:pageopacity="0.0"
     inkscape:pageshadow="2"
     inkscape:zoom="4.1345693"
     inkscape:cx="96.987128"
     inkscape:cy="40.36193"
     inkscape:document-units="mm"
     inkscape:current-layer="layer1"
     showgrid="false"
     fit-margin-top="0"
     fit-margin-left="0"
     fit-margin-right="0"
     fit-margin-bottom="0"
     units="px"
     inkscape:window-width="1280"
     inkscape:window-height="744"
     inkscape:window-x="-4"
     inkscape:window-y="-4"
     inkscape:window-maximized="1" />
  <metadata
     id="metadata2162">
    <rdf:RDF>
      <cc:Work
         rdf:about="">
        <dc:format>image/svg+xml</dc:format>
        <dc:type
           rdf:resource="http://purl.org/dc/dcmitype/StillImage" />
        <dc:title></dc:title>
      </cc:Work>
    </rdf:RDF>
  </metadata>
  <g
     inkscape:label="Layer 1"
     inkscape:groupmode="layer"
     id="layer1"
     transform="translate(-30.279298,-154.25604)">
    <g
       id="g1557"
       transform="matrix(0.35277777,0,0,-0.35277777,-51.707339,421.22062)">
      <g
         id="g1559"
         clip-path="url(#clipPath1563)">
        <g
           id="g1565"
           transform="matrix(0.1079234,0,0,-0.1079221,-3.5e-6,-6.1e-5)">
          <g
             id="g1567"
             transform="translate(2878.3564,-6899.0527)">
            <path
               d="m 0,0 h -279 v 99 h 13 v -2 c 6,-34 17,-57 33,-70 15,-12 26,-12 55,-12 h 11 v 303 h -49 v 15 h 156 v -15 h -47 V 15 h 14 c 22,0 37,0 54,16 10,8 20,31 29,67 v 1 H 2 V 0 Z"
               style="fill:#003767;fill-opacity:1;fill-rule:nonzero;stroke:none"
               id="path1569"
               inkscape:connector-curvature="0" />
          </g>
        </g>
        <g
           id="g1571"
           transform="scale(0.1079234,-0.1079221)">
          <g
             id="g1573"
             transform="translate(3016.3564,-6884.0527)">
            <path
               d="m 0,0 h 21 c 45,0 66,0 78,25 3,6 7,18 7,51 0,33 -4,51 -14,62 -14,15 -31,16 -57,16 H 19 v 16 c 39,0 65,-1 90,-10 31,-11 63,-41 63,-84 0,-40 -26,-72 -68,-84 -22,-7 -47,-7 -75,-7 h -128 -3 v 14 h 44 v 304 h -43 v 15 H 44 V 303 H 0 Z"
               style="fill:#003767;fill-opacity:1;fill-rule:nonzero;stroke:none"
               id="path1575"
               inkscape:connector-curvature="0" />
          </g>
        </g>
        <g
           id="g1577"
           transform="matrix(0.1079234,0,0,-0.1079221,1.53e-5,6.1e-5)">
          <g
             id="g1579"
             transform="translate(3370.3564,-6730.0527)">
            <path
               d="m 0,0 v 16 h 51 c 0,26 0,89 -13,109 -7,13 -22,27 -51,27 -27,0 -61,-12 -69,-69 -4,-28 -4,-75 -4,-94 0,-39 2,-88 15,-113 12,-24 32,-31 39,-34 9,-2 18,-3 27,-3 70,0 89,72 93,94 l 1,2 h 13 L 99,-171 H 88 c 0,0 -14,17 -16,19 -19,-12 -42,-24 -76,-24 -43,0 -85,22 -115,60 -32,41 -39,72 -39,107 0,44 11,82 34,114 29,42 68,63 116,63 61,0 99,-35 115,-67 7,-16 10,-58 11,-79 v -6 h 20 V 0 Z"
               style="fill:#003767;fill-opacity:1;fill-rule:nonzero;stroke:none"
               id="path1581"
               inkscape:connector-curvature="0" />
          </g>
        </g>
        <g
           id="g1583"
           transform="matrix(0.1079234,0,0,-0.1079221,3.05e-5,1.221e-4)">
          <g
             id="g1585"
             transform="translate(2167.3567,-6994.0527)">
            <path
               d="m 0,0 h 352 c 4,0 6,-3 7,-7 2,-7 1,-7 -2,-7 H 0 c -4,0 -7,3 -7,7 0,4 3,7 7,7"
               style="fill:#9fa1a4;fill-opacity:1;fill-rule:evenodd;stroke:none"
               id="path1587"
               inkscape:connector-curvature="0" />
          </g>
        </g>
        <g
           id="g1589"
           transform="matrix(0.1079234,0,0,-0.1079221,4.58e-5,1.831e-4)">
          <g
             id="g1591"
             transform="translate(2167.3567,-6962.0527)">
            <path
               d="m 0,0 h 343 c 4,0 5,-3 6,-7 1,-3 3,-7 -6,-6 H 0 c -4,0 -7,3 -7,6 0,4 3,7 7,7"
               style="fill:#9fa1a4;fill-opacity:1;fill-rule:evenodd;stroke:none"
               id="path1593"
               inkscape:connector-curvature="0" />
          </g>
        </g>
        <g
           id="g1595"
           transform="matrix(0.1079234,0,0,-0.1079221,6.1e-5,2.441e-4)">
          <g
             id="g1597"
             transform="translate(2167.3567,-6929.0527)">
            <path
               d="m 0,0 h 332 c 3,0 5,-1 6,-7 2,-7 0,-7 -6,-7 H 0 c -4,0 -7,3 -7,7 0,4 3,7 7,7"
               style="fill:#9fa1a4;fill-opacity:1;fill-rule:evenodd;stroke:none"
               id="path1599"
               inkscape:connector-curvature="0" />
          </g>
        </g>
        <g
           id="g1601"
           transform="matrix(0.1079234,0,0,-0.1079221,7.63e-5,3.052e-4)">
          <g
             id="g1603"
             transform="translate(2167.3567,-6897.0527)">
            <path
               d="m 0,0 h 319 c 7,0 7,-2 9,-7 3,-8 -1,-7 -6,-7 H 0 c -4,0 -7,3 -7,7 0,4 3,7 7,7"
               style="fill:#9fa1a4;fill-opacity:1;fill-rule:evenodd;stroke:none"
               id="path1605"
               inkscape:connector-curvature="0" />
          </g>
        </g>
        <g
           id="g1607"
           transform="matrix(0.1079234,0,0,-0.1079221,9.16e-5,3.662e-4)">
          <g
             id="g1609"
             transform="translate(2167.3567,-6865.0527)">
            <path
               d="m 0,0 h 312 c 3,0 5,-4 6,-7 2,-7 -2,-6 -6,-6 H 0 c -4,0 -7,3 -7,6 0,4 3,7 7,7"
               style="fill:#9fa1a4;fill-opacity:1;fill-rule:evenodd;stroke:none"
               id="path1611"
               inkscape:connector-curvature="0" />
          </g>
        </g>
        <g
           id="g1613"
           transform="matrix(0.1079234,0,0,-0.1079221,1.068e-4,4.272e-4)">
          <g
             id="g1615"
             transform="translate(2167.3567,-6832.0527)">
            <path
               d="m 0,0 h 298 c 7,0 8,-3 9,-7 1,-3 3,-7 -6,-7 H 0 c -4,0 -7,3 -7,7 0,4 3,7 7,7"
               style="fill:#9fa1a4;fill-opacity:1;fill-rule:evenodd;stroke:none"
               id="path1617"
               inkscape:connector-curvature="0" />
          </g>
        </g>
        <g
           id="g1619"
           transform="matrix(0.1079234,0,0,-0.1079221,1.221e-4,4.883e-4)">
          <g
             id="g1621"
             transform="translate(2167.3567,-6800.0527)">
            <path
               d="m 0,0 h 288 c 4,0 7,-1 8,-7 1,-3 5,-7 -5,-7 H 0 c -4,0 -7,3 -7,7 0,5 1,7 7,7"
               style="fill:#9fa1a4;fill-opacity:1;fill-rule:evenodd;stroke:none"
               id="path1623"
               inkscape:connector-curvature="0" />
          </g>
        </g>
        <g
           id="g1625"
           transform="matrix(0.1079234,0,0,-0.1079221,1.373e-4,5.493e-4)">
          <g
             id="g1627"
             transform="translate(2167.3567,-6768.0527)">
            <path
               d="m 0,0 h 101 c 12,0 4,-4 2,-7 -11,-8 -11,-6 -19,-7 H 0 c -4,0 -7,4 -7,7 0,4 3,7 7,7"
               style="fill:#9fa1a4;fill-opacity:1;fill-rule:evenodd;stroke:none"
               id="path1629"
               inkscape:connector-curvature="0" />
          </g>
        </g>
        <g
           id="g1631"
           transform="matrix(0.1079234,0,0,-0.1079221,1.526e-4,6.104e-4)">
          <g
             id="g1633"
             transform="translate(2167.3567,-6735.0527)">
            <path
               d="m 0,0 h 144 c 13,0 6,-5 3,-7 -8,-7 -12,-7 -15,-7 H 0 c -4,0 -7,3 -7,7 0,3 3,7 7,7"
               style="fill:#9fa1a4;fill-opacity:1;fill-rule:evenodd;stroke:none"
               id="path1635"
               inkscape:connector-curvature="0" />
          </g>
        </g>
        <g
           id="g1637"
           transform="matrix(0.1079234,0,0,-0.1079221,1.678e-4,6.714e-4)">
          <g
             id="g1639"
             transform="translate(2167.3567,-6703.0527)">
            <path
               d="m 0,0 h 193 c 7,0 1,-5 -2,-7 -8,-6 -8,-7 -20,-7 H 0 c -4,0 -7,3 -7,7 0,4 3,7 7,7"
               style="fill:#9fa1a4;fill-opacity:1;fill-rule:evenodd;stroke:none"
               id="path1641"
               inkscape:connector-curvature="0" />
          </g>
        </g>
        <g
           id="g1643"
           transform="matrix(0.1079234,0,0,-0.1079221,1.831e-4,7.324e-4)">
          <g
             id="g1645"
             transform="translate(2167.3567,-6671.0527)">
            <path
               d="m 0,0 h 235 c 6,0 6,-3 1,-7 -8,-5 -7,-6 -17,-6 H 0 c -4,0 -7,3 -7,6 0,4 3,7 7,7"
               style="fill:#9fa1a4;fill-opacity:1;fill-rule:evenodd;stroke:none"
               id="path1647"
               inkscape:connector-curvature="0" />
          </g>
        </g>
        <g
           id="g1649"
           transform="matrix(0.1079234,0,0,-0.1079221,1.984e-4,7.935e-4)">
          <g
             id="g1651"
             transform="translate(2167.3567,-6638.0527)">
            <path
               d="m 0,0 h 237 c 4,0 5,-2 7,-7 2,-7 1,-7 -4,-7 H 0 c -4,0 -7,3 -7,7 0,3 3,7 7,7"
               style="fill:#9fa1a4;fill-opacity:1;fill-rule:evenodd;stroke:none"
               id="path1653"
               inkscape:connector-curvature="0" />
          </g>
        </g>
        <g
           id="g1655"
           transform="matrix(0.1079234,0,0,-0.1079221,2.136e-4,8.545e-4)">
          <g
             id="g1657"
             transform="translate(2167.3567,-6606.0527)">
            <path
               d="m 0,0 h 227 c 4,0 5,-3 7,-7 1,-4 2,-7 -3,-7 H 0 c -4,0 -7,3 -7,7 0,4 3,7 7,7"
               style="fill:#9fa1a4;fill-opacity:1;fill-rule:evenodd;stroke:none"
               id="path1659"
               inkscape:connector-curvature="0" />
          </g>
        </g>
        <g
           id="g1661"
           transform="matrix(0.1079234,0,0,-0.1079221,2.289e-4,9.155e-4)">
          <g
             id="g1663"
             transform="translate(2167.3567,-6574.0527)">
            <path
               d="m 0,0 h 216 c 3,0 5,0 7,-7 1,-4 3,-7 -3,-7 H 0 c -4,0 -7,4 -7,7 0,4 3,7 7,7"
               style="fill:#9fa1a4;fill-opacity:1;fill-rule:evenodd;stroke:none"
               id="path1665"
               inkscape:connector-curvature="0" />
          </g>
        </g>
        <g
           id="g1667"
           transform="matrix(0.1079234,0,0,-0.1079221,2.441e-4,9.766e-4)">
          <g
             id="g1669"
             transform="translate(2527.3567,-6588.0527)">
            <path
               d="m 0,0 c -1,1 -6,4 -9,7 -2,2 -8,6 8,7 H 2 C 6,14 9,11 9,7 9,4 6,0 2,0 Z"
               style="fill:#9fa1a4;fill-opacity:1;fill-rule:evenodd;stroke:none"
               id="path1671"
               inkscape:connector-curvature="0" />
          </g>
        </g>
        <g
           id="g1673"
           transform="matrix(0.1079234,0,0,-0.1079221,2.594e-4,0.0010376)">
          <g
             id="g1675"
             transform="translate(2167.3567,-6541.0527)">
            <path
               d="m 0,0 h 206 c 3,0 5,-2 6,-7 2,-6 2,-7 -3,-7 H 0 c -4,0 -7,3 -7,7 0,3 3,7 7,7"
               style="fill:#9fa1a4;fill-opacity:1;fill-rule:evenodd;stroke:none"
               id="path1677"
               inkscape:connector-curvature="0" />
          </g>
        </g>
        <g
           id="g1679"
           transform="matrix(0.1079234,0,0,-0.1079221,2.747e-4,0.0010986)">
          <g
             id="g1681"
             transform="translate(2529.3567,-6555.0527)">
            <path
               d="m 0,0 h -31 c -7,-1 -10,2 -16,6 -1,1 -8,7 2,8 H 0 C 4,14 7,10 7,7 7,3 4,0 0,0"
               style="fill:#9fa1a4;fill-opacity:1;fill-rule:evenodd;stroke:none"
               id="path1683"
               inkscape:connector-curvature="0" />
          </g>
        </g>
        <g
           id="g1685"
           transform="matrix(0.1079234,0,0,-0.1079221,2.899e-4,0.0011597)">
          <g
             id="g1687"
             transform="translate(2167.3567,-6509.0527)">
            <path
               d="m 0,0 h 195 c 4,0 6,-3 7,-7 1,-4 2,-7 -3,-7 H 0 c -4,0 -7,3 -7,7 0,4 3,7 7,7"
               style="fill:#9fa1a4;fill-opacity:1;fill-rule:evenodd;stroke:none"
               id="path1689"
               inkscape:connector-curvature="0" />
          </g>
        </g>
        <g
           id="g1691"
           transform="matrix(0.1079234,0,0,-0.1079221,3.052e-4,0.0012207)">
          <g
             id="g1693"
             transform="translate(2529.3567,-6523.0527)">
            <path
               d="m 0,0 h -74 c -7,0 -10,-1 -18,7 -2,2 -3,7 1,7 H 0 C 4,14 7,11 7,7 7,3 4,0 0,0"
               style="fill:#9fa1a4;fill-opacity:1;fill-rule:evenodd;stroke:none"
               id="path1695"
               inkscape:connector-curvature="0" />
          </g>
        </g>
        <g
           id="g1697"
           transform="matrix(0.1079234,0,0,-0.1079221,3.204e-4,0.0012817)">
          <g
             id="g1699"
             transform="translate(2358.3567,-6484.0527)">
            <path
               d="m 0,0 c 1,-3 3,-7 -3,-7 h -188 c -4,0 -7,4 -7,7 0,4 3,7 7,7 H -7 C -2,7 0,4 0,0"
               style="fill:#9fa1a4;fill-opacity:1;fill-rule:evenodd;stroke:none"
               id="path1701"
               inkscape:connector-curvature="0" />
          </g>
        </g>
        <g
           id="g1703"
           transform="matrix(0.1079234,0,0,-0.1079221,3.357e-4,0.0013428)">
          <g
             id="g1705"
             transform="translate(2529.3567,-6491.0527)">
            <path
               d="m 0,0 h -124 c -4,0 -8,4 -12,7 -2,2 -6,8 5,7 H 0 C 4,14 7,11 7,7 7,4 4,0 0,0"
               style="fill:#9fa1a4;fill-opacity:1;fill-rule:evenodd;stroke:none"
               id="path1707"
               inkscape:connector-curvature="0" />
          </g>
        </g>
        <g
           id="g1709"
           transform="matrix(0.1079234,0,0,-0.1079221,3.51e-4,0.0014038)">
          <g
             id="g1711"
             transform="translate(2529.3567,-6444.0527)">
            <path
               d="m 0,0 c 4,0 7,-4 7,-7 0,-4 -3,-7 -7,-7 h -161 c -9,0 -9,0 -16,5 0,0 -2,1 -3,2 h -1 c -2,0 4,-7 -4,-7 h -177 c -4,0 -7,3 -7,7 0,3 3,7 7,7 z"
               style="fill:#9fa1a4;fill-opacity:1;fill-rule:evenodd;stroke:none"
               id="path1713"
               inkscape:connector-curvature="0" />
          </g>
        </g>
      </g>
    </g>
  </g>
</svg>
